solid Pinadapter
facet normal 0.0 0.0 -1.0
  outer loop
    vertex 103.80095345189532 -0.31997215556381153 -5.639932965095795e-15
    vertex 103.80095345189532 -1.2517207179328889 -5.639932965095795e-15
    vertex 103.73961993921564 -0.7858464367483502 -5.639932965095795e-15
  endloop
endfacet
facet normal 0.0 0.0 -1.0
  outer loop
    vertex 103.80095345189532 -1.2517207179328889 -5.639932965095795e-15
    vertex 103.80095345189532 -0.31997215556381153 -5.639932965095795e-15
    vertex 103.98077421240367 0.1141535632516481 -5.639932965095795e-15
  endloop
endfacet
facet normal 0.0 0.0 -1.0
  outer loop
    vertex 103.80095345189532 -1.2517207179328889 -5.639932965095795e-15
    vertex 103.98077421240367 0.1141535632516481 -5.639932965095795e-15
    vertex 103.98077421240365 -1.6858464367483486 -5.639932965095795e-15
  endloop
endfacet
facet normal 0.0 0.0 -1.0
  outer loop
    vertex 103.98077421240365 -1.6858464367483486 -5.639932965095795e-15
    vertex 103.98077421240367 0.1141535632516481 -5.639932965095795e-15
    vertex 104.26682773307986 -2.0586386428841346 -5.639932965095795e-15
  endloop
endfacet
facet normal 0.0 0.0 -1.0
  outer loop
    vertex 104.26682773307986 -2.0586386428841346 -5.639932965095795e-15
    vertex 103.98077421240367 0.1141535632516481 -5.639932965095795e-15
    vertex 104.26682773307986 0.48694576938743395 -5.639932965095795e-15
  endloop
endfacet
facet normal 0.0 0.0 -1.0
  outer loop
    vertex 104.26682773307986 -2.0586386428841346 -5.639932965095795e-15
    vertex 104.26682773307986 0.48694576938743395 -5.639932965095795e-15
    vertex 104.63961993921565 0.7729992900636369 -5.639932965095795e-15
  endloop
endfacet
facet normal 0.0 0.0 -1.0
  outer loop
    vertex 104.26682773307986 -2.0586386428841346 -5.639932965095795e-15
    vertex 104.63961993921565 0.7729992900636369 -5.639932965095795e-15
    vertex 104.63961993921565 -2.3446921635603375 -5.639932965095795e-15
  endloop
endfacet
facet normal 0.0 0.0 -1.0
  outer loop
    vertex 104.63961993921565 -2.3446921635603375 -5.639932965095795e-15
    vertex 104.63961993921565 0.7729992900636369 -5.639932965095795e-15
    vertex 105.0737456580311 0.9528200505719727 -5.639932965095795e-15
  endloop
endfacet
facet normal 0.0 0.0 -1.0
  outer loop
    vertex 104.63961993921565 -2.3446921635603375 -5.639932965095795e-15
    vertex 105.0737456580311 0.9528200505719727 -5.639932965095795e-15
    vertex 105.0737456580311 -2.5245129240686732 -5.639932965095795e-15
  endloop
endfacet
facet normal 0.0 0.0 -1.0
  outer loop
    vertex 105.0737456580311 -2.5245129240686732 -5.639932965095795e-15
    vertex 105.0737456580311 0.9528200505719727 -5.639932965095795e-15
    vertex 105.53961993921564 1.0141535632516465 -5.639932965095795e-15
  endloop
endfacet
facet normal 0.0 0.0 -1.0
  outer loop
    vertex 105.0737456580311 -2.5245129240686732 -5.639932965095795e-15
    vertex 105.53961993921564 1.0141535632516465 -5.639932965095795e-15
    vertex 105.53961993921564 -2.585846436748347 -5.639932965095795e-15
  endloop
endfacet
facet normal 0.0 0.0 -1.0
  outer loop
    vertex 105.53961993921564 -2.585846436748347 -5.639932965095795e-15
    vertex 105.53961993921564 1.0141535632516465 -5.639932965095795e-15
    vertex 106.00549422040018 0.9528200505719727 -5.639932965095795e-15
  endloop
endfacet
facet normal 0.0 0.0 -1.0
  outer loop
    vertex 105.53961993921564 -2.585846436748347 -5.639932965095795e-15
    vertex 106.00549422040018 0.9528200505719727 -5.639932965095795e-15
    vertex 106.00549422040018 -2.5245129240686732 -5.639932965095795e-15
  endloop
endfacet
facet normal 0.0 0.0 -1.0
  outer loop
    vertex 106.00549422040018 -2.5245129240686732 -5.639932965095795e-15
    vertex 106.00549422040018 0.9528200505719727 -5.639932965095795e-15
    vertex 106.43961993921565 -2.3446921635603375 -5.639932965095795e-15
  endloop
endfacet
facet normal 0.0 0.0 -1.0
  outer loop
    vertex 106.43961993921565 -2.3446921635603375 -5.639932965095795e-15
    vertex 106.00549422040018 0.9528200505719727 -5.639932965095795e-15
    vertex 106.43961993921565 0.7729992900636369 -5.639932965095795e-15
  endloop
endfacet
facet normal 0.0 0.0 -1.0
  outer loop
    vertex 106.43961993921565 -2.3446921635603375 -5.639932965095795e-15
    vertex 106.43961993921565 0.7729992900636369 -5.639932965095795e-15
    vertex 106.81241214535143 -2.0586386428841346 -5.639932965095795e-15
  endloop
endfacet
facet normal 0.0 0.0 -1.0
  outer loop
    vertex 106.81241214535143 -2.0586386428841346 -5.639932965095795e-15
    vertex 106.43961993921565 0.7729992900636369 -5.639932965095795e-15
    vertex 106.81241214535143 0.48694576938743395 -5.639932965095795e-15
  endloop
endfacet
facet normal 0.0 0.0 -1.0
  outer loop
    vertex 106.81241214535143 -2.0586386428841346 -5.639932965095795e-15
    vertex 106.81241214535143 0.48694576938743395 -5.639932965095795e-15
    vertex 107.09846566602764 0.1141535632516481 -5.639932965095795e-15
  endloop
endfacet
facet normal 0.0 0.0 -1.0
  outer loop
    vertex 106.81241214535143 -2.0586386428841346 -5.639932965095795e-15
    vertex 107.09846566602764 0.1141535632516481 -5.639932965095795e-15
    vertex 107.09846566602764 -1.6858464367483486 -5.639932965095795e-15
  endloop
endfacet
facet normal 0.0 0.0 -1.0
  outer loop
    vertex 107.09846566602764 -1.6858464367483486 -5.639932965095795e-15
    vertex 107.09846566602764 0.1141535632516481 -5.639932965095795e-15
    vertex 107.27828642653597 -0.31997215556381153 -5.639932965095795e-15
  endloop
endfacet
facet normal 0.0 0.0 -1.0
  outer loop
    vertex 107.09846566602764 -1.6858464367483486 -5.639932965095795e-15
    vertex 107.27828642653597 -0.31997215556381153 -5.639932965095795e-15
    vertex 107.27828642653597 -1.2517207179328889 -5.639932965095795e-15
  endloop
endfacet
facet normal 0.0 0.0 -1.0
  outer loop
    vertex 107.27828642653597 -1.2517207179328889 -5.639932965095795e-15
    vertex 107.27828642653597 -0.31997215556381153 -5.639932965095795e-15
    vertex 107.33961993921564 -0.7858464367483502 -5.639932965095795e-15
  endloop
endfacet
facet normal 0.6087614290087039 -0.7933533402912479 -1.240684894620628e-16
  outer loop
    vertex 106.60028011099544 -1.8465066085281854 9.399999999999993
    vertex 106.28961993921565 -2.0848845424250007 0.9999999999999943
    vertex 106.60028011099547 -1.8465066085281743 0.9999999999999943
  endloop
endfacet
facet normal 0.6087614290087039 -0.7933533402912479 -1.240684894620628e-16
  outer loop
    vertex 106.28961993921565 -2.0848845424250007 0.9999999999999943
    vertex 106.60028011099544 -1.8465066085281854 9.399999999999993
    vertex 106.28961993921565 -2.0848845424250007 9.399999999999993
  endloop
endfacet
facet normal 0.9238795325112871 -0.38268343236508906 8.236844811801616e-16
  outer loop
    vertex 106.98850867864924 -1.1740750044021289 0.9999999999999943
    vertex 106.8386580448923 -1.5358464367483489 9.399999999999993
    vertex 106.83865804489231 -1.5358464367483489 0.9999999999999943
  endloop
endfacet
facet normal 0.9238795325112871 -0.38268343236508906 8.236844811801616e-16
  outer loop
    vertex 106.8386580448923 -1.5358464367483489 9.399999999999993
    vertex 106.98850867864924 -1.1740750044021289 0.9999999999999943
    vertex 106.98850867864924 -1.1740750044021062 9.399999999999993
  endloop
endfacet
facet normal 0.9914448613738096 0.13052619222005826 -2.4546990832758933e-16
  outer loop
    vertex 106.98850867864924 -0.39761786909457175 0.9999999999999943
    vertex 107.03961993921564 -0.785846436748339 9.399999999999993
    vertex 107.03961993921564 -0.7858464367483502 0.9999999999999943
  endloop
endfacet
facet normal 0.9914448613738096 0.13052619222005826 -2.4546990832758933e-16
  outer loop
    vertex 107.03961993921564 -0.785846436748339 9.399999999999993
    vertex 106.98850867864924 -0.39761786909457175 0.9999999999999943
    vertex 106.98850867864924 -0.3976178690945943 9.399999999999993
  endloop
endfacet
facet normal 0.9238795325112922 0.38268343236507674 2.0363956803706353e-16
  outer loop
    vertex 106.98850867864924 -0.39761786909457175 0.9999999999999943
    vertex 106.83865804489231 -0.03584643674835162 9.399999999999993
    vertex 106.98850867864924 -0.3976178690945943 9.399999999999993
  endloop
endfacet
facet normal 0.9238795325112922 0.38268343236507674 2.0363956803706353e-16
  outer loop
    vertex 106.83865804489231 -0.03584643674835162 9.399999999999993
    vertex 106.98850867864924 -0.39761786909457175 0.9999999999999943
    vertex 106.83865804489231 -0.03584643674835162 0.9999999999999943
  endloop
endfacet
facet normal 0.7933533402912377 0.6087614290087173 1.2069693947329042e-18
  outer loop
    vertex 106.60028011099547 0.2748137350314737 0.9999999999999943
    vertex 106.83865804489231 -0.03584643674835162 9.399999999999993
    vertex 106.83865804489231 -0.03584643674835162 0.9999999999999943
  endloop
endfacet
facet normal 0.7933533402912377 0.6087614290087173 1.2069693947329042e-18
  outer loop
    vertex 106.83865804489231 -0.03584643674835162 9.399999999999993
    vertex 106.60028011099547 0.2748137350314737 0.9999999999999943
    vertex 106.60028011099547 0.2748137350314737 9.399999999999993
  endloop
endfacet
facet normal 0.7933533402912397 -0.6087614290087148 3.898975700305605e-16
  outer loop
    vertex 106.60028011099547 -1.8465066085281743 0.9999999999999943
    vertex 106.8386580448923 -1.5358464367483489 9.399999999999993
    vertex 106.60028011099544 -1.8465066085281854 9.399999999999993
  endloop
endfacet
facet normal 0.7933533402912397 -0.6087614290087148 3.898975700305605e-16
  outer loop
    vertex 106.8386580448923 -1.5358464367483489 9.399999999999993
    vertex 106.60028011099547 -1.8465066085281743 0.9999999999999943
    vertex 106.83865804489231 -1.5358464367483489 0.9999999999999943
  endloop
endfacet
facet normal 0.9914448613738109 -0.13052619222004738 2.6293022110283876e-16
  outer loop
    vertex 107.03961993921564 -0.7858464367483502 0.9999999999999943
    vertex 106.98850867864924 -1.1740750044021062 9.399999999999993
    vertex 106.98850867864924 -1.1740750044021289 0.9999999999999943
  endloop
endfacet
facet normal 0.9914448613738109 -0.13052619222004738 2.6293022110283876e-16
  outer loop
    vertex 106.98850867864924 -1.1740750044021062 9.399999999999993
    vertex 107.03961993921564 -0.7858464367483502 0.9999999999999943
    vertex 107.03961993921564 -0.785846436748339 9.399999999999993
  endloop
endfacet
facet normal 0.6087614290087232 0.7933533402912333 6.000620047752189e-17
  outer loop
    vertex 106.28961993921561 0.5131916689283339 9.399999999999993
    vertex 106.60028011099547 0.2748137350314737 0.9999999999999943
    vertex 106.28961993921565 0.5131916689283114 0.9999999999999943
  endloop
endfacet
facet normal 0.6087614290087232 0.7933533402912333 6.000620047752189e-17
  outer loop
    vertex 106.60028011099547 0.2748137350314737 0.9999999999999943
    vertex 106.28961993921561 0.5131916689283339 9.399999999999993
    vertex 106.60028011099547 0.2748137350314737 9.399999999999993
  endloop
endfacet
facet normal 0.3826834323650792 0.9238795325112911 -9.830365863248892e-16
  outer loop
    vertex 105.92784850686944 0.6630423026852522 9.399999999999993
    vertex 106.28961993921565 0.5131916689283114 0.9999999999999943
    vertex 105.92784850686942 0.6630423026852522 0.9999999999999943
  endloop
endfacet
facet normal 0.3826834323650792 0.9238795325112911 -9.830365863248892e-16
  outer loop
    vertex 106.28961993921565 0.5131916689283114 0.9999999999999943
    vertex 105.92784850686944 0.6630423026852522 9.399999999999993
    vertex 106.28961993921561 0.5131916689283339 9.399999999999993
  endloop
endfacet
facet normal -0.9238795325112895 -0.3826834323650829 5.136620246086135e-16
  outer loop
    vertex 104.09073119978204 -1.1740750044021062 9.399999999999993
    vertex 104.240581833539 -1.5358464367483489 0.9999999999999943
    vertex 104.240581833539 -1.5358464367483489 9.399999999999993
  endloop
endfacet
facet normal -0.9238795325112895 -0.3826834323650829 5.136620246086135e-16
  outer loop
    vertex 104.240581833539 -1.5358464367483489 0.9999999999999943
    vertex 104.09073119978204 -1.1740750044021062 9.399999999999993
    vertex 104.09073119978204 -1.1740750044021289 0.9999999999999943
  endloop
endfacet
facet normal 0.13052619222004228 0.9914448613738116 -1.5346222550588294e-16
  outer loop
    vertex 105.53961993921564 0.714153563251647 9.399999999999993
    vertex 105.92784850686942 0.6630423026852522 0.9999999999999943
    vertex 105.53961993921564 0.714153563251647 0.9999999999999943
  endloop
endfacet
facet normal 0.13052619222004228 0.9914448613738116 -1.5346222550588294e-16
  outer loop
    vertex 105.92784850686942 0.6630423026852522 0.9999999999999943
    vertex 105.53961993921564 0.714153563251647 9.399999999999993
    vertex 105.92784850686944 0.6630423026852522 9.399999999999993
  endloop
endfacet
facet normal -0.9914448613738098 -0.13052619222005632 -1.574945253380177e-16
  outer loop
    vertex 104.09073119978204 -1.1740750044021062 9.399999999999993
    vertex 104.03961993921564 -0.7858464367483502 0.9999999999999943
    vertex 104.09073119978204 -1.1740750044021289 0.9999999999999943
  endloop
endfacet
facet normal -0.9914448613738098 -0.13052619222005632 -1.574945253380177e-16
  outer loop
    vertex 104.03961993921564 -0.7858464367483502 0.9999999999999943
    vertex 104.09073119978204 -1.1740750044021062 9.399999999999993
    vertex 104.03961993921564 -0.7858464367483502 9.399999999999993
  endloop
endfacet
facet normal -0.7933533402912379 -0.6087614290087171 2.574035225713059e-16
  outer loop
    vertex 104.240581833539 -1.5358464367483489 9.399999999999993
    vertex 104.47895976743584 -1.8465066085281743 0.9999999999999943
    vertex 104.47895976743584 -1.8465066085281854 9.399999999999993
  endloop
endfacet
facet normal -0.7933533402912379 -0.6087614290087171 2.574035225713059e-16
  outer loop
    vertex 104.47895976743584 -1.8465066085281743 0.9999999999999943
    vertex 104.240581833539 -1.5358464367483489 9.399999999999993
    vertex 104.240581833539 -1.5358464367483489 0.9999999999999943
  endloop
endfacet
facet normal -0.382683432365108 -0.9238795325112793 1.0782239888375186e-32
  outer loop
    vertex 105.15139137156186 -2.2347351761819527 9.399999999999993
    vertex 104.78961993921565 -2.0848845424250007 0.9999999999999943
    vertex 105.15139137156186 -2.2347351761819527 0.9999999999999943
  endloop
endfacet
facet normal -0.382683432365108 -0.9238795325112793 1.0782239888375186e-32
  outer loop
    vertex 104.78961993921565 -2.0848845424250007 0.9999999999999943
    vertex 105.15139137156186 -2.2347351761819527 9.399999999999993
    vertex 104.78961993921565 -2.0848845424250007 9.399999999999993
  endloop
endfacet
facet normal -0.13052619222004463 -0.9914448613738114 -2.1979683158834078e-31
  outer loop
    vertex 105.53961993921564 -2.2858464367483475 9.399999999999993
    vertex 105.15139137156186 -2.2347351761819527 0.9999999999999943
    vertex 105.53961993921564 -2.2858464367483475 0.9999999999999943
  endloop
endfacet
facet normal -0.13052619222004463 -0.9914448613738114 -2.1979683158834078e-31
  outer loop
    vertex 105.15139137156186 -2.2347351761819527 0.9999999999999943
    vertex 105.53961993921564 -2.2858464367483475 9.399999999999993
    vertex 105.15139137156186 -2.2347351761819527 9.399999999999993
  endloop
endfacet
facet normal 0.1305261922200446 -0.9914448613738114 -3.677621232606597e-33
  outer loop
    vertex 105.92784850686942 -2.2347351761819527 9.399999999999993
    vertex 105.53961993921564 -2.2858464367483475 0.9999999999999943
    vertex 105.92784850686942 -2.2347351761819527 0.9999999999999943
  endloop
endfacet
facet normal 0.1305261922200446 -0.9914448613738114 -3.677621232606597e-33
  outer loop
    vertex 105.53961993921564 -2.2858464367483475 0.9999999999999943
    vertex 105.92784850686942 -2.2347351761819527 9.399999999999993
    vertex 105.53961993921564 -2.2858464367483475 9.399999999999993
  endloop
endfacet
facet normal 0.38268343236510804 -0.9238795325112793 -1.9746279828181757e-31
  outer loop
    vertex 106.28961993921565 -2.0848845424250007 9.399999999999993
    vertex 105.92784850686942 -2.2347351761819527 0.9999999999999943
    vertex 106.28961993921565 -2.0848845424250007 0.9999999999999943
  endloop
endfacet
facet normal 0.38268343236510804 -0.9238795325112793 -1.9746279828181757e-31
  outer loop
    vertex 105.92784850686942 -2.2347351761819527 0.9999999999999943
    vertex 106.28961993921565 -2.0848845424250007 9.399999999999993
    vertex 105.92784850686942 -2.2347351761819527 9.399999999999993
  endloop
endfacet
facet normal -0.9238795325112897 0.3826834323650829 5.136620246086135e-16
  outer loop
    vertex 104.240581833539 -0.03584643674835162 9.399999999999993
    vertex 104.09073119978204 -0.39761786909457175 0.9999999999999943
    vertex 104.09073119978204 -0.3976178690945943 9.399999999999993
  endloop
endfacet
facet normal -0.9238795325112897 0.3826834323650829 5.136620246086135e-16
  outer loop
    vertex 104.09073119978204 -0.39761786909457175 0.9999999999999943
    vertex 104.240581833539 -0.03584643674835162 9.399999999999993
    vertex 104.240581833539 -0.03584643674835162 0.9999999999999943
  endloop
endfacet
facet normal -0.6087614290087039 -0.7933533402912479 -1.240684894620628e-16
  outer loop
    vertex 104.78961993921565 -2.0848845424250007 9.399999999999993
    vertex 104.47895976743584 -1.8465066085281743 0.9999999999999943
    vertex 104.78961993921565 -2.0848845424250007 0.9999999999999943
  endloop
endfacet
facet normal -0.6087614290087039 -0.7933533402912479 -1.240684894620628e-16
  outer loop
    vertex 104.47895976743584 -1.8465066085281743 0.9999999999999943
    vertex 104.78961993921565 -2.0848845424250007 9.399999999999993
    vertex 104.47895976743584 -1.8465066085281854 9.399999999999993
  endloop
endfacet
facet normal -0.7933533402912379 0.608761429008717 2.5619655317657305e-16
  outer loop
    vertex 104.47895976743584 0.274813735031485 9.399999999999993
    vertex 104.240581833539 -0.03584643674835162 0.9999999999999943
    vertex 104.240581833539 -0.03584643674835162 9.399999999999993
  endloop
endfacet
facet normal -0.7933533402912379 0.608761429008717 2.5619655317657305e-16
  outer loop
    vertex 104.240581833539 -0.03584643674835162 0.9999999999999943
    vertex 104.47895976743584 0.274813735031485 9.399999999999993
    vertex 104.47895976743584 0.2748137350314737 0.9999999999999943
  endloop
endfacet
facet normal -0.1305261922200446 0.9914448613738114 -3.677621232606597e-33
  outer loop
    vertex 105.15139137156186 0.6630423026852522 9.399999999999993
    vertex 105.53961993921564 0.714153563251647 0.9999999999999943
    vertex 105.15139137156186 0.6630423026852522 0.9999999999999943
  endloop
endfacet
facet normal -0.1305261922200446 0.9914448613738114 -3.677621232606597e-33
  outer loop
    vertex 105.53961993921564 0.714153563251647 0.9999999999999943
    vertex 105.15139137156186 0.6630423026852522 9.399999999999993
    vertex 105.53961993921564 0.714153563251647 9.399999999999993
  endloop
endfacet
facet normal -0.38268343236510793 0.9238795325112793 2.190272780585679e-31
  outer loop
    vertex 104.78961993921565 0.5131916689283 9.399999999999993
    vertex 105.15139137156186 0.6630423026852522 0.9999999999999943
    vertex 104.78961993921565 0.5131916689283 0.9999999999999943
  endloop
endfacet
facet normal -0.38268343236510793 0.9238795325112793 2.190272780585679e-31
  outer loop
    vertex 105.15139137156186 0.6630423026852522 0.9999999999999943
    vertex 104.78961993921565 0.5131916689283 9.399999999999993
    vertex 105.15139137156186 0.6630423026852522 9.399999999999993
  endloop
endfacet
facet normal -0.6087614290087039 0.7933533402912479 -1.240684894620628e-16
  outer loop
    vertex 104.47895976743584 0.274813735031485 9.399999999999993
    vertex 104.78961993921565 0.5131916689283 0.9999999999999943
    vertex 104.47895976743584 0.2748137350314737 0.9999999999999943
  endloop
endfacet
facet normal -0.6087614290087039 0.7933533402912479 -1.240684894620628e-16
  outer loop
    vertex 104.78961993921565 0.5131916689283 0.9999999999999943
    vertex 104.47895976743584 0.274813735031485 9.399999999999993
    vertex 104.78961993921565 0.5131916689283 9.399999999999993
  endloop
endfacet
facet normal -0.9914448613738098 0.13052619222005638 -1.5749452533801762e-16
  outer loop
    vertex 104.09073119978204 -0.3976178690945943 9.399999999999993
    vertex 104.03961993921564 -0.7858464367483502 0.9999999999999943
    vertex 104.03961993921564 -0.7858464367483502 9.399999999999993
  endloop
endfacet
facet normal -0.9914448613738098 0.13052619222005638 -1.5749452533801762e-16
  outer loop
    vertex 104.03961993921564 -0.7858464367483502 0.9999999999999943
    vertex 104.09073119978204 -0.3976178690945943 9.399999999999993
    vertex 104.09073119978204 -0.39761786909457175 0.9999999999999943
  endloop
endfacet
facet normal 0.0 0.0 1.0
  outer loop
    vertex 103.80095345189532 -1.2517207179328889 0.9999999999999943
    vertex 103.80095345189532 -0.31997215556381153 0.9999999999999943
    vertex 103.73961993921564 -0.7858464367483502 0.9999999999999943
  endloop
endfacet
facet normal 0.0 0.0 1.0
  outer loop
    vertex 103.80095345189532 -0.31997215556381153 0.9999999999999943
    vertex 103.80095345189532 -1.2517207179328889 0.9999999999999943
    vertex 103.98077421240365 -1.6858464367483486 0.9999999999999943
  endloop
endfacet
facet normal 0.0 0.0 1.0
  outer loop
    vertex 103.80095345189532 -0.31997215556381153 0.9999999999999943
    vertex 103.98077421240365 -1.6858464367483486 0.9999999999999943
    vertex 103.98077421240367 0.1141535632516481 0.9999999999999943
  endloop
endfacet
facet normal 0.0 0.0 1.0
  outer loop
    vertex 103.98077421240367 0.1141535632516481 0.9999999999999943
    vertex 103.98077421240365 -1.6858464367483486 0.9999999999999943
    vertex 104.03961993921564 -0.7858464367483502 0.9999999999999943
  endloop
endfacet
facet normal 0.0 0.0 1.0
  outer loop
    vertex 104.03961993921564 -0.7858464367483502 0.9999999999999943
    vertex 103.98077421240365 -1.6858464367483486 0.9999999999999943
    vertex 104.09073119978204 -1.1740750044021289 0.9999999999999943
  endloop
endfacet
facet normal 0.0 0.0 1.0
  outer loop
    vertex 104.09073119978204 -1.1740750044021289 0.9999999999999943
    vertex 103.98077421240365 -1.6858464367483486 0.9999999999999943
    vertex 104.26682773307986 -2.0586386428841346 0.9999999999999943
  endloop
endfacet
facet normal 0.0 0.0 1.0
  outer loop
    vertex 104.09073119978204 -1.1740750044021289 0.9999999999999943
    vertex 104.26682773307986 -2.0586386428841346 0.9999999999999943
    vertex 104.240581833539 -1.5358464367483489 0.9999999999999943
  endloop
endfacet
facet normal 0.0 0.0 1.0
  outer loop
    vertex 104.240581833539 -1.5358464367483489 0.9999999999999943
    vertex 104.26682773307986 -2.0586386428841346 0.9999999999999943
    vertex 104.47895976743584 -1.8465066085281743 0.9999999999999943
  endloop
endfacet
facet normal 0.0 0.0 1.0
  outer loop
    vertex 104.47895976743584 -1.8465066085281743 0.9999999999999943
    vertex 104.26682773307986 -2.0586386428841346 0.9999999999999943
    vertex 104.63961993921565 -2.3446921635603375 0.9999999999999943
  endloop
endfacet
facet normal 0.0 0.0 1.0
  outer loop
    vertex 104.47895976743584 -1.8465066085281743 0.9999999999999943
    vertex 104.63961993921565 -2.3446921635603375 0.9999999999999943
    vertex 104.78961993921565 -2.0848845424250007 0.9999999999999943
  endloop
endfacet
facet normal 0.0 0.0 1.0
  outer loop
    vertex 104.78961993921565 -2.0848845424250007 0.9999999999999943
    vertex 104.63961993921565 -2.3446921635603375 0.9999999999999943
    vertex 105.0737456580311 -2.5245129240686732 0.9999999999999943
  endloop
endfacet
facet normal 0.0 0.0 1.0
  outer loop
    vertex 104.78961993921565 -2.0848845424250007 0.9999999999999943
    vertex 105.0737456580311 -2.5245129240686732 0.9999999999999943
    vertex 105.15139137156186 -2.2347351761819527 0.9999999999999943
  endloop
endfacet
facet normal 0.0 0.0 1.0
  outer loop
    vertex 105.15139137156186 -2.2347351761819527 0.9999999999999943
    vertex 105.0737456580311 -2.5245129240686732 0.9999999999999943
    vertex 105.53961993921564 -2.585846436748347 0.9999999999999943
  endloop
endfacet
facet normal 0.0 0.0 1.0
  outer loop
    vertex 105.15139137156186 -2.2347351761819527 0.9999999999999943
    vertex 105.53961993921564 -2.585846436748347 0.9999999999999943
    vertex 105.53961993921564 -2.2858464367483475 0.9999999999999943
  endloop
endfacet
facet normal 0.0 0.0 1.0
  outer loop
    vertex 105.53961993921564 -2.2858464367483475 0.9999999999999943
    vertex 105.53961993921564 -2.585846436748347 0.9999999999999943
    vertex 106.00549422040018 -2.5245129240686732 0.9999999999999943
  endloop
endfacet
facet normal 0.0 0.0 1.0
  outer loop
    vertex 105.53961993921564 -2.2858464367483475 0.9999999999999943
    vertex 106.00549422040018 -2.5245129240686732 0.9999999999999943
    vertex 105.92784850686942 -2.2347351761819527 0.9999999999999943
  endloop
endfacet
facet normal 0.0 0.0 1.0
  outer loop
    vertex 105.92784850686942 -2.2347351761819527 0.9999999999999943
    vertex 106.00549422040018 -2.5245129240686732 0.9999999999999943
    vertex 106.28961993921565 -2.0848845424250007 0.9999999999999943
  endloop
endfacet
facet normal 0.0 0.0 1.0
  outer loop
    vertex 106.28961993921565 -2.0848845424250007 0.9999999999999943
    vertex 106.00549422040018 -2.5245129240686732 0.9999999999999943
    vertex 106.43961993921565 -2.3446921635603375 0.9999999999999943
  endloop
endfacet
facet normal 0.0 0.0 1.0
  outer loop
    vertex 106.28961993921565 -2.0848845424250007 0.9999999999999943
    vertex 106.43961993921565 -2.3446921635603375 0.9999999999999943
    vertex 106.60028011099547 -1.8465066085281743 0.9999999999999943
  endloop
endfacet
facet normal 0.0 0.0 1.0
  outer loop
    vertex 106.60028011099547 -1.8465066085281743 0.9999999999999943
    vertex 106.43961993921565 -2.3446921635603375 0.9999999999999943
    vertex 106.81241214535143 -2.0586386428841346 0.9999999999999943
  endloop
endfacet
facet normal 0.0 0.0 1.0
  outer loop
    vertex 106.60028011099547 -1.8465066085281743 0.9999999999999943
    vertex 106.81241214535143 -2.0586386428841346 0.9999999999999943
    vertex 106.83865804489231 -1.5358464367483489 0.9999999999999943
  endloop
endfacet
facet normal 0.0 0.0 1.0
  outer loop
    vertex 106.83865804489231 -1.5358464367483489 0.9999999999999943
    vertex 106.81241214535143 -2.0586386428841346 0.9999999999999943
    vertex 107.09846566602764 -1.6858464367483486 0.9999999999999943
  endloop
endfacet
facet normal 0.0 0.0 1.0
  outer loop
    vertex 106.83865804489231 -1.5358464367483489 0.9999999999999943
    vertex 107.09846566602764 -1.6858464367483486 0.9999999999999943
    vertex 106.98850867864924 -1.1740750044021289 0.9999999999999943
  endloop
endfacet
facet normal 0.0 0.0 1.0
  outer loop
    vertex 106.98850867864924 -1.1740750044021289 0.9999999999999943
    vertex 107.09846566602764 -1.6858464367483486 0.9999999999999943
    vertex 107.03961993921564 -0.7858464367483502 0.9999999999999943
  endloop
endfacet
facet normal 0.0 0.0 1.0
  outer loop
    vertex 103.98077421240367 0.1141535632516481 0.9999999999999943
    vertex 104.09073119978204 -0.39761786909457175 0.9999999999999943
    vertex 104.26682773307986 0.48694576938743395 0.9999999999999943
  endloop
endfacet
facet normal 0.0 0.0 1.0
  outer loop
    vertex 104.09073119978204 -0.39761786909457175 0.9999999999999943
    vertex 103.98077421240367 0.1141535632516481 0.9999999999999943
    vertex 104.03961993921564 -0.7858464367483502 0.9999999999999943
  endloop
endfacet
facet normal 0.0 0.0 1.0
  outer loop
    vertex 104.26682773307986 0.48694576938743395 0.9999999999999943
    vertex 104.09073119978204 -0.39761786909457175 0.9999999999999943
    vertex 104.240581833539 -0.03584643674835162 0.9999999999999943
  endloop
endfacet
facet normal 0.0 0.0 1.0
  outer loop
    vertex 104.26682773307986 0.48694576938743395 0.9999999999999943
    vertex 104.240581833539 -0.03584643674835162 0.9999999999999943
    vertex 104.47895976743584 0.2748137350314737 0.9999999999999943
  endloop
endfacet
facet normal 0.0 0.0 1.0
  outer loop
    vertex 104.26682773307986 0.48694576938743395 0.9999999999999943
    vertex 104.47895976743584 0.2748137350314737 0.9999999999999943
    vertex 104.63961993921565 0.7729992900636369 0.9999999999999943
  endloop
endfacet
facet normal 0.0 0.0 1.0
  outer loop
    vertex 104.63961993921565 0.7729992900636369 0.9999999999999943
    vertex 104.47895976743584 0.2748137350314737 0.9999999999999943
    vertex 104.78961993921565 0.5131916689283 0.9999999999999943
  endloop
endfacet
facet normal 0.0 0.0 1.0
  outer loop
    vertex 104.63961993921565 0.7729992900636369 0.9999999999999943
    vertex 104.78961993921565 0.5131916689283 0.9999999999999943
    vertex 105.0737456580311 0.9528200505719727 0.9999999999999943
  endloop
endfacet
facet normal 0.0 0.0 1.0
  outer loop
    vertex 105.0737456580311 0.9528200505719727 0.9999999999999943
    vertex 104.78961993921565 0.5131916689283 0.9999999999999943
    vertex 105.15139137156186 0.6630423026852522 0.9999999999999943
  endloop
endfacet
facet normal 0.0 0.0 1.0
  outer loop
    vertex 105.0737456580311 0.9528200505719727 0.9999999999999943
    vertex 105.15139137156186 0.6630423026852522 0.9999999999999943
    vertex 105.53961993921564 1.0141535632516465 0.9999999999999943
  endloop
endfacet
facet normal 0.0 0.0 1.0
  outer loop
    vertex 105.53961993921564 1.0141535632516465 0.9999999999999943
    vertex 105.15139137156186 0.6630423026852522 0.9999999999999943
    vertex 105.53961993921564 0.714153563251647 0.9999999999999943
  endloop
endfacet
facet normal 0.0 0.0 1.0
  outer loop
    vertex 105.53961993921564 1.0141535632516465 0.9999999999999943
    vertex 105.53961993921564 0.714153563251647 0.9999999999999943
    vertex 105.92784850686942 0.6630423026852522 0.9999999999999943
  endloop
endfacet
facet normal 0.0 0.0 1.0
  outer loop
    vertex 105.53961993921564 1.0141535632516465 0.9999999999999943
    vertex 105.92784850686942 0.6630423026852522 0.9999999999999943
    vertex 106.00549422040018 0.9528200505719727 0.9999999999999943
  endloop
endfacet
facet normal 0.0 0.0 1.0
  outer loop
    vertex 106.00549422040018 0.9528200505719727 0.9999999999999943
    vertex 105.92784850686942 0.6630423026852522 0.9999999999999943
    vertex 106.28961993921565 0.5131916689283114 0.9999999999999943
  endloop
endfacet
facet normal 0.0 0.0 1.0
  outer loop
    vertex 106.00549422040018 0.9528200505719727 0.9999999999999943
    vertex 106.28961993921565 0.5131916689283114 0.9999999999999943
    vertex 106.43961993921565 0.7729992900636369 0.9999999999999943
  endloop
endfacet
facet normal 0.0 0.0 1.0
  outer loop
    vertex 106.43961993921565 0.7729992900636369 0.9999999999999943
    vertex 106.28961993921565 0.5131916689283114 0.9999999999999943
    vertex 106.60028011099547 0.2748137350314737 0.9999999999999943
  endloop
endfacet
facet normal 0.0 0.0 1.0
  outer loop
    vertex 106.43961993921565 0.7729992900636369 0.9999999999999943
    vertex 106.60028011099547 0.2748137350314737 0.9999999999999943
    vertex 106.81241214535143 0.48694576938743395 0.9999999999999943
  endloop
endfacet
facet normal 0.0 0.0 1.0
  outer loop
    vertex 106.81241214535143 0.48694576938743395 0.9999999999999943
    vertex 106.60028011099547 0.2748137350314737 0.9999999999999943
    vertex 106.83865804489231 -0.03584643674835162 0.9999999999999943
  endloop
endfacet
facet normal 0.0 0.0 1.0
  outer loop
    vertex 106.81241214535143 0.48694576938743395 0.9999999999999943
    vertex 106.83865804489231 -0.03584643674835162 0.9999999999999943
    vertex 107.09846566602764 0.1141535632516481 0.9999999999999943
  endloop
endfacet
facet normal 0.0 0.0 1.0
  outer loop
    vertex 107.09846566602764 0.1141535632516481 0.9999999999999943
    vertex 106.83865804489231 -0.03584643674835162 0.9999999999999943
    vertex 106.98850867864924 -0.39761786909457175 0.9999999999999943
  endloop
endfacet
facet normal 0.0 0.0 1.0
  outer loop
    vertex 107.09846566602764 0.1141535632516481 0.9999999999999943
    vertex 106.98850867864924 -0.39761786909457175 0.9999999999999943
    vertex 107.03961993921564 -0.7858464367483502 0.9999999999999943
  endloop
endfacet
facet normal 0.0 0.0 1.0
  outer loop
    vertex 107.09846566602764 0.1141535632516481 0.9999999999999943
    vertex 107.03961993921564 -0.7858464367483502 0.9999999999999943
    vertex 107.09846566602764 -1.6858464367483486 0.9999999999999943
  endloop
endfacet
facet normal 0.0 0.0 1.0
  outer loop
    vertex 107.09846566602764 0.1141535632516481 0.9999999999999943
    vertex 107.09846566602764 -1.6858464367483486 0.9999999999999943
    vertex 107.27828642653597 -1.2517207179328889 0.9999999999999943
  endloop
endfacet
facet normal 0.0 0.0 1.0
  outer loop
    vertex 107.09846566602764 0.1141535632516481 0.9999999999999943
    vertex 107.27828642653597 -1.2517207179328889 0.9999999999999943
    vertex 107.27828642653597 -0.31997215556381153 0.9999999999999943
  endloop
endfacet
facet normal 0.0 0.0 1.0
  outer loop
    vertex 107.27828642653597 -0.31997215556381153 0.9999999999999943
    vertex 107.27828642653597 -1.2517207179328889 0.9999999999999943
    vertex 107.33961993921564 -0.7858464367483502 0.9999999999999943
  endloop
endfacet
facet normal 0.7933533402912336 -0.6087614290087225 0.0
  outer loop
    vertex 107.09846566602764 -1.6858464367483486 -5.639932965095795e-15
    vertex 106.81241214535143 -2.0586386428841346 0.9999999999999943
    vertex 106.81241214535143 -2.0586386428841346 -5.639932965095795e-15
  endloop
endfacet
facet normal 0.7933533402912336 -0.6087614290087225 0.0
  outer loop
    vertex 106.81241214535143 -2.0586386428841346 0.9999999999999943
    vertex 107.09846566602764 -1.6858464367483486 -5.639932965095795e-15
    vertex 107.09846566602764 -1.6858464367483486 0.9999999999999943
  endloop
endfacet
facet normal 0.9238795325112882 0.38268343236508623 0.0
  outer loop
    vertex 107.09846566602764 0.1141535632516481 -5.639932965095795e-15
    vertex 107.27828642653597 -0.31997215556381153 0.9999999999999943
    vertex 107.27828642653597 -0.31997215556381153 -5.639932965095795e-15
  endloop
endfacet
facet normal 0.9238795325112882 0.38268343236508623 0.0
  outer loop
    vertex 107.27828642653597 -0.31997215556381153 0.9999999999999943
    vertex 107.09846566602764 0.1141535632516481 -5.639932965095795e-15
    vertex 107.09846566602764 0.1141535632516481 0.9999999999999943
  endloop
endfacet
facet normal -0.9914448613738107 -0.1305261922200502 -0.0
  outer loop
    vertex 103.73961993921564 -0.7858464367483502 0.9999999999999943
    vertex 103.80095345189532 -1.2517207179328889 -5.639932965095795e-15
    vertex 103.80095345189532 -1.2517207179328889 0.9999999999999943
  endloop
endfacet
facet normal -0.9914448613738107 -0.1305261922200502 -0.0
  outer loop
    vertex 103.80095345189532 -1.2517207179328889 -5.639932965095795e-15
    vertex 103.73961993921564 -0.7858464367483502 0.9999999999999943
    vertex 103.73961993921564 -0.7858464367483502 -5.639932965095795e-15
  endloop
endfacet
facet normal 0.3826834323650944 0.9238795325112849 0.0
  outer loop
    vertex 106.00549422040018 0.9528200505719727 0.9999999999999943
    vertex 106.43961993921565 0.7729992900636369 -5.639932965095795e-15
    vertex 106.00549422040018 0.9528200505719727 -5.639932965095795e-15
  endloop
endfacet
facet normal 0.3826834323650944 0.9238795325112849 0.0
  outer loop
    vertex 106.43961993921565 0.7729992900636369 -5.639932965095795e-15
    vertex 106.00549422040018 0.9528200505719727 0.9999999999999943
    vertex 106.43961993921565 0.7729992900636369 0.9999999999999943
  endloop
endfacet
facet normal 0.1305261922200443 0.9914448613738114 0.0
  outer loop
    vertex 105.53961993921564 1.0141535632516465 0.9999999999999943
    vertex 106.00549422040018 0.9528200505719727 -5.639932965095795e-15
    vertex 105.53961993921564 1.0141535632516465 -5.639932965095795e-15
  endloop
endfacet
facet normal 0.1305261922200443 0.9914448613738114 0.0
  outer loop
    vertex 106.00549422040018 0.9528200505719727 -5.639932965095795e-15
    vertex 105.53961993921564 1.0141535632516465 0.9999999999999943
    vertex 106.00549422040018 0.9528200505719727 0.9999999999999943
  endloop
endfacet
facet normal -0.1305261922200443 0.9914448613738114 0.0
  outer loop
    vertex 105.0737456580311 0.9528200505719727 0.9999999999999943
    vertex 105.53961993921564 1.0141535632516465 -5.639932965095795e-15
    vertex 105.0737456580311 0.9528200505719727 -5.639932965095795e-15
  endloop
endfacet
facet normal -0.1305261922200443 0.9914448613738114 0.0
  outer loop
    vertex 105.53961993921564 1.0141535632516465 -5.639932965095795e-15
    vertex 105.0737456580311 0.9528200505719727 0.9999999999999943
    vertex 105.53961993921564 1.0141535632516465 0.9999999999999943
  endloop
endfacet
facet normal -0.1305261922200443 -0.9914448613738114 -0.0
  outer loop
    vertex 105.53961993921564 -2.585846436748347 0.9999999999999943
    vertex 105.0737456580311 -2.5245129240686732 -5.639932965095795e-15
    vertex 105.53961993921564 -2.585846436748347 -5.639932965095795e-15
  endloop
endfacet
facet normal -0.1305261922200443 -0.9914448613738114 -0.0
  outer loop
    vertex 105.0737456580311 -2.5245129240686732 -5.639932965095795e-15
    vertex 105.53961993921564 -2.585846436748347 0.9999999999999943
    vertex 105.0737456580311 -2.5245129240686732 0.9999999999999943
  endloop
endfacet
facet normal -0.923879532511284 0.3826834323650965 0.0
  outer loop
    vertex 103.98077421240367 0.1141535632516481 0.9999999999999943
    vertex 103.80095345189532 -0.31997215556381153 -5.639932965095795e-15
    vertex 103.80095345189532 -0.31997215556381153 0.9999999999999943
  endloop
endfacet
facet normal -0.923879532511284 0.3826834323650965 0.0
  outer loop
    vertex 103.80095345189532 -0.31997215556381153 -5.639932965095795e-15
    vertex 103.98077421240367 0.1141535632516481 0.9999999999999943
    vertex 103.98077421240367 0.1141535632516481 -5.639932965095795e-15
  endloop
endfacet
facet normal 0.3826834323650944 -0.9238795325112849 0.0
  outer loop
    vertex 106.43961993921565 -2.3446921635603375 0.9999999999999943
    vertex 106.00549422040018 -2.5245129240686732 -5.639932965095795e-15
    vertex 106.43961993921565 -2.3446921635603375 -5.639932965095795e-15
  endloop
endfacet
facet normal 0.3826834323650944 -0.9238795325112849 0.0
  outer loop
    vertex 106.00549422040018 -2.5245129240686732 -5.639932965095795e-15
    vertex 106.43961993921565 -2.3446921635603375 0.9999999999999943
    vertex 106.00549422040018 -2.5245129240686732 0.9999999999999943
  endloop
endfacet
facet normal 0.9914448613738099 -0.1305261922200561 0.0
  outer loop
    vertex 107.33961993921564 -0.7858464367483502 -5.639932965095795e-15
    vertex 107.27828642653597 -1.2517207179328889 0.9999999999999943
    vertex 107.27828642653597 -1.2517207179328889 -5.639932965095795e-15
  endloop
endfacet
facet normal 0.9914448613738099 -0.1305261922200561 0.0
  outer loop
    vertex 107.27828642653597 -1.2517207179328889 0.9999999999999943
    vertex 107.33961993921564 -0.7858464367483502 -5.639932965095795e-15
    vertex 107.33961993921564 -0.7858464367483502 0.9999999999999943
  endloop
endfacet
facet normal 0.13052619222004508 -0.9914448613738114 0.0
  outer loop
    vertex 106.00549422040018 -2.5245129240686732 0.9999999999999943
    vertex 105.53961993921564 -2.585846436748347 -5.639932965095795e-15
    vertex 106.00549422040018 -2.5245129240686732 -5.639932965095795e-15
  endloop
endfacet
facet normal 0.13052619222004508 -0.9914448613738114 0.0
  outer loop
    vertex 105.53961993921564 -2.585846436748347 -5.639932965095795e-15
    vertex 106.00549422040018 -2.5245129240686732 0.9999999999999943
    vertex 105.53961993921564 -2.585846436748347 0.9999999999999943
  endloop
endfacet
facet normal -0.9914448613738107 0.1305261922200502 0.0
  outer loop
    vertex 103.80095345189532 -0.31997215556381153 0.9999999999999943
    vertex 103.73961993921564 -0.7858464367483502 -5.639932965095795e-15
    vertex 103.73961993921564 -0.7858464367483502 0.9999999999999943
  endloop
endfacet
facet normal -0.9914448613738107 0.1305261922200502 0.0
  outer loop
    vertex 103.73961993921564 -0.7858464367483502 -5.639932965095795e-15
    vertex 103.80095345189532 -0.31997215556381153 0.9999999999999943
    vertex 103.80095345189532 -0.31997215556381153 -5.639932965095795e-15
  endloop
endfacet
facet normal -0.9238795325112861 -0.38268343236509134 -0.0
  outer loop
    vertex 103.80095345189532 -1.2517207179328889 0.9999999999999943
    vertex 103.98077421240365 -1.6858464367483486 -5.639932965095795e-15
    vertex 103.98077421240365 -1.6858464367483486 0.9999999999999943
  endloop
endfacet
facet normal -0.9238795325112861 -0.38268343236509134 -0.0
  outer loop
    vertex 103.98077421240365 -1.6858464367483486 -5.639932965095795e-15
    vertex 103.80095345189532 -1.2517207179328889 0.9999999999999943
    vertex 103.80095345189532 -1.2517207179328889 -5.639932965095795e-15
  endloop
endfacet
facet normal 0.9914448613738099 0.1305261922200561 0.0
  outer loop
    vertex 107.27828642653597 -0.31997215556381153 -5.639932965095795e-15
    vertex 107.33961993921564 -0.7858464367483502 0.9999999999999943
    vertex 107.33961993921564 -0.7858464367483502 -5.639932965095795e-15
  endloop
endfacet
facet normal 0.9914448613738099 0.1305261922200561 0.0
  outer loop
    vertex 107.33961993921564 -0.7858464367483502 0.9999999999999943
    vertex 107.27828642653597 -0.31997215556381153 -5.639932965095795e-15
    vertex 107.27828642653597 -0.31997215556381153 0.9999999999999943
  endloop
endfacet
facet normal 0.7933533402912336 0.6087614290087225 0.0
  outer loop
    vertex 106.81241214535143 0.48694576938743395 -5.639932965095795e-15
    vertex 107.09846566602764 0.1141535632516481 0.9999999999999943
    vertex 107.09846566602764 0.1141535632516481 -5.639932965095795e-15
  endloop
endfacet
facet normal 0.7933533402912336 0.6087614290087225 0.0
  outer loop
    vertex 107.09846566602764 0.1141535632516481 0.9999999999999943
    vertex 106.81241214535143 0.48694576938743395 -5.639932965095795e-15
    vertex 106.81241214535143 0.48694576938743395 0.9999999999999943
  endloop
endfacet
facet normal -0.3826834323650944 -0.9238795325112849 -0.0
  outer loop
    vertex 105.0737456580311 -2.5245129240686732 0.9999999999999943
    vertex 104.63961993921565 -2.3446921635603375 -5.639932965095795e-15
    vertex 105.0737456580311 -2.5245129240686732 -5.639932965095795e-15
  endloop
endfacet
facet normal -0.3826834323650944 -0.9238795325112849 -0.0
  outer loop
    vertex 104.63961993921565 -2.3446921635603375 -5.639932965095795e-15
    vertex 105.0737456580311 -2.5245129240686732 0.9999999999999943
    vertex 104.63961993921565 -2.3446921635603375 0.9999999999999943
  endloop
endfacet
facet normal 0.9238795325112882 -0.38268343236508623 0.0
  outer loop
    vertex 107.27828642653597 -1.2517207179328889 -5.639932965095795e-15
    vertex 107.09846566602764 -1.6858464367483486 0.9999999999999943
    vertex 107.09846566602764 -1.6858464367483486 -5.639932965095795e-15
  endloop
endfacet
facet normal 0.9238795325112882 -0.38268343236508623 0.0
  outer loop
    vertex 107.09846566602764 -1.6858464367483486 0.9999999999999943
    vertex 107.27828642653597 -1.2517207179328889 -5.639932965095795e-15
    vertex 107.27828642653597 -1.2517207179328889 0.9999999999999943
  endloop
endfacet
facet normal 0.6087614290087159 -0.7933533402912387 0.0
  outer loop
    vertex 106.81241214535143 -2.0586386428841346 0.9999999999999943
    vertex 106.43961993921565 -2.3446921635603375 -5.639932965095795e-15
    vertex 106.81241214535143 -2.0586386428841346 -5.639932965095795e-15
  endloop
endfacet
facet normal 0.6087614290087159 -0.7933533402912387 0.0
  outer loop
    vertex 106.43961993921565 -2.3446921635603375 -5.639932965095795e-15
    vertex 106.81241214535143 -2.0586386428841346 0.9999999999999943
    vertex 106.43961993921565 -2.3446921635603375 0.9999999999999943
  endloop
endfacet
facet normal -0.6087614290087189 -0.7933533402912365 -0.0
  outer loop
    vertex 104.63961993921565 -2.3446921635603375 0.9999999999999943
    vertex 104.26682773307986 -2.0586386428841346 -5.639932965095795e-15
    vertex 104.63961993921565 -2.3446921635603375 -5.639932965095795e-15
  endloop
endfacet
facet normal -0.6087614290087189 -0.7933533402912365 -0.0
  outer loop
    vertex 104.26682773307986 -2.0586386428841346 -5.639932965095795e-15
    vertex 104.63961993921565 -2.3446921635603375 0.9999999999999943
    vertex 104.26682773307986 -2.0586386428841346 0.9999999999999943
  endloop
endfacet
facet normal -0.7933533402912336 -0.6087614290087225 -0.0
  outer loop
    vertex 103.98077421240365 -1.6858464367483486 0.9999999999999943
    vertex 104.26682773307986 -2.0586386428841346 -5.639932965095795e-15
    vertex 104.26682773307986 -2.0586386428841346 0.9999999999999943
  endloop
endfacet
facet normal -0.7933533402912336 -0.6087614290087225 -0.0
  outer loop
    vertex 104.26682773307986 -2.0586386428841346 -5.639932965095795e-15
    vertex 103.98077421240365 -1.6858464367483486 0.9999999999999943
    vertex 103.98077421240365 -1.6858464367483486 -5.639932965095795e-15
  endloop
endfacet
facet normal 0.6087614290087189 0.7933533402912365 0.0
  outer loop
    vertex 106.43961993921565 0.7729992900636369 0.9999999999999943
    vertex 106.81241214535143 0.48694576938743395 -5.639932965095795e-15
    vertex 106.43961993921565 0.7729992900636369 -5.639932965095795e-15
  endloop
endfacet
facet normal 0.6087614290087189 0.7933533402912365 0.0
  outer loop
    vertex 106.81241214535143 0.48694576938743395 -5.639932965095795e-15
    vertex 106.43961993921565 0.7729992900636369 0.9999999999999943
    vertex 106.81241214535143 0.48694576938743395 0.9999999999999943
  endloop
endfacet
facet normal -0.6087614290087189 0.7933533402912365 0.0
  outer loop
    vertex 104.26682773307986 0.48694576938743395 0.9999999999999943
    vertex 104.63961993921565 0.7729992900636369 -5.639932965095795e-15
    vertex 104.26682773307986 0.48694576938743395 -5.639932965095795e-15
  endloop
endfacet
facet normal -0.6087614290087189 0.7933533402912365 0.0
  outer loop
    vertex 104.63961993921565 0.7729992900636369 -5.639932965095795e-15
    vertex 104.26682773307986 0.48694576938743395 0.9999999999999943
    vertex 104.63961993921565 0.7729992900636369 0.9999999999999943
  endloop
endfacet
facet normal -0.3826834323650944 0.9238795325112849 0.0
  outer loop
    vertex 104.63961993921565 0.7729992900636369 0.9999999999999943
    vertex 105.0737456580311 0.9528200505719727 -5.639932965095795e-15
    vertex 104.63961993921565 0.7729992900636369 -5.639932965095795e-15
  endloop
endfacet
facet normal -0.3826834323650944 0.9238795325112849 0.0
  outer loop
    vertex 105.0737456580311 0.9528200505719727 -5.639932965095795e-15
    vertex 104.63961993921565 0.7729992900636369 0.9999999999999943
    vertex 105.0737456580311 0.9528200505719727 0.9999999999999943
  endloop
endfacet
facet normal -0.7933533402912365 0.6087614290087189 0.0
  outer loop
    vertex 104.26682773307986 0.48694576938743395 0.9999999999999943
    vertex 103.98077421240367 0.1141535632516481 -5.639932965095795e-15
    vertex 103.98077421240367 0.1141535632516481 0.9999999999999943
  endloop
endfacet
facet normal -0.7933533402912365 0.6087614290087189 0.0
  outer loop
    vertex 103.98077421240367 0.1141535632516481 -5.639932965095795e-15
    vertex 104.26682773307986 0.48694576938743395 0.9999999999999943
    vertex 104.26682773307986 0.48694576938743395 -5.639932965095795e-15
  endloop
endfacet
facet normal 0.2705980500730886 0.6532814824381912 0.7071067811865487
  outer loop
    vertex 105.98703125104156 -0.010907312784725585 9.999999999999995
    vertex 105.92784850686944 0.6630423026852522 9.399999999999993
    vertex 105.77121707620536 0.07848584538477493 9.999999999999995
  endloop
endfacet
facet normal 0.2705980500730886 0.6532814824381912 0.7071067811865487
  outer loop
    vertex 105.92784850686944 0.6630423026852522 9.399999999999993
    vertex 105.98703125104156 -0.010907312784725585 9.999999999999995
    vertex 106.28961993921561 0.5131916689283339 9.399999999999993
  endloop
endfacet
facet normal -0.7010573846499771 0.09229595564126107 0.7071067811865478
  outer loop
    vertex 104.64479731556374 -0.7858464367483502 9.999999999999995
    vertex 104.09073119978204 -0.3976178690945943 9.399999999999993
    vertex 104.03961993921564 -0.7858464367483502 9.399999999999993
  endloop
endfacet
facet normal -0.7010573846499771 0.09229595564126107 0.7071067811865478
  outer loop
    vertex 104.09073119978204 -0.3976178690945943 9.399999999999993
    vertex 104.64479731556374 -0.7858464367483502 9.999999999999995
    vertex 104.67528765708254 -0.5542492997586524 9.999999999999995
  endloop
endfacet
facet normal 0.27059805007311244 -0.6532814824381836 0.7071067811865465
  outer loop
    vertex 105.92784850686942 -2.2347351761819527 9.399999999999993
    vertex 105.9870312510416 -1.560785560711941 9.999999999999995
    vertex 105.77121707620536 -1.6501787188814754 9.999999999999995
  endloop
endfacet
facet normal 0.27059805007311244 -0.6532814824381836 0.7071067811865465
  outer loop
    vertex 105.9870312510416 -1.560785560711941 9.999999999999995
    vertex 105.92784850686942 -2.2347351761819527 9.399999999999993
    vertex 106.28961993921565 -2.0848845424250007 9.399999999999993
  endloop
endfacet
facet normal 0.6532814824381923 0.27059805007308485 0.707106781186549
  outer loop
    vertex 106.40395222134877 -0.5542492997586638 9.999999999999995
    vertex 106.83865804489231 -0.03584643674835162 9.399999999999993
    vertex 106.31455906317923 -0.338435124922389 9.999999999999995
  endloop
endfacet
facet normal 0.6532814824381923 0.27059805007308485 0.707106781186549
  outer loop
    vertex 106.83865804489231 -0.03584643674835162 9.399999999999993
    vertex 106.40395222134877 -0.5542492997586638 9.999999999999995
    vertex 106.98850867864924 -0.3976178690945943 9.399999999999993
  endloop
endfacet
facet normal 0.7010573846499775 0.09229595564126174 0.7071067811865475
  outer loop
    vertex 106.43444256286756 -0.785846436748339 9.999999999999995
    vertex 106.98850867864924 -0.3976178690945943 9.399999999999993
    vertex 106.40395222134877 -0.5542492997586638 9.999999999999995
  endloop
endfacet
facet normal 0.7010573846499775 0.09229595564126174 0.7071067811865475
  outer loop
    vertex 106.98850867864924 -0.3976178690945943 9.399999999999993
    vertex 106.43444256286756 -0.785846436748339 9.999999999999995
    vertex 107.03961993921564 -0.785846436748339 9.399999999999993
  endloop
endfacet
facet normal -0.6532814824381902 -0.2705980500730935 0.7071067811865477
  outer loop
    vertex 104.240581833539 -1.5358464367483489 9.399999999999993
    vertex 104.67528765708254 -1.017443573738048 9.999999999999995
    vertex 104.09073119978204 -1.1740750044021062 9.399999999999993
  endloop
endfacet
facet normal -0.6532814824381902 -0.2705980500730935 0.7071067811865477
  outer loop
    vertex 104.67528765708254 -1.017443573738048 9.999999999999995
    vertex 104.240581833539 -1.5358464367483489 9.399999999999993
    vertex 104.76468081525208 -1.2332577485743115 9.999999999999995
  endloop
endfacet
facet normal -0.43045933457686436 -0.5609855267969438 0.7071067811865465
  outer loop
    vertex 104.78961993921565 -2.0848845424250007 9.399999999999993
    vertex 104.90688479407225 -1.4185815818917664 9.999999999999995
    vertex 104.47895976743584 -1.8465066085281854 9.399999999999993
  endloop
endfacet
facet normal -0.43045933457686436 -0.5609855267969438 0.7071067811865465
  outer loop
    vertex 104.90688479407225 -1.4185815818917664 9.999999999999995
    vertex 104.78961993921565 -2.0848845424250007 9.399999999999993
    vertex 105.09220862738971 -1.560785560711941 9.999999999999995
  endloop
endfacet
facet normal -0.6532814824381901 0.27059805007309373 0.7071067811865478
  outer loop
    vertex 104.67528765708254 -0.5542492997586524 9.999999999999995
    vertex 104.240581833539 -0.03584643674835162 9.399999999999993
    vertex 104.09073119978204 -0.3976178690945943 9.399999999999993
  endloop
endfacet
facet normal -0.6532814824381901 0.27059805007309373 0.7071067811865478
  outer loop
    vertex 104.240581833539 -0.03584643674835162 9.399999999999993
    vertex 104.67528765708254 -0.5542492997586524 9.999999999999995
    vertex 104.76468081525208 -0.338435124922389 9.999999999999995
  endloop
endfacet
facet normal -0.5609855267969354 -0.4304593345768749 0.7071067811865469
  outer loop
    vertex 104.47895976743584 -1.8465066085281854 9.399999999999993
    vertex 104.76468081525208 -1.2332577485743115 9.999999999999995
    vertex 104.240581833539 -1.5358464367483489 9.399999999999993
  endloop
endfacet
facet normal -0.5609855267969354 -0.4304593345768749 0.7071067811865469
  outer loop
    vertex 104.76468081525208 -1.2332577485743115 9.999999999999995
    vertex 104.47895976743584 -1.8465066085281854 9.399999999999993
    vertex 104.90688479407225 -1.4185815818917664 9.999999999999995
  endloop
endfacet
facet normal -0.27059805007311283 -0.6532814824381834 0.7071067811865467
  outer loop
    vertex 105.15139137156186 -2.2347351761819527 9.399999999999993
    vertex 105.09220862738971 -1.560785560711941 9.999999999999995
    vertex 104.78961993921565 -2.0848845424250007 9.399999999999993
  endloop
endfacet
facet normal -0.27059805007311283 -0.6532814824381834 0.7071067811865467
  outer loop
    vertex 105.09220862738971 -1.560785560711941 9.999999999999995
    vertex 105.15139137156186 -2.2347351761819527 9.399999999999993
    vertex 105.30802280222595 -1.6501787188814754 9.999999999999995
  endloop
endfacet
facet normal -0.5609855267969351 0.4304593345768752 0.707106781186547
  outer loop
    vertex 104.76468081525208 -0.338435124922389 9.999999999999995
    vertex 104.47895976743584 0.274813735031485 9.399999999999993
    vertex 104.240581833539 -0.03584643674835162 9.399999999999993
  endloop
endfacet
facet normal -0.5609855267969351 0.4304593345768752 0.707106781186547
  outer loop
    vertex 104.47895976743584 0.274813735031485 9.399999999999993
    vertex 104.76468081525208 -0.338435124922389 9.999999999999995
    vertex 104.90688479407225 -0.15311129160493414 9.999999999999995
  endloop
endfacet
facet normal 0.43045933457688007 0.5609855267969239 0.7071067811865527
  outer loop
    vertex 106.17235508435905 -0.15311129160496798 9.999999999999995
    vertex 106.28961993921561 0.5131916689283339 9.399999999999993
    vertex 105.98703125104156 -0.010907312784725585 9.999999999999995
  endloop
endfacet
facet normal 0.43045933457688007 0.5609855267969239 0.7071067811865527
  outer loop
    vertex 106.28961993921561 0.5131916689283339 9.399999999999993
    vertex 106.17235508435905 -0.15311129160496798 9.999999999999995
    vertex 106.60028011099547 0.2748137350314737 9.399999999999993
  endloop
endfacet
facet normal 0.4304593345768642 -0.560985526796944 0.7071067811865465
  outer loop
    vertex 106.28961993921565 -2.0848845424250007 9.399999999999993
    vertex 106.17235508435904 -1.4185815818917664 9.999999999999995
    vertex 105.9870312510416 -1.560785560711941 9.999999999999995
  endloop
endfacet
facet normal 0.4304593345768642 -0.560985526796944 0.7071067811865465
  outer loop
    vertex 106.17235508435904 -1.4185815818917664 9.999999999999995
    vertex 106.28961993921565 -2.0848845424250007 9.399999999999993
    vertex 106.60028011099544 -1.8465066085281854 9.399999999999993
  endloop
endfacet
facet normal -0.4304593345768642 0.560985526796944 0.7071067811865465
  outer loop
    vertex 104.90688479407225 -0.15311129160493414 9.999999999999995
    vertex 104.78961993921565 0.5131916689283 9.399999999999993
    vertex 104.47895976743584 0.274813735031485 9.399999999999993
  endloop
endfacet
facet normal -0.4304593345768642 0.560985526796944 0.7071067811865465
  outer loop
    vertex 104.78961993921565 0.5131916689283 9.399999999999993
    vertex 104.90688479407225 -0.15311129160493414 9.999999999999995
    vertex 105.09220862738971 -0.010907312784759426 9.999999999999995
  endloop
endfacet
facet normal 0.5609855267969364 -0.4304593345768765 0.707106781186545
  outer loop
    vertex 106.60028011099544 -1.8465066085281854 9.399999999999993
    vertex 106.31455906317923 -1.2332577485743115 9.999999999999995
    vertex 106.17235508435904 -1.4185815818917664 9.999999999999995
  endloop
endfacet
facet normal 0.5609855267969364 -0.4304593345768765 0.707106781186545
  outer loop
    vertex 106.31455906317923 -1.2332577485743115 9.999999999999995
    vertex 106.60028011099544 -1.8465066085281854 9.399999999999993
    vertex 106.8386580448923 -1.5358464367483489 9.399999999999993
  endloop
endfacet
facet normal 0.7010573846499795 -0.0922959556412534 0.7071067811865466
  outer loop
    vertex 106.98850867864924 -1.1740750044021062 9.399999999999993
    vertex 106.43444256286756 -0.785846436748339 9.999999999999995
    vertex 106.40395222134877 -1.0174435737380594 9.999999999999995
  endloop
endfacet
facet normal 0.7010573846499795 -0.0922959556412534 0.7071067811865466
  outer loop
    vertex 106.43444256286756 -0.785846436748339 9.999999999999995
    vertex 106.98850867864924 -1.1740750044021062 9.399999999999993
    vertex 107.03961993921564 -0.785846436748339 9.399999999999993
  endloop
endfacet
facet normal -0.0922959556412542 -0.7010573846499809 0.7071067811865449
  outer loop
    vertex 105.53961993921564 -2.2858464367483475 9.399999999999993
    vertex 105.30802280222595 -1.6501787188814754 9.999999999999995
    vertex 105.15139137156186 -2.2347351761819527 9.399999999999993
  endloop
endfacet
facet normal -0.0922959556412542 -0.7010573846499809 0.7071067811865449
  outer loop
    vertex 105.30802280222595 -1.6501787188814754 9.999999999999995
    vertex 105.53961993921564 -2.2858464367483475 9.399999999999993
    vertex 105.53961993921564 -1.6806690604002614 9.999999999999995
  endloop
endfacet
facet normal -0.7010573846499771 -0.09229595564126102 0.7071067811865478
  outer loop
    vertex 104.09073119978204 -1.1740750044021062 9.399999999999993
    vertex 104.64479731556374 -0.7858464367483502 9.999999999999995
    vertex 104.03961993921564 -0.7858464367483502 9.399999999999993
  endloop
endfacet
facet normal -0.7010573846499771 -0.09229595564126102 0.7071067811865478
  outer loop
    vertex 104.64479731556374 -0.7858464367483502 9.999999999999995
    vertex 104.09073119978204 -1.1740750044021062 9.399999999999993
    vertex 104.67528765708254 -1.017443573738048 9.999999999999995
  endloop
endfacet
facet normal 0.6532814824381923 -0.2705980500730975 0.7071067811865444
  outer loop
    vertex 106.8386580448923 -1.5358464367483489 9.399999999999993
    vertex 106.40395222134877 -1.0174435737380594 9.999999999999995
    vertex 106.31455906317923 -1.2332577485743115 9.999999999999995
  endloop
endfacet
facet normal 0.6532814824381923 -0.2705980500730975 0.7071067811865444
  outer loop
    vertex 106.40395222134877 -1.0174435737380594 9.999999999999995
    vertex 106.8386580448923 -1.5358464367483489 9.399999999999993
    vertex 106.98850867864924 -1.1740750044021062 9.399999999999993
  endloop
endfacet
facet normal 0.09229595564125416 -0.701057384649981 0.7071067811865449
  outer loop
    vertex 105.92784850686942 -2.2347351761819527 9.399999999999993
    vertex 105.53961993921564 -1.6806690604002614 9.999999999999995
    vertex 105.53961993921564 -2.2858464367483475 9.399999999999993
  endloop
endfacet
facet normal 0.09229595564125416 -0.701057384649981 0.7071067811865449
  outer loop
    vertex 105.53961993921564 -1.6806690604002614 9.999999999999995
    vertex 105.92784850686942 -2.2347351761819527 9.399999999999993
    vertex 105.77121707620536 -1.6501787188814754 9.999999999999995
  endloop
endfacet
facet normal 0.09229595564125 0.7010573846499812 0.7071067811865451
  outer loop
    vertex 105.77121707620536 0.07848584538477493 9.999999999999995
    vertex 105.53961993921564 0.714153563251647 9.399999999999993
    vertex 105.53961993921564 0.10897618690356098 9.999999999999995
  endloop
endfacet
facet normal 0.09229595564125 0.7010573846499812 0.7071067811865451
  outer loop
    vertex 105.53961993921564 0.714153563251647 9.399999999999993
    vertex 105.77121707620536 0.07848584538477493 9.999999999999995
    vertex 105.92784850686944 0.6630423026852522 9.399999999999993
  endloop
endfacet
facet normal -0.27059805007311244 0.6532814824381836 0.7071067811865465
  outer loop
    vertex 105.09220862738971 -0.010907312784759426 9.999999999999995
    vertex 105.15139137156186 0.6630423026852522 9.399999999999993
    vertex 104.78961993921565 0.5131916689283 9.399999999999993
  endloop
endfacet
facet normal -0.27059805007311244 0.6532814824381836 0.7071067811865465
  outer loop
    vertex 105.15139137156186 0.6630423026852522 9.399999999999993
    vertex 105.09220862738971 -0.010907312784759426 9.999999999999995
    vertex 105.30802280222595 0.07848584538477493 9.999999999999995
  endloop
endfacet
facet normal 0.5609855267969298 0.4304593345768785 0.7071067811865491
  outer loop
    vertex 106.31455906317923 -0.338435124922389 9.999999999999995
    vertex 106.60028011099547 0.2748137350314737 9.399999999999993
    vertex 106.17235508435905 -0.15311129160496798 9.999999999999995
  endloop
endfacet
facet normal 0.5609855267969298 0.4304593345768785 0.7071067811865491
  outer loop
    vertex 106.60028011099547 0.2748137350314737 9.399999999999993
    vertex 106.31455906317923 -0.338435124922389 9.999999999999995
    vertex 106.83865804489231 -0.03584643674835162 9.399999999999993
  endloop
endfacet
facet normal -0.09229595564125416 0.701057384649981 0.7071067811865449
  outer loop
    vertex 105.30802280222595 0.07848584538477493 9.999999999999995
    vertex 105.53961993921564 0.714153563251647 9.399999999999993
    vertex 105.15139137156186 0.6630423026852522 9.399999999999993
  endloop
endfacet
facet normal -0.09229595564125416 0.701057384649981 0.7071067811865449
  outer loop
    vertex 105.53961993921564 0.714153563251647 9.399999999999993
    vertex 105.30802280222595 0.07848584538477493 9.999999999999995
    vertex 105.53961993921564 0.10897618690356098 9.999999999999995
  endloop
endfacet
facet normal 0.0 0.0 1.0
  outer loop
    vertex 104.67528765708254 -1.017443573738048 9.999999999999995
    vertex 104.67528765708254 -0.5542492997586524 9.999999999999995
    vertex 104.64479731556374 -0.7858464367483502 9.999999999999995
  endloop
endfacet
facet normal 0.0 0.0 1.0
  outer loop
    vertex 104.67528765708254 -0.5542492997586524 9.999999999999995
    vertex 104.67528765708254 -1.017443573738048 9.999999999999995
    vertex 104.76468081525208 -1.2332577485743115 9.999999999999995
  endloop
endfacet
facet normal 0.0 0.0 1.0
  outer loop
    vertex 104.67528765708254 -0.5542492997586524 9.999999999999995
    vertex 104.76468081525208 -1.2332577485743115 9.999999999999995
    vertex 104.76468081525208 -0.338435124922389 9.999999999999995
  endloop
endfacet
facet normal 0.0 0.0 1.0
  outer loop
    vertex 104.76468081525208 -0.338435124922389 9.999999999999995
    vertex 104.76468081525208 -1.2332577485743115 9.999999999999995
    vertex 104.90688479407225 -1.4185815818917664 9.999999999999995
  endloop
endfacet
facet normal 0.0 0.0 1.0
  outer loop
    vertex 104.76468081525208 -0.338435124922389 9.999999999999995
    vertex 104.90688479407225 -1.4185815818917664 9.999999999999995
    vertex 104.90688479407225 -0.15311129160493414 9.999999999999995
  endloop
endfacet
facet normal 0.0 0.0 1.0
  outer loop
    vertex 104.90688479407225 -0.15311129160493414 9.999999999999995
    vertex 104.90688479407225 -1.4185815818917664 9.999999999999995
    vertex 105.09220862738971 -1.560785560711941 9.999999999999995
  endloop
endfacet
facet normal 0.0 0.0 1.0
  outer loop
    vertex 104.90688479407225 -0.15311129160493414 9.999999999999995
    vertex 105.09220862738971 -1.560785560711941 9.999999999999995
    vertex 105.09220862738971 -0.010907312784759426 9.999999999999995
  endloop
endfacet
facet normal 0.0 0.0 1.0
  outer loop
    vertex 105.09220862738971 -0.010907312784759426 9.999999999999995
    vertex 105.09220862738971 -1.560785560711941 9.999999999999995
    vertex 105.30802280222595 -1.6501787188814754 9.999999999999995
  endloop
endfacet
facet normal 0.0 0.0 1.0
  outer loop
    vertex 105.09220862738971 -0.010907312784759426 9.999999999999995
    vertex 105.30802280222595 -1.6501787188814754 9.999999999999995
    vertex 105.30802280222595 0.07848584538477493 9.999999999999995
  endloop
endfacet
facet normal 0.0 0.0 1.0
  outer loop
    vertex 105.30802280222595 0.07848584538477493 9.999999999999995
    vertex 105.30802280222595 -1.6501787188814754 9.999999999999995
    vertex 105.53961993921564 -1.6806690604002614 9.999999999999995
  endloop
endfacet
facet normal 0.0 0.0 1.0
  outer loop
    vertex 105.30802280222595 0.07848584538477493 9.999999999999995
    vertex 105.53961993921564 -1.6806690604002614 9.999999999999995
    vertex 105.53961993921564 0.10897618690356098 9.999999999999995
  endloop
endfacet
facet normal 0.0 0.0 1.0
  outer loop
    vertex 105.53961993921564 0.10897618690356098 9.999999999999995
    vertex 105.53961993921564 -1.6806690604002614 9.999999999999995
    vertex 105.77121707620536 -1.6501787188814754 9.999999999999995
  endloop
endfacet
facet normal 0.0 0.0 1.0
  outer loop
    vertex 105.53961993921564 0.10897618690356098 9.999999999999995
    vertex 105.77121707620536 -1.6501787188814754 9.999999999999995
    vertex 105.77121707620536 0.07848584538477493 9.999999999999995
  endloop
endfacet
facet normal 0.0 0.0 1.0
  outer loop
    vertex 105.77121707620536 0.07848584538477493 9.999999999999995
    vertex 105.77121707620536 -1.6501787188814754 9.999999999999995
    vertex 105.9870312510416 -1.560785560711941 9.999999999999995
  endloop
endfacet
facet normal 0.0 0.0 1.0
  outer loop
    vertex 105.77121707620536 0.07848584538477493 9.999999999999995
    vertex 105.9870312510416 -1.560785560711941 9.999999999999995
    vertex 105.98703125104156 -0.010907312784725585 9.999999999999995
  endloop
endfacet
facet normal 0.0 0.0 1.0
  outer loop
    vertex 105.98703125104156 -0.010907312784725585 9.999999999999995
    vertex 105.9870312510416 -1.560785560711941 9.999999999999995
    vertex 106.17235508435905 -0.15311129160496798 9.999999999999995
  endloop
endfacet
facet normal 0.0 0.0 1.0
  outer loop
    vertex 106.17235508435905 -0.15311129160496798 9.999999999999995
    vertex 105.9870312510416 -1.560785560711941 9.999999999999995
    vertex 106.17235508435904 -1.4185815818917664 9.999999999999995
  endloop
endfacet
facet normal 0.0 0.0 1.0
  outer loop
    vertex 106.17235508435905 -0.15311129160496798 9.999999999999995
    vertex 106.17235508435904 -1.4185815818917664 9.999999999999995
    vertex 106.31455906317923 -1.2332577485743115 9.999999999999995
  endloop
endfacet
facet normal 0.0 0.0 1.0
  outer loop
    vertex 106.17235508435905 -0.15311129160496798 9.999999999999995
    vertex 106.31455906317923 -1.2332577485743115 9.999999999999995
    vertex 106.31455906317923 -0.338435124922389 9.999999999999995
  endloop
endfacet
facet normal 0.0 0.0 1.0
  outer loop
    vertex 106.31455906317923 -0.338435124922389 9.999999999999995
    vertex 106.31455906317923 -1.2332577485743115 9.999999999999995
    vertex 106.40395222134877 -0.5542492997586638 9.999999999999995
  endloop
endfacet
facet normal 0.0 0.0 1.0
  outer loop
    vertex 106.40395222134877 -0.5542492997586638 9.999999999999995
    vertex 106.31455906317923 -1.2332577485743115 9.999999999999995
    vertex 106.40395222134877 -1.0174435737380594 9.999999999999995
  endloop
endfacet
facet normal 0.0 0.0 1.0
  outer loop
    vertex 106.40395222134877 -0.5542492997586638 9.999999999999995
    vertex 106.40395222134877 -1.0174435737380594 9.999999999999995
    vertex 106.43444256286756 -0.785846436748339 9.999999999999995
  endloop
endfacet
endsolid Pinadapter
