solid Pinadapter
facet normal 0.8526400867785692 0.5224986913076759 0.0
  outer loop
    vertex 144.16503314861615 30.25582338484333 0.0
    vertex 144.21974282154397 30.166545342526966 8.5
    vertex 144.21974282154397 30.166545342526966 0.0
  endloop
endfacet
facet normal 0.8526400867785692 0.5224986913076759 0.0
  outer loop
    vertex 144.21974282154397 30.166545342526966 8.5
    vertex 144.16503314861615 30.25582338484333 0.0
    vertex 144.16503314861615 30.25582338484333 8.5
  endloop
endfacet
facet normal 0.8241263071257156 0.5664060645008411 0.0
  outer loop
    vertex 144.10572602042507 30.342115830503182 0.0
    vertex 144.16503314861615 30.25582338484333 8.5
    vertex 144.16503314861615 30.25582338484333 0.0
  endloop
endfacet
facet normal 0.8241263071257156 0.5664060645008411 0.0
  outer loop
    vertex 144.16503314861615 30.25582338484333 8.5
    vertex 144.10572602042507 30.342115830503182 0.0
    vertex 144.10572602042507 30.342115830503182 8.5
  endloop
endfacet
facet normal 0.7933535279421375 0.6087611844572256 0.0
  outer loop
    vertex 144.04198394903503 30.42518616827562 0.0
    vertex 144.10572602042507 30.342115830503182 8.5
    vertex 144.10572602042507 30.342115830503182 0.0
  endloop
endfacet
facet normal 0.7933535279421375 0.6087611844572256 0.0
  outer loop
    vertex 144.10572602042507 30.342115830503182 8.5
    vertex 144.04198394903503 30.42518616827562 0.0
    vertex 144.04198394903503 30.42518616827562 8.5
  endloop
endfacet
facet normal 0.760405491149161 0.6494486038403681 0.0
  outer loop
    vertex 143.9739816356594 30.504806529603528 0.0
    vertex 144.04198394903503 30.42518616827562 8.5
    vertex 144.04198394903503 30.42518616827562 0.0
  endloop
endfacet
facet normal 0.760405491149161 0.6494486038403681 0.0
  outer loop
    vertex 144.04198394903503 30.42518616827562 8.5
    vertex 143.9739816356594 30.504806529603528 0.0
    vertex 143.9739816356594 30.504806529603528 8.5
  endloop
endfacet
facet normal 0.6883539531626459 0.7253749617717432 0.0
  outer loop
    vertex 143.82595320233654 30.652834962926235 8.5
    vertex 143.90190561303433 30.580758940301507 0.0
    vertex 143.82595320233654 30.652834962926235 0.0
  endloop
endfacet
facet normal 0.6883539531626459 0.7253749617717432 0.0
  outer loop
    vertex 143.90190561303433 30.580758940301507 0.0
    vertex 143.82595320233654 30.652834962926235 8.5
    vertex 143.90190561303433 30.580758940301507 8.5
  endloop
endfacet
facet normal 0.6494486038384838 0.7604054911507702 0.0
  outer loop
    vertex 143.7463328410085 30.72083727630164 8.5
    vertex 143.82595320233654 30.652834962926235 0.0
    vertex 143.7463328410085 30.72083727630164 0.0
  endloop
endfacet
facet normal 0.6494486038384838 0.7604054911507702 0.0
  outer loop
    vertex 143.82595320233654 30.652834962926235 0.0
    vertex 143.7463328410085 30.72083727630164 8.5
    vertex 143.82595320233654 30.652834962926235 8.5
  endloop
endfacet
facet normal 0.7253749617708952 0.6883539531635395 0.0
  outer loop
    vertex 143.90190561303433 30.580758940301507 0.0
    vertex 143.9739816356594 30.504806529603528 8.5
    vertex 143.9739816356594 30.504806529603528 0.0
  endloop
endfacet
facet normal 0.7253749617708952 0.6883539531635395 0.0
  outer loop
    vertex 143.9739816356594 30.504806529603528 8.5
    vertex 143.90190561303433 30.580758940301507 0.0
    vertex 143.90190561303433 30.580758940301507 8.5
  endloop
endfacet
facet normal 0.5664060645016475 0.8241263071251611 0.0
  outer loop
    vertex 143.5769700575766 30.843886475883036 8.5
    vertex 143.6632625032361 30.784579347692087 0.0
    vertex 143.5769700575766 30.843886475883036 0.0
  endloop
endfacet
facet normal 0.5664060645016475 0.8241263071251611 0.0
  outer loop
    vertex 143.6632625032361 30.784579347692087 0.0
    vertex 143.5769700575766 30.843886475883036 8.5
    vertex 143.6632625032361 30.784579347692087 8.5
  endloop
endfacet
facet normal 0.6087611844599842 0.7933535279400207 0.0
  outer loop
    vertex 143.6632625032361 30.784579347692087 8.5
    vertex 143.7463328410085 30.72083727630164 0.0
    vertex 143.6632625032361 30.784579347692087 0.0
  endloop
endfacet
facet normal 0.6087611844599842 0.7933535279400207 0.0
  outer loop
    vertex 143.7463328410085 30.72083727630164 0.0
    vertex 143.6632625032361 30.784579347692087 8.5
    vertex 143.7463328410085 30.72083727630164 8.5
  endloop
endfacet
facet normal 0.5224986913059241 0.8526400867796428 0.0
  outer loop
    vertex 143.48769201526002 30.89859614881076 8.5
    vertex 143.5769700575766 30.843886475883036 0.0
    vertex 143.48769201526002 30.89859614881076 0.0
  endloop
endfacet
facet normal 0.5224986913059241 0.8526400867796428 0.0
  outer loop
    vertex 143.5769700575766 30.843886475883036 0.0
    vertex 143.48769201526002 30.89859614881076 8.5
    vertex 143.5769700575766 30.843886475883036 8.5
  endloop
endfacet
facet normal 0.2840152284052766 0.9588197693174138 0.0
  outer loop
    vertex 143.0053301025325 31.09839699032122 8.5
    vertex 143.105726020425 31.0686583778482 0.0
    vertex 143.0053301025325 31.09839699032122 0.0
  endloop
endfacet
facet normal 0.2840152284052766 0.9588197693174138 0.0
  outer loop
    vertex 143.105726020425 31.0686583778482 0.0
    vertex 143.0053301025325 31.09839699032122 8.5
    vertex 143.105726020425 31.0686583778482 8.5
  endloop
endfacet
facet normal 0.47715852283552174 0.8788172415726849 0.0
  outer loop
    vertex 143.39567293414433 30.94855840118905 8.5
    vertex 143.48769201526002 30.89859614881076 0.0
    vertex 143.39567293414433 30.94855840118905 0.0
  endloop
endfacet
facet normal 0.47715852283552174 0.8788172415726849 0.0
  outer loop
    vertex 143.48769201526002 30.89859614881076 0.0
    vertex 143.39567293414433 30.94855840118905 8.5
    vertex 143.48769201526002 30.89859614881076 8.5
  endloop
endfacet
facet normal 0.3826833185125744 0.9238795796705347 0.0
  outer loop
    vertex 143.2044278551038 31.033706184349313 8.5
    vertex 143.30116523990003 30.993636261544818 0.0
    vertex 143.2044278551038 31.033706184349313 0.0
  endloop
endfacet
facet normal 0.3826833185125744 0.9238795796705347 0.0
  outer loop
    vertex 143.30116523990003 30.993636261544818 0.0
    vertex 143.2044278551038 31.033706184349313 8.5
    vertex 143.30116523990003 30.993636261544818 8.5
  endloop
endfacet
facet normal 0.43051111664438707 0.9025852748885298 0.0
  outer loop
    vertex 143.30116523990003 30.993636261544818 8.5
    vertex 143.39567293414433 30.94855840118905 0.0
    vertex 143.30116523990003 30.993636261544818 0.0
  endloop
endfacet
facet normal 0.43051111664438707 0.9025852748885298 0.0
  outer loop
    vertex 143.39567293414433 30.94855840118905 0.0
    vertex 143.30116523990003 30.993636261544818 8.5
    vertex 143.39567293414433 30.94855840118905 8.5
  endloop
endfacet
facet normal 0.3338072045913671 0.9426413687945682 0.0
  outer loop
    vertex 143.105726020425 31.0686583778482 8.5
    vertex 143.2044278551038 31.033706184349313 0.0
    vertex 143.105726020425 31.0686583778482 0.0
  endloop
endfacet
facet normal 0.3338072045913671 0.9426413687945682 0.0
  outer loop
    vertex 143.2044278551038 31.033706184349313 0.0
    vertex 143.105726020425 31.0686583778482 8.5
    vertex 143.2044278551038 31.033706184349313 8.5
  endloop
endfacet
facet normal 1.0 0.0 0.0
  outer loop
    vertex 134.28769201525986 5.166545342526836 0.9999999999999999
    vertex 134.28769201525986 3.1665453425268346 3.9999999999999996
    vertex 134.28769201525986 3.1665453425268346 0.9999999999999999
  endloop
endfacet
facet normal 1.0 0.0 0.0
  outer loop
    vertex 134.28769201525986 3.1665453425268346 3.9999999999999996
    vertex 134.28769201525986 5.166545342526836 0.9999999999999999
    vertex 134.28769201525986 5.166545342526836 3.9999999999999996
  endloop
endfacet
facet normal 0.0 0.0 1.0
  outer loop
    vertex 134.28769201525986 3.1665453425268346 3.9999999999999996
    vertex 130.68769201525987 5.166545342526831 3.9999999999999996
    vertex 130.68769201525987 3.1665453425268346 3.9999999999999996
  endloop
endfacet
facet normal 0.0 0.0 1.0
  outer loop
    vertex 130.68769201525987 5.166545342526831 3.9999999999999996
    vertex 134.28769201525986 3.1665453425268346 3.9999999999999996
    vertex 134.28769201525986 5.166545342526836 3.9999999999999996
  endloop
endfacet
facet normal -1.5666480458599458e-15 1.0 0.0
  outer loop
    vertex 130.68769201525987 5.166545342526831 3.9999999999999996
    vertex 134.28769201525986 5.166545342526836 0.9999999999999999
    vertex 130.68769201525987 5.166545342526831 0.9999999999999999
  endloop
endfacet
facet normal -1.5666480458599458e-15 1.0 0.0
  outer loop
    vertex 134.28769201525986 5.166545342526836 0.9999999999999999
    vertex 130.68769201525987 5.166545342526831 3.9999999999999996
    vertex 134.28769201525986 5.166545342526836 3.9999999999999996
  endloop
endfacet
facet normal -1.0 0.0 0.0
  outer loop
    vertex 129.48769201525985 29.166545342526877 8.5
    vertex 129.48769201525985 24.16654534252683 6.499999999999999
    vertex 129.48769201525985 24.16654534252683 8.5
  endloop
endfacet
facet normal -1.0 0.0 0.0
  outer loop
    vertex 129.48769201525985 8.166545342526836 8.5
    vertex 129.48769201525985 3.166545342526908 0.0
    vertex 129.48769201525985 3.166545342526908 8.5
  endloop
endfacet
facet normal -1.0 0.0 0.0
  outer loop
    vertex 129.48769201525985 3.166545342526908 0.0
    vertex 129.48769201525985 8.166545342526836 8.5
    vertex 129.48769201525985 8.166545342526836 6.499999999999999
  endloop
endfacet
facet normal -1.0 0.0 0.0
  outer loop
    vertex 129.48769201525985 3.166545342526908 0.0
    vertex 129.48769201525985 8.166545342526836 6.499999999999999
    vertex 129.48769201525985 29.166545342526877 0.0
  endloop
endfacet
facet normal -1.0 0.0 0.0
  outer loop
    vertex 129.48769201525985 29.166545342526877 0.0
    vertex 129.48769201525985 8.166545342526836 6.499999999999999
    vertex 129.48769201525985 24.16654534252683 6.499999999999999
  endloop
endfacet
facet normal -1.0 0.0 0.0
  outer loop
    vertex 129.48769201525985 29.166545342526877 0.0
    vertex 129.48769201525985 24.16654534252683 6.499999999999999
    vertex 129.48769201525985 29.166545342526877 8.5
  endloop
endfacet
facet normal -0.9238795325112916 -0.38268343236507835 -0.0
  outer loop
    vertex 129.55584036268172 2.648907252321868 8.5
    vertex 129.75564120769096 2.1665453425269043 0.0
    vertex 129.75564120769096 2.1665453425269043 8.5
  endloop
endfacet
facet normal -0.9238795325112916 -0.38268343236507835 -0.0
  outer loop
    vertex 129.75564120769096 2.1665453425269043 0.0
    vertex 129.55584036268172 2.648907252321868 8.5
    vertex 129.55584036268172 2.648907252321868 0.0
  endloop
endfacet
facet normal -0.6087614290087195 -0.793353340291236 -0.0
  outer loop
    vertex 130.48769201525985 1.434494534958024 8.5
    vertex 130.07347845288675 1.7523317801538094 0.0
    vertex 130.48769201525985 1.434494534958024 0.0
  endloop
endfacet
facet normal -0.6087614290087195 -0.793353340291236 -0.0
  outer loop
    vertex 130.07347845288675 1.7523317801538094 0.0
    vertex 130.48769201525985 1.434494534958024 8.5
    vertex 130.07347845288675 1.7523317801538094 8.5
  endloop
endfacet
facet normal -0.9914448613738132 -0.13052619222003087 0.0
  outer loop
    vertex 129.48769201525985 3.166545342526908 8.5
    vertex 129.55584036268172 2.648907252321868 0.0
    vertex 129.55584036268172 2.648907252321868 8.5
  endloop
endfacet
facet normal -0.9914448613738132 -0.13052619222003087 0.0
  outer loop
    vertex 129.55584036268172 2.648907252321868 0.0
    vertex 129.48769201525985 3.166545342526908 8.5
    vertex 129.48769201525985 3.166545342526908 0.0
  endloop
endfacet
facet normal -0.7933533402912268 -0.6087614290087315 -0.0
  outer loop
    vertex 129.75564120769096 2.1665453425269043 8.5
    vertex 130.07347845288675 1.7523317801538094 0.0
    vertex 130.07347845288675 1.7523317801538094 8.5
  endloop
endfacet
facet normal -0.7933533402912268 -0.6087614290087315 -0.0
  outer loop
    vertex 130.07347845288675 1.7523317801538094 0.0
    vertex 129.75564120769096 2.1665453425269043 8.5
    vertex 129.75564120769096 2.1665453425269043 0.0
  endloop
endfacet
facet normal -0.13052619222005077 -0.9914448613738106 -0.0
  outer loop
    vertex 131.48769201525985 1.1665453425269061 8.5
    vertex 130.9700539250548 1.2346936899487695 0.0
    vertex 131.48769201525985 1.1665453425269061 0.0
  endloop
endfacet
facet normal -0.13052619222005077 -0.9914448613738106 -0.0
  outer loop
    vertex 130.9700539250548 1.2346936899487695 0.0
    vertex 131.48769201525985 1.1665453425269061 8.5
    vertex 130.9700539250548 1.2346936899487695 8.5
  endloop
endfacet
facet normal 4.101769429160502e-15 -1.0 0.0
  outer loop
    vertex 142.48769201526005 1.1665453425269512 8.5
    vertex 131.48769201525985 1.1665453425269061 0.0
    vertex 142.48769201526005 1.1665453425269512 0.0
  endloop
endfacet
facet normal 4.101769429160502e-15 -1.0 0.0
  outer loop
    vertex 131.48769201525985 1.1665453425269061 0.0
    vertex 142.48769201526005 1.1665453425269512 8.5
    vertex 131.48769201525985 1.1665453425269061 8.5
  endloop
endfacet
facet normal 0.026176264761909658 -0.9996573428746045 0.0
  outer loop
    vertex 142.59236397036855 1.1692862025122215 8.5
    vertex 142.48769201526005 1.1665453425269512 0.0
    vertex 142.59236397036855 1.1692862025122215 0.0
  endloop
endfacet
facet normal 0.026176264761909658 -0.9996573428746045 0.0
  outer loop
    vertex 142.48769201526005 1.1665453425269512 0.0
    vertex 142.59236397036855 1.1692862025122215 8.5
    vertex 142.48769201526005 1.1665453425269512 8.5
  endloop
endfacet
facet normal 0.07845606631529753 -0.9969175721484348 0.0
  outer loop
    vertex 142.6967488695079 1.177501153073823 8.5
    vertex 142.59236397036855 1.1692862025122215 0.0
    vertex 142.6967488695079 1.177501153073823 0.0
  endloop
endfacet
facet normal 0.07845606631529753 -0.9969175721484348 0.0
  outer loop
    vertex 142.59236397036855 1.1692862025122215 0.0
    vertex 142.6967488695079 1.177501153073823 8.5
    vertex 142.59236397036855 1.1692862025122215 8.5
  endloop
endfacet
facet normal 0.1305172419955318 -0.9914460396521233 0.0
  outer loop
    vertex 142.800560848802 1.191167306027864 8.5
    vertex 142.6967488695079 1.177501153073823 0.0
    vertex 142.800560848802 1.191167306027864 0.0
  endloop
endfacet
facet normal 0.1305172419955318 -0.9914460396521233 0.0
  outer loop
    vertex 142.6967488695079 1.177501153073823 0.0
    vertex 142.800560848802 1.191167306027864 8.5
    vertex 142.6967488695079 1.177501153073823 8.5
  endloop
endfacet
facet normal 0.23345459237250887 -0.9723677047805453 0.0
  outer loop
    vertex 143.00533010253264 1.2346949091772619 8.5
    vertex 142.90351535567584 1.2102503290990587 0.0
    vertex 143.00533010253264 1.2346949091772619 0.0
  endloop
endfacet
facet normal 0.23345459237250887 -0.9723677047805453 0.0
  outer loop
    vertex 142.90351535567584 1.2102503290990587 0.0
    vertex 143.00533010253264 1.2346949091772619 8.5
    vertex 142.90351535567584 1.2102503290990587 8.5
  endloop
endfacet
facet normal 0.28400521968802395 -0.958822733976389 0.0
  outer loop
    vertex 143.10572602042515 1.2644323817115193 8.5
    vertex 143.00533010253264 1.2346949091772619 0.0
    vertex 143.10572602042515 1.2644323817115193 0.0
  endloop
endfacet
facet normal 0.28400521968802395 -0.958822733976389 0.0
  outer loop
    vertex 143.00533010253264 1.2346949091772619 0.0
    vertex 143.10572602042515 1.2644323817115193 8.5
    vertex 143.00533010253264 1.2346949091772619 8.5
  endloop
endfacet
facet normal 0.3338069516802486 -0.9426414583551586 0.0
  outer loop
    vertex 143.20442785510366 1.2993845454077486 8.5
    vertex 143.10572602042515 1.2644323817115193 0.0
    vertex 143.20442785510366 1.2993845454077486 0.0
  endloop
endfacet
facet normal 0.3338069516802486 -0.9426414583551586 0.0
  outer loop
    vertex 143.10572602042515 1.2644323817115193 0.0
    vertex 143.20442785510366 1.2993845454077486 8.5
    vertex 143.10572602042515 1.2644323817115193 8.5
  endloop
endfacet
facet normal 0.182249680840506 -0.9832522839198157 0.0
  outer loop
    vertex 142.90351535567584 1.2102503290990587 8.5
    vertex 142.800560848802 1.191167306027864 0.0
    vertex 142.90351535567584 1.2102503290990587 0.0
  endloop
endfacet
facet normal 0.182249680840506 -0.9832522839198157 0.0
  outer loop
    vertex 142.800560848802 1.191167306027864 0.0
    vertex 142.90351535567584 1.2102503290990587 8.5
    vertex 142.800560848802 1.191167306027864 8.5
  endloop
endfacet
facet normal -0.38268343236508595 -0.9238795325112884 -0.0
  outer loop
    vertex 130.9700539250548 1.2346936899487695 8.5
    vertex 130.48769201525985 1.434494534958024 0.0
    vertex 130.9700539250548 1.2346936899487695 0.0
  endloop
endfacet
facet normal -0.38268343236508595 -0.9238795325112884 -0.0
  outer loop
    vertex 130.48769201525985 1.434494534958024 0.0
    vertex 130.9700539250548 1.2346936899487695 8.5
    vertex 130.48769201525985 1.434494534958024 8.5
  endloop
endfacet
facet normal 0.6883482622141764 -0.7253803622284818 0.0
  outer loop
    vertex 143.90190561303461 1.7523302546363102 8.5
    vertex 143.82595320233656 1.6802553644995628 0.0
    vertex 143.90190561303461 1.7523302546363102 0.0
  endloop
endfacet
facet normal 0.6883482622141764 -0.7253803622284818 0.0
  outer loop
    vertex 143.82595320233656 1.6802553644995628 0.0
    vertex 143.90190561303461 1.7523302546363102 8.5
    vertex 143.82595320233656 1.6802553644995628 8.5
  endloop
endfacet
facet normal 0.43049952295118793 -0.9025908047054322 0.0
  outer loop
    vertex 143.39567293414427 1.3845324030738888 8.5
    vertex 143.3011652398998 1.339456032834619 0.0
    vertex 143.39567293414427 1.3845324030738888 0.0
  endloop
endfacet
facet normal 0.43049952295118793 -0.9025908047054322 0.0
  outer loop
    vertex 143.3011652398998 1.339456032834619 0.0
    vertex 143.39567293414427 1.3845324030738888 8.5
    vertex 143.3011652398998 1.339456032834619 8.5
  endloop
endfacet
facet normal 0.47716401831699295 -0.8788142577493726 0.0
  outer loop
    vertex 143.48769201526002 1.4344954005103132 8.5
    vertex 143.39567293414427 1.3845324030738888 0.0
    vertex 143.48769201526002 1.4344954005103132 0.0
  endloop
endfacet
facet normal 0.47716401831699295 -0.8788142577493726 0.0
  outer loop
    vertex 143.39567293414427 1.3845324030738888 0.0
    vertex 143.48769201526002 1.4344954005103132 8.5
    vertex 143.39567293414427 1.3845324030738888 8.5
  endloop
endfacet
facet normal 0.5664058711893396 -0.8241264399849365 0.0
  outer loop
    vertex 143.66326250323618 1.5485109797340497 8.5
    vertex 143.5769700575765 1.4892038813453188 0.0
    vertex 143.66326250323618 1.5485109797340497 0.0
  endloop
endfacet
facet normal 0.5664058711893396 -0.8241264399849365 0.0
  outer loop
    vertex 143.5769700575765 1.4892038813453188 0.0
    vertex 143.66326250323618 1.5485109797340497 8.5
    vertex 143.5769700575765 1.4892038813453188 8.5
  endloop
endfacet
facet normal 0.6087588555672722 -0.7933553149556793 0.0
  outer loop
    vertex 143.74633284100844 1.612252663693973 8.5
    vertex 143.66326250323618 1.5485109797340497 0.0
    vertex 143.74633284100844 1.612252663693973 0.0
  endloop
endfacet
facet normal 0.6087588555672722 -0.7933553149556793 0.0
  outer loop
    vertex 143.66326250323618 1.5485109797340497 0.0
    vertex 143.74633284100844 1.612252663693973 8.5
    vertex 143.66326250323618 1.5485109797340497 8.5
  endloop
endfacet
facet normal 0.3826960728406371 -0.92387429655357 0.0
  outer loop
    vertex 143.3011652398998 1.339456032834619 8.5
    vertex 143.20442785510366 1.2993845454077486 0.0
    vertex 143.3011652398998 1.339456032834619 0.0
  endloop
endfacet
facet normal 0.3826960728406371 -0.92387429655357 0.0
  outer loop
    vertex 143.20442785510366 1.2993845454077486 0.0
    vertex 143.3011652398998 1.339456032834619 8.5
    vertex 143.20442785510366 1.2993845454077486 8.5
  endloop
endfacet
facet normal 0.5224904144296709 -0.8526451588023654 0.0
  outer loop
    vertex 143.5769700575765 1.4892038813453188 8.5
    vertex 143.48769201526002 1.4344954005103132 0.0
    vertex 143.5769700575765 1.4892038813453188 0.0
  endloop
endfacet
facet normal 0.5224904144296709 -0.8526451588023654 0.0
  outer loop
    vertex 143.48769201526002 1.4344954005103132 0.0
    vertex 143.5769700575765 1.4892038813453188 8.5
    vertex 143.48769201526002 1.4344954005103132 8.5
  endloop
endfacet
facet normal 0.6494507432946509 -0.7604036638746722 0.0
  outer loop
    vertex 143.82595320233656 1.6802553644995628 8.5
    vertex 143.74633284100844 1.612252663693973 0.0
    vertex 143.82595320233656 1.6802553644995628 0.0
  endloop
endfacet
facet normal 0.6494507432946509 -0.7604036638746722 0.0
  outer loop
    vertex 143.74633284100844 1.612252663693973 0.0
    vertex 143.82595320233656 1.6802553644995628 8.5
    vertex 143.74633284100844 1.612252663693973 8.5
  endloop
endfacet
facet normal 1.0 0.0 0.0
  outer loop
    vertex 134.28769201525986 29.16654534252683 0.9999999999999999
    vertex 134.28769201525986 27.166545342526835 3.9999999999999996
    vertex 134.28769201525986 27.166545342526835 0.9999999999999999
  endloop
endfacet
facet normal 1.0 0.0 0.0
  outer loop
    vertex 134.28769201525986 27.166545342526835 3.9999999999999996
    vertex 134.28769201525986 29.16654534252683 0.9999999999999999
    vertex 134.28769201525986 29.16654534252683 3.9999999999999996
  endloop
endfacet
facet normal 0.0 0.0 1.0
  outer loop
    vertex 134.28769201525986 27.166545342526835 3.9999999999999996
    vertex 130.68769201525987 29.16654534252683 3.9999999999999996
    vertex 130.68769201525987 27.166545342526835 3.9999999999999996
  endloop
endfacet
facet normal 0.0 0.0 1.0
  outer loop
    vertex 130.68769201525987 29.16654534252683 3.9999999999999996
    vertex 134.28769201525986 27.166545342526835 3.9999999999999996
    vertex 134.28769201525986 29.16654534252683 3.9999999999999996
  endloop
endfacet
facet normal 0.0 -1.0 0.0
  outer loop
    vertex 134.28769201525986 27.166545342526835 3.9999999999999996
    vertex 130.68769201525987 27.166545342526835 0.9999999999999999
    vertex 134.28769201525986 27.166545342526835 0.9999999999999999
  endloop
endfacet
facet normal 0.0 -1.0 0.0
  outer loop
    vertex 130.68769201525987 27.166545342526835 0.9999999999999999
    vertex 134.28769201525986 27.166545342526835 3.9999999999999996
    vertex 130.68769201525987 27.166545342526835 3.9999999999999996
  endloop
endfacet
facet normal 0.0 0.0 1.0
  outer loop
    vertex 130.68769201525987 8.166545342526836 6.499999999999999
    vertex 129.48769201525985 24.16654534252683 6.499999999999999
    vertex 129.48769201525985 8.166545342526836 6.499999999999999
  endloop
endfacet
facet normal 0.0 0.0 1.0
  outer loop
    vertex 129.48769201525985 24.16654534252683 6.499999999999999
    vertex 130.68769201525987 8.166545342526836 6.499999999999999
    vertex 130.68769201525987 24.16654534252683 6.499999999999999
  endloop
endfacet
facet normal 0.0 1.0 0.0
  outer loop
    vertex 129.48769201525985 8.166545342526836 8.5
    vertex 130.68769201525987 8.166545342526836 6.499999999999999
    vertex 129.48769201525985 8.166545342526836 6.499999999999999
  endloop
endfacet
facet normal 0.0 1.0 0.0
  outer loop
    vertex 130.68769201525987 8.166545342526836 6.499999999999999
    vertex 129.48769201525985 8.166545342526836 8.5
    vertex 130.68769201525987 8.166545342526836 8.5
  endloop
endfacet
facet normal -0.7933533402912477 0.6087614290087043 0.0
  outer loop
    vertex 130.07347845288675 30.580758904899977 8.5
    vertex 129.75564120769099 30.166545342526874 0.0
    vertex 129.75564120769099 30.166545342526874 8.5
  endloop
endfacet
facet normal -0.7933533402912477 0.6087614290087043 0.0
  outer loop
    vertex 129.75564120769099 30.166545342526874 0.0
    vertex 130.07347845288675 30.580758904899977 8.5
    vertex 130.07347845288675 30.580758904899977 0.0
  endloop
endfacet
facet normal 0.18223544078232057 0.9832549232639893 0.0
  outer loop
    vertex 142.800560848802 31.141922023020303 8.5
    vertex 142.90351535567615 31.122840542219315 0.0
    vertex 142.800560848802 31.141922023020303 0.0
  endloop
endfacet
facet normal 0.18223544078232057 0.9832549232639893 0.0
  outer loop
    vertex 142.90351535567615 31.122840542219315 0.0
    vertex 142.800560848802 31.141922023020303 8.5
    vertex 142.90351535567615 31.122840542219315 8.5
  endloop
endfacet
facet normal -0.9238795325112747 0.382683432365119 0.0
  outer loop
    vertex 129.75564120769099 30.166545342526874 8.5
    vertex 129.55584036268172 29.684183432731924 0.0
    vertex 129.55584036268172 29.684183432731924 8.5
  endloop
endfacet
facet normal -0.9238795325112747 0.382683432365119 0.0
  outer loop
    vertex 129.55584036268172 29.684183432731924 0.0
    vertex 129.75564120769099 30.166545342526874 8.5
    vertex 129.75564120769099 30.166545342526874 0.0
  endloop
endfacet
facet normal -0.9914448613738132 0.13052619222003087 0.0
  outer loop
    vertex 129.55584036268172 29.684183432731924 8.5
    vertex 129.48769201525985 29.166545342526877 0.0
    vertex 129.48769201525985 29.166545342526877 8.5
  endloop
endfacet
facet normal -0.9914448613738132 0.13052619222003087 0.0
  outer loop
    vertex 129.48769201525985 29.166545342526877 0.0
    vertex 129.55584036268172 29.684183432731924 8.5
    vertex 129.55584036268172 29.684183432731924 0.0
  endloop
endfacet
facet normal 0.00024682678251877765 0.9999999695382693 0.0
  outer loop
    vertex 131.48769201525985 31.16654534252688 8.5
    vertex 142.59236397036838 31.16380441199378 0.0
    vertex 131.48769201525985 31.16654534252688 0.0
  endloop
endfacet
facet normal 0.00024682678251877765 0.9999999695382693 0.0
  outer loop
    vertex 142.59236397036838 31.16380441199378 0.0
    vertex 131.48769201525985 31.16654534252688 8.5
    vertex 142.59236397036838 31.16380441199378 8.5
  endloop
endfacet
facet normal 0.0784591801161578 0.9969173270916202 0.0
  outer loop
    vertex 142.59236397036838 31.16380441199378 8.5
    vertex 142.69674886950824 31.155589133373923 0.0
    vertex 142.59236397036838 31.16380441199378 0.0
  endloop
endfacet
facet normal 0.0784591801161578 0.9969173270916202 0.0
  outer loop
    vertex 142.69674886950824 31.155589133373923 0.0
    vertex 142.59236397036838 31.16380441199378 8.5
    vertex 142.69674886950824 31.155589133373923 8.5
  endloop
endfacet
facet normal -0.6087614290087161 0.7933533402912386 0.0
  outer loop
    vertex 130.07347845288675 30.580758904899977 8.5
    vertex 130.48769201525985 30.898596150095756 0.0
    vertex 130.07347845288675 30.580758904899977 0.0
  endloop
endfacet
facet normal -0.6087614290087161 0.7933533402912386 0.0
  outer loop
    vertex 130.48769201525985 30.898596150095756 0.0
    vertex 130.07347845288675 30.580758904899977 8.5
    vertex 130.48769201525985 30.898596150095756 8.5
  endloop
endfacet
facet normal -0.13052619222005077 0.9914448613738106 0.0
  outer loop
    vertex 130.9700539250548 31.098396995105016 8.5
    vertex 131.48769201525985 31.16654534252688 0.0
    vertex 130.9700539250548 31.098396995105016 0.0
  endloop
endfacet
facet normal -0.13052619222005077 0.9914448613738106 0.0
  outer loop
    vertex 131.48769201525985 31.16654534252688 0.0
    vertex 130.9700539250548 31.098396995105016 8.5
    vertex 131.48769201525985 31.16654534252688 8.5
  endloop
endfacet
facet normal 0.23344530802180707 0.972369933802256 0.0
  outer loop
    vertex 142.90351535567615 31.122840542219315 8.5
    vertex 143.0053301025325 31.09839699032122 0.0
    vertex 142.90351535567615 31.122840542219315 0.0
  endloop
endfacet
facet normal 0.23344530802180707 0.972369933802256 0.0
  outer loop
    vertex 143.0053301025325 31.09839699032122 0.0
    vertex 142.90351535567615 31.122840542219315 8.5
    vertex 143.0053301025325 31.09839699032122 8.5
  endloop
endfacet
facet normal 0.13052622977177253 0.991444856430032 0.0
  outer loop
    vertex 142.69674886950824 31.155589133373923 8.5
    vertex 142.800560848802 31.141922023020303 0.0
    vertex 142.69674886950824 31.155589133373923 0.0
  endloop
endfacet
facet normal 0.13052622977177253 0.991444856430032 0.0
  outer loop
    vertex 142.800560848802 31.141922023020303 0.0
    vertex 142.69674886950824 31.155589133373923 8.5
    vertex 142.800560848802 31.141922023020303 8.5
  endloop
endfacet
facet normal -0.3826834323650951 0.9238795325112845 0.0
  outer loop
    vertex 130.48769201525985 30.898596150095756 8.5
    vertex 130.9700539250548 31.098396995105016 0.0
    vertex 130.48769201525985 30.898596150095756 0.0
  endloop
endfacet
facet normal -0.3826834323650951 0.9238795325112845 0.0
  outer loop
    vertex 130.9700539250548 31.098396995105016 0.0
    vertex 130.48769201525985 30.898596150095756 8.5
    vertex 130.9700539250548 31.098396995105016 8.5
  endloop
endfacet
facet normal 4.0038517242469367e-32 -4.13282610921311e-31 1.0
  outer loop
    vertex 130.68769201525987 24.16654534252683 8.5
    vertex 129.48769201525985 29.166545342526877 8.5
    vertex 129.48769201525985 24.16654534252683 8.5
  endloop
endfacet
facet normal 4.0038517242469367e-32 -4.13282610921311e-31 1.0
  outer loop
    vertex 129.48769201525985 29.166545342526877 8.5
    vertex 130.68769201525987 24.16654534252683 8.5
    vertex 129.55584036268172 29.684183432731924 8.5
  endloop
endfacet
facet normal 4.0038517242469367e-32 -4.13282610921311e-31 1.0
  outer loop
    vertex 129.55584036268172 29.684183432731924 8.5
    vertex 130.68769201525987 24.16654534252683 8.5
    vertex 129.75564120769099 30.166545342526874 8.5
  endloop
endfacet
facet normal 4.0038517242469367e-32 -4.13282610921311e-31 1.0
  outer loop
    vertex 129.75564120769099 30.166545342526874 8.5
    vertex 130.68769201525987 24.16654534252683 8.5
    vertex 130.07347845288675 30.580758904899977 8.5
  endloop
endfacet
facet normal 4.0038517242469367e-32 -4.13282610921311e-31 1.0
  outer loop
    vertex 130.07347845288675 30.580758904899977 8.5
    vertex 130.68769201525987 24.16654534252683 8.5
    vertex 130.48769201525985 30.898596150095756 8.5
  endloop
endfacet
facet normal 4.0038517242469367e-32 -4.13282610921311e-31 1.0
  outer loop
    vertex 130.48769201525985 30.898596150095756 8.5
    vertex 130.68769201525987 24.16654534252683 8.5
    vertex 130.68769201525987 29.16654534252683 8.5
  endloop
endfacet
facet normal 4.0038517242469367e-32 -4.13282610921311e-31 1.0
  outer loop
    vertex 130.48769201525985 30.898596150095756 8.5
    vertex 130.68769201525987 29.16654534252683 8.5
    vertex 130.9700539250548 31.098396995105016 8.5
  endloop
endfacet
facet normal 4.0038517242469367e-32 -4.13282610921311e-31 1.0
  outer loop
    vertex 130.9700539250548 31.098396995105016 8.5
    vertex 130.68769201525987 29.16654534252683 8.5
    vertex 144.48769201525982 29.16654534252683 8.5
  endloop
endfacet
facet normal 4.0038517242469367e-32 -4.13282610921311e-31 1.0
  outer loop
    vertex 130.9700539250548 31.098396995105016 8.5
    vertex 144.48769201525982 29.16654534252683 8.5
    vertex 131.48769201525985 31.16654534252688 8.5
  endloop
endfacet
facet normal 4.0038517242469367e-32 -4.13282610921311e-31 1.0
  outer loop
    vertex 131.48769201525985 31.16654534252688 8.5
    vertex 144.48769201525982 29.16654534252683 8.5
    vertex 142.59236397036838 31.16380441199378 8.5
  endloop
endfacet
facet normal 4.0038517242469367e-32 -4.13282610921311e-31 1.0
  outer loop
    vertex 142.59236397036838 31.16380441199378 8.5
    vertex 144.48769201525982 29.16654534252683 8.5
    vertex 142.69674886950824 31.155589133373923 8.5
  endloop
endfacet
facet normal 4.0038517242469367e-32 -4.13282610921311e-31 1.0
  outer loop
    vertex 142.69674886950824 31.155589133373923 8.5
    vertex 144.48769201525982 29.16654534252683 8.5
    vertex 142.800560848802 31.141922023020303 8.5
  endloop
endfacet
facet normal 4.0038517242469367e-32 -4.13282610921311e-31 1.0
  outer loop
    vertex 142.800560848802 31.141922023020303 8.5
    vertex 144.48769201525982 29.16654534252683 8.5
    vertex 142.90351535567615 31.122840542219315 8.5
  endloop
endfacet
facet normal 4.0038517242469367e-32 -4.13282610921311e-31 1.0
  outer loop
    vertex 142.90351535567615 31.122840542219315 8.5
    vertex 144.48769201525982 29.16654534252683 8.5
    vertex 143.0053301025325 31.09839699032122 8.5
  endloop
endfacet
facet normal 4.0038517242469367e-32 -4.13282610921311e-31 1.0
  outer loop
    vertex 143.0053301025325 31.09839699032122 8.5
    vertex 144.48769201525982 29.16654534252683 8.5
    vertex 143.105726020425 31.0686583778482 8.5
  endloop
endfacet
facet normal 4.0038517242469367e-32 -4.13282610921311e-31 1.0
  outer loop
    vertex 143.105726020425 31.0686583778482 8.5
    vertex 144.48769201525982 29.16654534252683 8.5
    vertex 143.2044278551038 31.033706184349313 8.5
  endloop
endfacet
facet normal 4.0038517242469367e-32 -4.13282610921311e-31 1.0
  outer loop
    vertex 143.2044278551038 31.033706184349313 8.5
    vertex 144.48769201525982 29.16654534252683 8.5
    vertex 143.30116523990003 30.993636261544818 8.5
  endloop
endfacet
facet normal 4.0038517242469367e-32 -4.13282610921311e-31 1.0
  outer loop
    vertex 143.30116523990003 30.993636261544818 8.5
    vertex 144.48769201525982 29.16654534252683 8.5
    vertex 143.39567293414433 30.94855840118905 8.5
  endloop
endfacet
facet normal 4.0038517242469367e-32 -4.13282610921311e-31 1.0
  outer loop
    vertex 143.39567293414433 30.94855840118905 8.5
    vertex 144.48769201525982 29.16654534252683 8.5
    vertex 143.48769201526002 30.89859614881076 8.5
  endloop
endfacet
facet normal 4.0038517242469367e-32 -4.13282610921311e-31 1.0
  outer loop
    vertex 143.48769201526002 30.89859614881076 8.5
    vertex 144.48769201525982 29.16654534252683 8.5
    vertex 143.5769700575766 30.843886475883036 8.5
  endloop
endfacet
facet normal 4.0038517242469367e-32 -4.13282610921311e-31 1.0
  outer loop
    vertex 143.5769700575766 30.843886475883036 8.5
    vertex 144.48769201525982 29.16654534252683 8.5
    vertex 143.6632625032361 30.784579347692087 8.5
  endloop
endfacet
facet normal 4.0038517242469367e-32 -4.13282610921311e-31 1.0
  outer loop
    vertex 143.6632625032361 30.784579347692087 8.5
    vertex 144.48769201525982 29.16654534252683 8.5
    vertex 143.7463328410085 30.72083727630164 8.5
  endloop
endfacet
facet normal 4.0038517242469367e-32 -4.13282610921311e-31 1.0
  outer loop
    vertex 143.7463328410085 30.72083727630164 8.5
    vertex 144.48769201525982 29.16654534252683 8.5
    vertex 143.82595320233654 30.652834962926235 8.5
  endloop
endfacet
facet normal 4.0038517242469367e-32 -4.13282610921311e-31 1.0
  outer loop
    vertex 143.82595320233654 30.652834962926235 8.5
    vertex 144.48769201525982 29.16654534252683 8.5
    vertex 143.90190561303433 30.580758940301507 8.5
  endloop
endfacet
facet normal 4.0038517242469367e-32 -4.13282610921311e-31 1.0
  outer loop
    vertex 143.90190561303433 30.580758940301507 8.5
    vertex 144.48769201525982 29.16654534252683 8.5
    vertex 143.9739816356594 30.504806529603528 8.5
  endloop
endfacet
facet normal 4.0038517242469367e-32 -4.13282610921311e-31 1.0
  outer loop
    vertex 143.9739816356594 30.504806529603528 8.5
    vertex 144.48769201525982 29.16654534252683 8.5
    vertex 144.04198394903503 30.42518616827562 8.5
  endloop
endfacet
facet normal 4.0038517242469367e-32 -4.13282610921311e-31 1.0
  outer loop
    vertex 144.04198394903503 30.42518616827562 8.5
    vertex 144.48769201525982 29.16654534252683 8.5
    vertex 144.10572602042507 30.342115830503182 8.5
  endloop
endfacet
facet normal 4.0038517242469367e-32 -4.13282610921311e-31 1.0
  outer loop
    vertex 144.10572602042507 30.342115830503182 8.5
    vertex 144.48769201525982 29.16654534252683 8.5
    vertex 144.16503314861615 30.25582338484333 8.5
  endloop
endfacet
facet normal 4.0038517242469367e-32 -4.13282610921311e-31 1.0
  outer loop
    vertex 144.16503314861615 30.25582338484333 8.5
    vertex 144.48769201525982 29.16654534252683 8.5
    vertex 144.21974282154397 30.166545342526966 8.5
  endloop
endfacet
facet normal 4.0038517242469367e-32 -4.13282610921311e-31 1.0
  outer loop
    vertex 144.21974282154397 30.166545342526966 8.5
    vertex 144.48769201525982 29.16654534252683 8.5
    vertex 144.2697050739223 30.074526261411155 8.5
  endloop
endfacet
facet normal 4.0038517242469367e-32 -4.13282610921311e-31 1.0
  outer loop
    vertex 144.2697050739223 30.074526261411155 8.5
    vertex 144.48769201525982 29.16654534252683 8.5
    vertex 144.3147829342778 29.980018567166937 8.5
  endloop
endfacet
facet normal 4.0038517242469367e-32 -4.13282610921311e-31 1.0
  outer loop
    vertex 144.3147829342778 29.980018567166937 8.5
    vertex 144.48769201525982 29.16654534252683 8.5
    vertex 144.3548528570827 29.883281182370776 8.5
  endloop
endfacet
facet normal 4.0038517242469367e-32 -4.13282610921311e-31 1.0
  outer loop
    vertex 144.3548528570827 29.883281182370776 8.5
    vertex 144.48769201525982 29.16654534252683 8.5
    vertex 144.38980505058126 29.784579347692112 8.5
  endloop
endfacet
facet normal 4.0038517242469367e-32 -4.13282610921311e-31 1.0
  outer loop
    vertex 144.38980505058126 29.784579347692112 8.5
    vertex 144.48769201525982 29.16654534252683 8.5
    vertex 144.41954366305427 29.684183429799756 8.5
  endloop
endfacet
facet normal 4.0038517242469367e-32 -4.13282610921311e-31 1.0
  outer loop
    vertex 144.41954366305427 29.684183429799756 8.5
    vertex 144.48769201525982 29.16654534252683 8.5
    vertex 144.44398721495264 29.5823686829428 8.5
  endloop
endfacet
facet normal 4.0038517242469367e-32 -4.13282610921311e-31 1.0
  outer loop
    vertex 144.44398721495264 29.5823686829428 8.5
    vertex 144.48769201525982 29.16654534252683 8.5
    vertex 144.46306869575307 29.47941417606869 8.5
  endloop
endfacet
facet normal 4.0038517242469367e-32 -4.13282610921311e-31 1.0
  outer loop
    vertex 144.46306869575307 29.47941417606869 8.5
    vertex 144.48769201525982 29.16654534252683 8.5
    vertex 144.47673580610706 29.375602196774924 8.5
  endloop
endfacet
facet normal 4.0038517242469367e-32 -4.13282610921311e-31 1.0
  outer loop
    vertex 144.47673580610706 29.375602196774924 8.5
    vertex 144.48769201525982 29.16654534252683 8.5
    vertex 144.48495108472724 29.27121729763557 8.5
  endloop
endfacet
facet normal 0.0 1.0 0.0
  outer loop
    vertex 130.68769201525987 3.1665453425268346 8.5
    vertex 134.28769201525986 3.1665453425268346 3.9999999999999996
    vertex 130.68769201525987 3.1665453425268346 3.9999999999999996
  endloop
endfacet
facet normal 0.0 1.0 0.0
  outer loop
    vertex 134.28769201525986 3.1665453425268346 3.9999999999999996
    vertex 144.48769201525982 3.1665453425268346 0.9999999999999999
    vertex 134.28769201525986 3.1665453425268346 0.9999999999999999
  endloop
endfacet
facet normal 0.0 1.0 0.0
  outer loop
    vertex 144.48769201525982 3.1665453425268346 0.9999999999999999
    vertex 134.28769201525986 3.1665453425268346 3.9999999999999996
    vertex 144.48769201525982 3.1665453425268346 8.5
  endloop
endfacet
facet normal 0.0 1.0 0.0
  outer loop
    vertex 144.48769201525982 3.1665453425268346 8.5
    vertex 134.28769201525986 3.1665453425268346 3.9999999999999996
    vertex 130.68769201525987 3.1665453425268346 8.5
  endloop
endfacet
facet normal 1.0 0.0 0.0
  outer loop
    vertex 130.68769201525987 27.166545342526835 0.9999999999999999
    vertex 130.68769201525987 5.166545342526831 3.9999999999999996
    vertex 130.68769201525987 5.166545342526831 0.9999999999999999
  endloop
endfacet
facet normal 1.0 0.0 0.0
  outer loop
    vertex 130.68769201525987 5.166545342526831 3.9999999999999996
    vertex 130.68769201525987 27.166545342526835 0.9999999999999999
    vertex 130.68769201525987 8.166545342526836 6.499999999999999
  endloop
endfacet
facet normal 1.0 0.0 0.0
  outer loop
    vertex 130.68769201525987 8.166545342526836 6.499999999999999
    vertex 130.68769201525987 27.166545342526835 0.9999999999999999
    vertex 130.68769201525987 24.16654534252683 6.499999999999999
  endloop
endfacet
facet normal 1.0 0.0 0.0
  outer loop
    vertex 130.68769201525987 24.16654534252683 6.499999999999999
    vertex 130.68769201525987 27.166545342526835 0.9999999999999999
    vertex 130.68769201525987 24.16654534252683 8.5
  endloop
endfacet
facet normal 1.0 0.0 0.0
  outer loop
    vertex 130.68769201525987 24.16654534252683 8.5
    vertex 130.68769201525987 27.166545342526835 0.9999999999999999
    vertex 130.68769201525987 27.166545342526835 3.9999999999999996
  endloop
endfacet
facet normal 1.0 0.0 0.0
  outer loop
    vertex 130.68769201525987 24.16654534252683 8.5
    vertex 130.68769201525987 27.166545342526835 3.9999999999999996
    vertex 130.68769201525987 29.16654534252683 8.5
  endloop
endfacet
facet normal 1.0 0.0 0.0
  outer loop
    vertex 130.68769201525987 29.16654534252683 8.5
    vertex 130.68769201525987 27.166545342526835 3.9999999999999996
    vertex 130.68769201525987 29.16654534252683 3.9999999999999996
  endloop
endfacet
facet normal 1.0 0.0 0.0
  outer loop
    vertex 130.68769201525987 5.166545342526831 3.9999999999999996
    vertex 130.68769201525987 3.1665453425268346 8.5
    vertex 130.68769201525987 3.1665453425268346 3.9999999999999996
  endloop
endfacet
facet normal 1.0 0.0 0.0
  outer loop
    vertex 130.68769201525987 3.1665453425268346 8.5
    vertex 130.68769201525987 5.166545342526831 3.9999999999999996
    vertex 130.68769201525987 8.166545342526836 8.5
  endloop
endfacet
facet normal 1.0 0.0 0.0
  outer loop
    vertex 130.68769201525987 8.166545342526836 8.5
    vertex 130.68769201525987 5.166545342526831 3.9999999999999996
    vertex 130.68769201525987 8.166545342526836 6.499999999999999
  endloop
endfacet
facet normal 0.0 -1.0 0.0
  outer loop
    vertex 144.48769201525982 29.16654534252683 8.5
    vertex 134.28769201525986 29.16654534252683 0.9999999999999999
    vertex 144.48769201525982 29.16654534252683 0.9999999999999999
  endloop
endfacet
facet normal 0.0 -1.0 0.0
  outer loop
    vertex 134.28769201525986 29.16654534252683 0.9999999999999999
    vertex 144.48769201525982 29.16654534252683 8.5
    vertex 134.28769201525986 29.16654534252683 3.9999999999999996
  endloop
endfacet
facet normal 0.0 -1.0 0.0
  outer loop
    vertex 134.28769201525986 29.16654534252683 3.9999999999999996
    vertex 144.48769201525982 29.16654534252683 8.5
    vertex 130.68769201525987 29.16654534252683 3.9999999999999996
  endloop
endfacet
facet normal 0.0 -1.0 0.0
  outer loop
    vertex 130.68769201525987 29.16654534252683 3.9999999999999996
    vertex 144.48769201525982 29.16654534252683 8.5
    vertex 130.68769201525987 29.16654534252683 8.5
  endloop
endfacet
facet normal 2.68030695417018e-32 4.016714639139883e-32 1.0
  outer loop
    vertex 130.9700539250548 1.2346936899487695 8.5
    vertex 130.68769201525987 3.1665453425268346 8.5
    vertex 130.48769201525985 1.434494534958024 8.5
  endloop
endfacet
facet normal 2.68030695417018e-32 4.016714639139883e-32 1.0
  outer loop
    vertex 130.68769201525987 3.1665453425268346 8.5
    vertex 130.9700539250548 1.2346936899487695 8.5
    vertex 144.48769201525982 3.1665453425268346 8.5
  endloop
endfacet
facet normal 2.68030695417018e-32 4.016714639139883e-32 1.0
  outer loop
    vertex 144.48769201525982 3.1665453425268346 8.5
    vertex 130.9700539250548 1.2346936899487695 8.5
    vertex 131.48769201525985 1.1665453425269061 8.5
  endloop
endfacet
facet normal 2.68030695417018e-32 4.016714639139883e-32 1.0
  outer loop
    vertex 144.48769201525982 3.1665453425268346 8.5
    vertex 131.48769201525985 1.1665453425269061 8.5
    vertex 142.48769201526005 1.1665453425269512 8.5
  endloop
endfacet
facet normal 2.68030695417018e-32 4.016714639139883e-32 1.0
  outer loop
    vertex 144.48769201525982 3.1665453425268346 8.5
    vertex 142.48769201526005 1.1665453425269512 8.5
    vertex 142.59236397036855 1.1692862025122215 8.5
  endloop
endfacet
facet normal 2.68030695417018e-32 4.016714639139883e-32 1.0
  outer loop
    vertex 144.48769201525982 3.1665453425268346 8.5
    vertex 142.59236397036855 1.1692862025122215 8.5
    vertex 142.6967488695079 1.177501153073823 8.5
  endloop
endfacet
facet normal 2.68030695417018e-32 4.016714639139883e-32 1.0
  outer loop
    vertex 144.48769201525982 3.1665453425268346 8.5
    vertex 142.6967488695079 1.177501153073823 8.5
    vertex 142.800560848802 1.191167306027864 8.5
  endloop
endfacet
facet normal 2.68030695417018e-32 4.016714639139883e-32 1.0
  outer loop
    vertex 144.48769201525982 3.1665453425268346 8.5
    vertex 142.800560848802 1.191167306027864 8.5
    vertex 142.90351535567584 1.2102503290990587 8.5
  endloop
endfacet
facet normal 2.68030695417018e-32 4.016714639139883e-32 1.0
  outer loop
    vertex 144.48769201525982 3.1665453425268346 8.5
    vertex 142.90351535567584 1.2102503290990587 8.5
    vertex 143.00533010253264 1.2346949091772619 8.5
  endloop
endfacet
facet normal 2.68030695417018e-32 4.016714639139883e-32 1.0
  outer loop
    vertex 144.48769201525982 3.1665453425268346 8.5
    vertex 143.00533010253264 1.2346949091772619 8.5
    vertex 143.10572602042515 1.2644323817115193 8.5
  endloop
endfacet
facet normal 2.68030695417018e-32 4.016714639139883e-32 1.0
  outer loop
    vertex 144.48769201525982 3.1665453425268346 8.5
    vertex 143.10572602042515 1.2644323817115193 8.5
    vertex 143.20442785510366 1.2993845454077486 8.5
  endloop
endfacet
facet normal 2.68030695417018e-32 4.016714639139883e-32 1.0
  outer loop
    vertex 144.48769201525982 3.1665453425268346 8.5
    vertex 143.20442785510366 1.2993845454077486 8.5
    vertex 143.3011652398998 1.339456032834619 8.5
  endloop
endfacet
facet normal 2.68030695417018e-32 4.016714639139883e-32 1.0
  outer loop
    vertex 144.48769201525982 3.1665453425268346 8.5
    vertex 143.3011652398998 1.339456032834619 8.5
    vertex 143.39567293414427 1.3845324030738888 8.5
  endloop
endfacet
facet normal 2.68030695417018e-32 4.016714639139883e-32 1.0
  outer loop
    vertex 144.48769201525982 3.1665453425268346 8.5
    vertex 143.39567293414427 1.3845324030738888 8.5
    vertex 143.48769201526002 1.4344954005103132 8.5
  endloop
endfacet
facet normal 2.68030695417018e-32 4.016714639139883e-32 1.0
  outer loop
    vertex 144.48769201525982 3.1665453425268346 8.5
    vertex 143.48769201526002 1.4344954005103132 8.5
    vertex 143.5769700575765 1.4892038813453188 8.5
  endloop
endfacet
facet normal 2.68030695417018e-32 4.016714639139883e-32 1.0
  outer loop
    vertex 144.48769201525982 3.1665453425268346 8.5
    vertex 143.5769700575765 1.4892038813453188 8.5
    vertex 143.66326250323618 1.5485109797340497 8.5
  endloop
endfacet
facet normal 2.68030695417018e-32 4.016714639139883e-32 1.0
  outer loop
    vertex 144.48769201525982 3.1665453425268346 8.5
    vertex 143.66326250323618 1.5485109797340497 8.5
    vertex 143.74633284100844 1.612252663693973 8.5
  endloop
endfacet
facet normal 2.68030695417018e-32 4.016714639139883e-32 1.0
  outer loop
    vertex 144.48769201525982 3.1665453425268346 8.5
    vertex 143.74633284100844 1.612252663693973 8.5
    vertex 143.82595320233656 1.6802553644995628 8.5
  endloop
endfacet
facet normal 2.68030695417018e-32 4.016714639139883e-32 1.0
  outer loop
    vertex 144.48769201525982 3.1665453425268346 8.5
    vertex 143.82595320233656 1.6802553644995628 8.5
    vertex 143.90190561303461 1.7523302546363102 8.5
  endloop
endfacet
facet normal 2.68030695417018e-32 4.016714639139883e-32 1.0
  outer loop
    vertex 144.48769201525982 3.1665453425268346 8.5
    vertex 143.90190561303461 1.7523302546363102 8.5
    vertex 143.97398163565944 1.8282846918922064 8.5
  endloop
endfacet
facet normal 2.68030695417018e-32 4.016714639139883e-32 1.0
  outer loop
    vertex 144.48769201525982 3.1665453425268346 8.5
    vertex 143.97398163565944 1.8282846918922064 8.5
    vertex 144.041983949035 1.907905053220225 8.5
  endloop
endfacet
facet normal 2.68030695417018e-32 4.016714639139883e-32 1.0
  outer loop
    vertex 144.48769201525982 3.1665453425268346 8.5
    vertex 144.041983949035 1.907905053220225 8.5
    vertex 144.10572602042487 1.990975808225052 8.5
  endloop
endfacet
facet normal 2.68030695417018e-32 4.016714639139883e-32 1.0
  outer loop
    vertex 144.48769201525982 3.1665453425268346 8.5
    vertex 144.10572602042487 1.990975808225052 8.5
    vertex 144.16503314861606 2.07726807507079 8.5
  endloop
endfacet
facet normal 2.68030695417018e-32 4.016714639139883e-32 1.0
  outer loop
    vertex 144.48769201525982 3.1665453425268346 8.5
    vertex 144.16503314861606 2.07726807507079 8.5
    vertex 144.21974282154392 2.166545342526814 8.5
  endloop
endfacet
facet normal 2.68030695417018e-32 4.016714639139883e-32 1.0
  outer loop
    vertex 144.48769201525982 3.1665453425268346 8.5
    vertex 144.21974282154392 2.166545342526814 8.5
    vertex 144.2697050739224 2.258563469968379 8.5
  endloop
endfacet
facet normal 2.68030695417018e-32 4.016714639139883e-32 1.0
  outer loop
    vertex 144.48769201525982 3.1665453425268346 8.5
    vertex 144.2697050739224 2.258563469968379 8.5
    vertex 144.31478293427773 2.353070687375606 8.5
  endloop
endfacet
facet normal 2.68030695417018e-32 4.016714639139883e-32 1.0
  outer loop
    vertex 144.48769201525982 3.1665453425268346 8.5
    vertex 144.31478293427773 2.353070687375606 8.5
    vertex 144.35485285708253 2.4498095026831668 8.5
  endloop
endfacet
facet normal 2.68030695417018e-32 4.016714639139883e-32 1.0
  outer loop
    vertex 144.48769201525982 3.1665453425268346 8.5
    vertex 144.35485285708253 2.4498095026831668 8.5
    vertex 144.38980505058126 2.548510979733958 8.5
  endloop
endfacet
facet normal 2.68030695417018e-32 4.016714639139883e-32 1.0
  outer loop
    vertex 144.48769201525982 3.1665453425268346 8.5
    vertex 144.38980505058126 2.548510979733958 8.5
    vertex 144.4195436630542 2.648908089719296 8.5
  endloop
endfacet
facet normal 2.68030695417018e-32 4.016714639139883e-32 1.0
  outer loop
    vertex 144.48769201525982 3.1665453425268346 8.5
    vertex 144.4195436630542 2.648908089719296 8.5
    vertex 144.44398721495216 2.750722359738949 8.5
  endloop
endfacet
facet normal 2.68030695417018e-32 4.016714639139883e-32 1.0
  outer loop
    vertex 144.48769201525982 3.1665453425268346 8.5
    vertex 144.44398721495216 2.750722359738949 8.5
    vertex 144.46306869575338 2.85367531689221 8.5
  endloop
endfacet
facet normal 2.68030695417018e-32 4.016714639139883e-32 1.0
  outer loop
    vertex 144.48769201525982 3.1665453425268346 8.5
    vertex 144.46306869575338 2.85367531689221 8.5
    vertex 144.47673580610706 2.9574884882789756 8.5
  endloop
endfacet
facet normal 2.68030695417018e-32 4.016714639139883e-32 1.0
  outer loop
    vertex 144.48769201525982 3.1665453425268346 8.5
    vertex 144.47673580610706 2.9574884882789756 8.5
    vertex 144.48495108472704 3.0618738642553316 8.5
  endloop
endfacet
facet normal 2.68030695417018e-32 4.016714639139883e-32 1.0
  outer loop
    vertex 129.55584036268172 2.648907252321868 8.5
    vertex 129.48769201525985 8.166545342526836 8.5
    vertex 129.48769201525985 3.166545342526908 8.5
  endloop
endfacet
facet normal 2.68030695417018e-32 4.016714639139883e-32 1.0
  outer loop
    vertex 129.48769201525985 8.166545342526836 8.5
    vertex 129.55584036268172 2.648907252321868 8.5
    vertex 130.68769201525987 8.166545342526836 8.5
  endloop
endfacet
facet normal 2.68030695417018e-32 4.016714639139883e-32 1.0
  outer loop
    vertex 130.68769201525987 8.166545342526836 8.5
    vertex 129.55584036268172 2.648907252321868 8.5
    vertex 129.75564120769096 2.1665453425269043 8.5
  endloop
endfacet
facet normal 2.68030695417018e-32 4.016714639139883e-32 1.0
  outer loop
    vertex 130.68769201525987 8.166545342526836 8.5
    vertex 129.75564120769096 2.1665453425269043 8.5
    vertex 130.07347845288675 1.7523317801538094 8.5
  endloop
endfacet
facet normal 2.68030695417018e-32 4.016714639139883e-32 1.0
  outer loop
    vertex 130.68769201525987 8.166545342526836 8.5
    vertex 130.07347845288675 1.7523317801538094 8.5
    vertex 130.48769201525985 1.434494534958024 8.5
  endloop
endfacet
facet normal 2.68030695417018e-32 4.016714639139883e-32 1.0
  outer loop
    vertex 130.68769201525987 8.166545342526836 8.5
    vertex 130.48769201525985 1.434494534958024 8.5
    vertex 130.68769201525987 3.1665453425268346 8.5
  endloop
endfacet
facet normal 0.8241257592528138 -0.5664068616603911 0.0
  outer loop
    vertex 144.16503314861606 2.07726807507079 0.0
    vertex 144.10572602042487 1.990975808225052 8.5
    vertex 144.10572602042487 1.990975808225052 0.0
  endloop
endfacet
facet normal 0.8241257592528138 -0.5664068616603911 0.0
  outer loop
    vertex 144.10572602042487 1.990975808225052 8.5
    vertex 144.16503314861606 2.07726807507079 0.0
    vertex 144.16503314861606 2.07726807507079 8.5
  endloop
endfacet
facet normal 0.8526380664635757 -0.5225019881467011 0.0
  outer loop
    vertex 144.21974282154392 2.166545342526814 0.0
    vertex 144.16503314861606 2.07726807507079 8.5
    vertex 144.16503314861606 2.07726807507079 0.0
  endloop
endfacet
facet normal 0.8526380664635757 -0.5225019881467011 0.0
  outer loop
    vertex 144.16503314861606 2.07726807507079 8.5
    vertex 144.21974282154392 2.166545342526814 0.0
    vertex 144.21974282154392 2.166545342526814 8.5
  endloop
endfacet
facet normal 0.878815167846388 -0.47716234214691033 0.0
  outer loop
    vertex 144.2697050739224 2.258563469968379 0.0
    vertex 144.21974282154392 2.166545342526814 8.5
    vertex 144.21974282154392 2.166545342526814 0.0
  endloop
endfacet
facet normal 0.878815167846388 -0.47716234214691033 0.0
  outer loop
    vertex 144.21974282154392 2.166545342526814 8.5
    vertex 144.2697050739224 2.258563469968379 0.0
    vertex 144.2697050739224 2.258563469968379 8.5
  endloop
endfacet
facet normal 0.9723696856243595 -0.23344634175498277 0.0
  outer loop
    vertex 144.44398721495216 2.750722359738949 0.0
    vertex 144.4195436630542 2.648908089719296 8.5
    vertex 144.4195436630542 2.648908089719296 0.0
  endloop
endfacet
facet normal 0.9723696856243595 -0.23344634175498277 0.0
  outer loop
    vertex 144.4195436630542 2.648908089719296 8.5
    vertex 144.44398721495216 2.750722359738949 0.0
    vertex 144.44398721495216 2.750722359738949 8.5
  endloop
endfacet
facet normal 0.9832544317342695 -0.1822380928206806 0.0
  outer loop
    vertex 144.46306869575338 2.85367531689221 0.0
    vertex 144.44398721495216 2.750722359738949 8.5
    vertex 144.44398721495216 2.750722359738949 0.0
  endloop
endfacet
facet normal 0.9832544317342695 -0.1822380928206806 0.0
  outer loop
    vertex 144.44398721495216 2.750722359738949 8.5
    vertex 144.46306869575338 2.85367531689221 0.0
    vertex 144.46306869575338 2.85367531689221 8.5
  endloop
endfacet
facet normal 0.9969173551249065 -0.0784588239190534 0.0
  outer loop
    vertex 144.48495108472704 3.0618738642553316 0.0
    vertex 144.47673580610706 2.9574884882789756 8.5
    vertex 144.47673580610706 2.9574884882789756 0.0
  endloop
endfacet
facet normal 0.9969173551249065 -0.0784588239190534 0.0
  outer loop
    vertex 144.47673580610706 2.9574884882789756 8.5
    vertex 144.48495108472704 3.0618738642553316 0.0
    vertex 144.48495108472704 3.0618738642553316 8.5
  endloop
endfacet
facet normal 0.9588206876652864 -0.28401212809502907 0.0
  outer loop
    vertex 144.4195436630542 2.648908089719296 0.0
    vertex 144.38980505058126 2.548510979733958 8.5
    vertex 144.38980505058126 2.548510979733958 0.0
  endloop
endfacet
facet normal 0.9588206876652864 -0.28401212809502907 0.0
  outer loop
    vertex 144.38980505058126 2.548510979733958 8.5
    vertex 144.4195436630542 2.648908089719296 0.0
    vertex 144.4195436630542 2.648908089719296 8.5
  endloop
endfacet
facet normal 0.9996573221234598 -0.026177057224854285 3.0952243481919874e-20
  outer loop
    vertex 144.48769201525982 3.1665453425268346 0.0
    vertex 144.48495108472704 3.0618738642553316 8.5
    vertex 144.48495108472704 3.0618738642553316 0.0
  endloop
endfacet
facet normal 0.9996573221234598 -0.026177057224854285 3.0952243481919874e-20
  outer loop
    vertex 144.48495108472704 3.0618738642553316 8.5
    vertex 144.48769201525982 3.1665453425268346 0.0
    vertex 144.48769201525982 3.1665453425268346 8.5
  endloop
endfacet
facet normal 0.9996573221234598 -0.026177057224854285 3.0952243481919874e-20
  outer loop
    vertex 144.48769201525982 3.1665453425268346 8.5
    vertex 144.48769201525982 3.1665453425268346 0.0
    vertex 144.48769201525982 3.1665453425268346 0.9999999999999999
  endloop
endfacet
facet normal 0.9426409882147279 -0.3338082793124839 0.0
  outer loop
    vertex 144.38980505058126 2.548510979733958 0.0
    vertex 144.35485285708253 2.4498095026831668 8.5
    vertex 144.35485285708253 2.4498095026831668 0.0
  endloop
endfacet
facet normal 0.9426409882147279 -0.3338082793124839 0.0
  outer loop
    vertex 144.35485285708253 2.4498095026831668 8.5
    vertex 144.38980505058126 2.548510979733958 0.0
    vertex 144.38980505058126 2.548510979733958 8.5
  endloop
endfacet
facet normal 0.9914450503932071 -0.13052475646715925 0.0
  outer loop
    vertex 144.47673580610706 2.9574884882789756 0.0
    vertex 144.46306869575338 2.85367531689221 8.5
    vertex 144.46306869575338 2.85367531689221 0.0
  endloop
endfacet
facet normal 0.9914450503932071 -0.13052475646715925 0.0
  outer loop
    vertex 144.46306869575338 2.85367531689221 8.5
    vertex 144.47673580610706 2.9574884882789756 0.0
    vertex 144.47673580610706 2.9574884882789756 8.5
  endloop
endfacet
facet normal 0.9025844308512493 -0.4305128862007809 0.0
  outer loop
    vertex 144.31478293427773 2.353070687375606 0.0
    vertex 144.2697050739224 2.258563469968379 8.5
    vertex 144.2697050739224 2.258563469968379 0.0
  endloop
endfacet
facet normal 0.9025844308512493 -0.4305128862007809 0.0
  outer loop
    vertex 144.2697050739224 2.258563469968379 8.5
    vertex 144.31478293427773 2.353070687375606 0.0
    vertex 144.31478293427773 2.353070687375606 8.5
  endloop
endfacet
facet normal 0.9238815803750581 -0.3826784883471833 0.0
  outer loop
    vertex 144.35485285708253 2.4498095026831668 0.0
    vertex 144.31478293427773 2.353070687375606 8.5
    vertex 144.31478293427773 2.353070687375606 0.0
  endloop
endfacet
facet normal 0.9238815803750581 -0.3826784883471833 0.0
  outer loop
    vertex 144.31478293427773 2.353070687375606 8.5
    vertex 144.35485285708253 2.4498095026831668 0.0
    vertex 144.35485285708253 2.4498095026831668 8.5
  endloop
endfacet
facet normal 0.9832549232649535 0.18223544077711892 0.0
  outer loop
    vertex 144.44398721495264 29.5823686829428 0.0
    vertex 144.46306869575307 29.47941417606869 8.5
    vertex 144.46306869575307 29.47941417606869 0.0
  endloop
endfacet
facet normal 0.9832549232649535 0.18223544077711892 0.0
  outer loop
    vertex 144.46306869575307 29.47941417606869 8.5
    vertex 144.44398721495264 29.5823686829428 0.0
    vertex 144.44398721495264 29.5823686829428 8.5
  endloop
endfacet
facet normal 0.9426413687954254 0.3338072045889471 0.0
  outer loop
    vertex 144.3548528570827 29.883281182370776 0.0
    vertex 144.38980505058126 29.784579347692112 8.5
    vertex 144.38980505058126 29.784579347692112 0.0
  endloop
endfacet
facet normal 0.9426413687954254 0.3338072045889471 0.0
  outer loop
    vertex 144.38980505058126 29.784579347692112 8.5
    vertex 144.3548528570827 29.883281182370776 0.0
    vertex 144.3548528570827 29.883281182370776 8.5
  endloop
endfacet
facet normal 0.9723699338019314 0.2334453080231593 0.0
  outer loop
    vertex 144.41954366305427 29.684183429799756 0.0
    vertex 144.44398721495264 29.5823686829428 8.5
    vertex 144.44398721495264 29.5823686829428 0.0
  endloop
endfacet
facet normal 0.9723699338019314 0.2334453080231593 0.0
  outer loop
    vertex 144.44398721495264 29.5823686829428 8.5
    vertex 144.41954366305427 29.684183429799756 0.0
    vertex 144.41954366305427 29.684183429799756 8.5
  endloop
endfacet
facet normal 0.9238795796689926 0.382683318516297 0.0
  outer loop
    vertex 144.3147829342778 29.980018567166937 0.0
    vertex 144.3548528570827 29.883281182370776 8.5
    vertex 144.3548528570827 29.883281182370776 0.0
  endloop
endfacet
facet normal 0.9238795796689926 0.382683318516297 0.0
  outer loop
    vertex 144.3548528570827 29.883281182370776 8.5
    vertex 144.3147829342778 29.980018567166937 0.0
    vertex 144.3147829342778 29.980018567166937 8.5
  endloop
endfacet
facet normal 0.9588197693173508 0.28401522840548926 0.0
  outer loop
    vertex 144.38980505058126 29.784579347692112 0.0
    vertex 144.41954366305427 29.684183429799756 8.5
    vertex 144.41954366305427 29.684183429799756 0.0
  endloop
endfacet
facet normal 0.9588197693173508 0.28401522840548926 0.0
  outer loop
    vertex 144.41954366305427 29.684183429799756 8.5
    vertex 144.38980505058126 29.784579347692112 0.0
    vertex 144.38980505058126 29.784579347692112 8.5
  endloop
endfacet
facet normal 0.9969173270913577 0.07845918011949388 0.0
  outer loop
    vertex 144.47673580610706 29.375602196774924 0.0
    vertex 144.48495108472724 29.27121729763557 8.5
    vertex 144.48495108472724 29.27121729763557 0.0
  endloop
endfacet
facet normal 0.9969173270913577 0.07845918011949388 0.0
  outer loop
    vertex 144.48495108472724 29.27121729763557 8.5
    vertex 144.47673580610706 29.375602196774924 0.0
    vertex 144.47673580610706 29.375602196774924 8.5
  endloop
endfacet
facet normal 0.9025852748894256 0.43051111664250896 0.0
  outer loop
    vertex 144.2697050739223 30.074526261411155 0.0
    vertex 144.3147829342778 29.980018567166937 8.5
    vertex 144.3147829342778 29.980018567166937 0.0
  endloop
endfacet
facet normal 0.9025852748894256 0.43051111664250896 0.0
  outer loop
    vertex 144.3147829342778 29.980018567166937 8.5
    vertex 144.2697050739223 30.074526261411155 0.0
    vertex 144.2697050739223 30.074526261411155 8.5
  endloop
endfacet
facet normal 0.8788172415728399 0.47715852283523646 0.0
  outer loop
    vertex 144.21974282154397 30.166545342526966 0.0
    vertex 144.2697050739223 30.074526261411155 8.5
    vertex 144.2697050739223 30.074526261411155 0.0
  endloop
endfacet
facet normal 0.8788172415728399 0.47715852283523646 0.0
  outer loop
    vertex 144.2697050739223 30.074526261411155 8.5
    vertex 144.21974282154397 30.166545342526966 0.0
    vertex 144.21974282154397 30.166545342526966 8.5
  endloop
endfacet
facet normal 0.9996573252440585 0.026176938054225867 2.0634641047228584e-20
  outer loop
    vertex 144.48495108472724 29.27121729763557 0.0
    vertex 144.48769201525982 29.16654534252683 0.9999999999999999
    vertex 144.48769201525982 29.16654534252683 0.0
  endloop
endfacet
facet normal 0.9996573252440585 0.026176938054225867 2.0634641047228584e-20
  outer loop
    vertex 144.48769201525982 29.16654534252683 0.9999999999999999
    vertex 144.48495108472724 29.27121729763557 0.0
    vertex 144.48769201525982 29.16654534252683 8.5
  endloop
endfacet
facet normal 0.9996573252440585 0.026176938054225867 2.0634641047228584e-20
  outer loop
    vertex 144.48769201525982 29.16654534252683 8.5
    vertex 144.48495108472724 29.27121729763557 0.0
    vertex 144.48495108472724 29.27121729763557 8.5
  endloop
endfacet
facet normal 0.9914448564295615 0.13052622977534492 0.0
  outer loop
    vertex 144.46306869575307 29.47941417606869 0.0
    vertex 144.47673580610706 29.375602196774924 8.5
    vertex 144.47673580610706 29.375602196774924 0.0
  endloop
endfacet
facet normal 0.9914448564295615 0.13052622977534492 0.0
  outer loop
    vertex 144.47673580610706 29.375602196774924 8.5
    vertex 144.46306869575307 29.47941417606869 0.0
    vertex 144.46306869575307 29.47941417606869 8.5
  endloop
endfacet
facet normal 0.7253841323031864 -0.6883442892933401 0.0
  outer loop
    vertex 143.97398163565944 1.8282846918922064 0.0
    vertex 143.90190561303461 1.7523302546363102 8.5
    vertex 143.90190561303461 1.7523302546363102 0.0
  endloop
endfacet
facet normal 0.7253841323031864 -0.6883442892933401 0.0
  outer loop
    vertex 143.90190561303461 1.7523302546363102 8.5
    vertex 143.97398163565944 1.8282846918922064 0.0
    vertex 143.97398163565944 1.8282846918922064 8.5
  endloop
endfacet
facet normal 0.7604054911500411 -0.6494486038393378 0.0
  outer loop
    vertex 144.041983949035 1.907905053220225 0.0
    vertex 143.97398163565944 1.8282846918922064 8.5
    vertex 143.97398163565944 1.8282846918922064 0.0
  endloop
endfacet
facet normal 0.7604054911500411 -0.6494486038393378 0.0
  outer loop
    vertex 143.97398163565944 1.8282846918922064 8.5
    vertex 144.041983949035 1.907905053220225 0.0
    vertex 144.041983949035 1.907905053220225 8.5
  endloop
endfacet
facet normal 0.7933550046372083 -0.60875925998468 0.0
  outer loop
    vertex 144.10572602042487 1.990975808225052 0.0
    vertex 144.041983949035 1.907905053220225 8.5
    vertex 144.041983949035 1.907905053220225 0.0
  endloop
endfacet
facet normal 0.7933550046372083 -0.60875925998468 0.0
  outer loop
    vertex 144.041983949035 1.907905053220225 8.5
    vertex 144.10572602042487 1.990975808225052 0.0
    vertex 144.10572602042487 1.990975808225052 8.5
  endloop
endfacet
facet normal -0.0 -1.0 -0.0
  outer loop
    vertex 130.68769201525987 24.16654534252683 8.5
    vertex 129.48769201525985 24.16654534252683 6.499999999999999
    vertex 130.68769201525987 24.16654534252683 6.499999999999999
  endloop
endfacet
facet normal -0.0 -1.0 -0.0
  outer loop
    vertex 129.48769201525985 24.16654534252683 6.499999999999999
    vertex 130.68769201525987 24.16654534252683 8.5
    vertex 129.48769201525985 24.16654534252683 8.5
  endloop
endfacet
facet normal 0.0 0.0 1.0
  outer loop
    vertex 144.48769201525982 3.1665453425268346 0.9999999999999999
    vertex 134.28769201525986 5.166545342526836 0.9999999999999999
    vertex 134.28769201525986 3.1665453425268346 0.9999999999999999
  endloop
endfacet
facet normal 0.0 0.0 1.0
  outer loop
    vertex 134.28769201525986 5.166545342526836 0.9999999999999999
    vertex 144.48769201525982 3.1665453425268346 0.9999999999999999
    vertex 134.28769201525986 27.166545342526835 0.9999999999999999
  endloop
endfacet
facet normal 0.0 0.0 1.0
  outer loop
    vertex 134.28769201525986 27.166545342526835 0.9999999999999999
    vertex 144.48769201525982 3.1665453425268346 0.9999999999999999
    vertex 134.28769201525986 29.16654534252683 0.9999999999999999
  endloop
endfacet
facet normal 0.0 0.0 1.0
  outer loop
    vertex 134.28769201525986 29.16654534252683 0.9999999999999999
    vertex 144.48769201525982 3.1665453425268346 0.9999999999999999
    vertex 144.48769201525982 29.16654534252683 0.9999999999999999
  endloop
endfacet
facet normal 0.0 0.0 1.0
  outer loop
    vertex 134.28769201525986 5.166545342526836 0.9999999999999999
    vertex 130.68769201525987 27.166545342526835 0.9999999999999999
    vertex 130.68769201525987 5.166545342526831 0.9999999999999999
  endloop
endfacet
facet normal 0.0 0.0 1.0
  outer loop
    vertex 130.68769201525987 27.166545342526835 0.9999999999999999
    vertex 134.28769201525986 5.166545342526836 0.9999999999999999
    vertex 134.28769201525986 27.166545342526835 0.9999999999999999
  endloop
endfacet
facet normal 1.0 0.0 0.0
  outer loop
    vertex 144.48769201525982 29.16654534252683 0.0
    vertex 144.48769201525982 3.1665453425268346 0.9999999999999999
    vertex 144.48769201525982 3.1665453425268346 0.0
  endloop
endfacet
facet normal 1.0 0.0 0.0
  outer loop
    vertex 144.48769201525982 3.1665453425268346 0.9999999999999999
    vertex 144.48769201525982 29.16654534252683 0.0
    vertex 144.48769201525982 29.16654534252683 0.9999999999999999
  endloop
endfacet
facet normal 0.0 0.0 -1.0
  outer loop
    vertex 129.55584036268172 29.684183432731924 0.0
    vertex 129.48769201525985 3.166545342526908 0.0
    vertex 129.48769201525985 29.166545342526877 0.0
  endloop
endfacet
facet normal 0.0 0.0 -1.0
  outer loop
    vertex 129.48769201525985 3.166545342526908 0.0
    vertex 129.55584036268172 29.684183432731924 0.0
    vertex 129.55584036268172 2.648907252321868 0.0
  endloop
endfacet
facet normal 0.0 0.0 -1.0
  outer loop
    vertex 129.55584036268172 2.648907252321868 0.0
    vertex 129.55584036268172 29.684183432731924 0.0
    vertex 129.75564120769099 30.166545342526874 0.0
  endloop
endfacet
facet normal 0.0 0.0 -1.0
  outer loop
    vertex 129.55584036268172 2.648907252321868 0.0
    vertex 129.75564120769099 30.166545342526874 0.0
    vertex 129.75564120769096 2.1665453425269043 0.0
  endloop
endfacet
facet normal 0.0 0.0 -1.0
  outer loop
    vertex 129.75564120769096 2.1665453425269043 0.0
    vertex 129.75564120769099 30.166545342526874 0.0
    vertex 130.07347845288675 1.7523317801538094 0.0
  endloop
endfacet
facet normal 0.0 0.0 -1.0
  outer loop
    vertex 130.07347845288675 1.7523317801538094 0.0
    vertex 129.75564120769099 30.166545342526874 0.0
    vertex 130.07347845288675 30.580758904899977 0.0
  endloop
endfacet
facet normal 0.0 0.0 -1.0
  outer loop
    vertex 130.07347845288675 1.7523317801538094 0.0
    vertex 130.07347845288675 30.580758904899977 0.0
    vertex 130.48769201525985 30.898596150095756 0.0
  endloop
endfacet
facet normal 0.0 0.0 -1.0
  outer loop
    vertex 130.07347845288675 1.7523317801538094 0.0
    vertex 130.48769201525985 30.898596150095756 0.0
    vertex 130.48769201525985 1.434494534958024 0.0
  endloop
endfacet
facet normal 0.0 0.0 -1.0
  outer loop
    vertex 130.48769201525985 1.434494534958024 0.0
    vertex 130.48769201525985 30.898596150095756 0.0
    vertex 130.9700539250548 31.098396995105016 0.0
  endloop
endfacet
facet normal 0.0 0.0 -1.0
  outer loop
    vertex 130.48769201525985 1.434494534958024 0.0
    vertex 130.9700539250548 31.098396995105016 0.0
    vertex 130.9700539250548 1.2346936899487695 0.0
  endloop
endfacet
facet normal 0.0 0.0 -1.0
  outer loop
    vertex 130.9700539250548 1.2346936899487695 0.0
    vertex 130.9700539250548 31.098396995105016 0.0
    vertex 131.48769201525985 31.16654534252688 0.0
  endloop
endfacet
facet normal 0.0 0.0 -1.0
  outer loop
    vertex 130.9700539250548 1.2346936899487695 0.0
    vertex 131.48769201525985 31.16654534252688 0.0
    vertex 131.48769201525985 1.1665453425269061 0.0
  endloop
endfacet
facet normal 0.0 0.0 -1.0
  outer loop
    vertex 131.48769201525985 1.1665453425269061 0.0
    vertex 131.48769201525985 31.16654534252688 0.0
    vertex 142.59236397036838 31.16380441199378 0.0
  endloop
endfacet
facet normal 0.0 0.0 -1.0
  outer loop
    vertex 131.48769201525985 1.1665453425269061 0.0
    vertex 142.59236397036838 31.16380441199378 0.0
    vertex 142.48769201526005 1.1665453425269512 0.0
  endloop
endfacet
facet normal 0.0 0.0 -1.0
  outer loop
    vertex 142.48769201526005 1.1665453425269512 0.0
    vertex 142.59236397036838 31.16380441199378 0.0
    vertex 142.59236397036855 1.1692862025122215 0.0
  endloop
endfacet
facet normal 0.0 0.0 -1.0
  outer loop
    vertex 142.59236397036855 1.1692862025122215 0.0
    vertex 142.59236397036838 31.16380441199378 0.0
    vertex 142.69674886950824 31.155589133373923 0.0
  endloop
endfacet
facet normal 0.0 0.0 -1.0
  outer loop
    vertex 142.59236397036855 1.1692862025122215 0.0
    vertex 142.69674886950824 31.155589133373923 0.0
    vertex 142.6967488695079 1.177501153073823 0.0
  endloop
endfacet
facet normal 0.0 0.0 -1.0
  outer loop
    vertex 142.6967488695079 1.177501153073823 0.0
    vertex 142.69674886950824 31.155589133373923 0.0
    vertex 142.800560848802 1.191167306027864 0.0
  endloop
endfacet
facet normal 0.0 0.0 -1.0
  outer loop
    vertex 142.800560848802 1.191167306027864 0.0
    vertex 142.69674886950824 31.155589133373923 0.0
    vertex 142.800560848802 31.141922023020303 0.0
  endloop
endfacet
facet normal 0.0 0.0 -1.0
  outer loop
    vertex 142.800560848802 1.191167306027864 0.0
    vertex 142.800560848802 31.141922023020303 0.0
    vertex 142.90351535567615 31.122840542219315 0.0
  endloop
endfacet
facet normal 0.0 0.0 -1.0
  outer loop
    vertex 142.800560848802 1.191167306027864 0.0
    vertex 142.90351535567615 31.122840542219315 0.0
    vertex 142.90351535567584 1.2102503290990587 0.0
  endloop
endfacet
facet normal 0.0 0.0 -1.0
  outer loop
    vertex 142.90351535567584 1.2102503290990587 0.0
    vertex 142.90351535567615 31.122840542219315 0.0
    vertex 143.00533010253264 1.2346949091772619 0.0
  endloop
endfacet
facet normal 0.0 0.0 -1.0
  outer loop
    vertex 143.00533010253264 1.2346949091772619 0.0
    vertex 142.90351535567615 31.122840542219315 0.0
    vertex 143.0053301025325 31.09839699032122 0.0
  endloop
endfacet
facet normal 0.0 0.0 -1.0
  outer loop
    vertex 143.00533010253264 1.2346949091772619 0.0
    vertex 143.0053301025325 31.09839699032122 0.0
    vertex 143.105726020425 31.0686583778482 0.0
  endloop
endfacet
facet normal 0.0 0.0 -1.0
  outer loop
    vertex 143.00533010253264 1.2346949091772619 0.0
    vertex 143.105726020425 31.0686583778482 0.0
    vertex 143.10572602042515 1.2644323817115193 0.0
  endloop
endfacet
facet normal 0.0 0.0 -1.0
  outer loop
    vertex 143.10572602042515 1.2644323817115193 0.0
    vertex 143.105726020425 31.0686583778482 0.0
    vertex 143.2044278551038 31.033706184349313 0.0
  endloop
endfacet
facet normal 0.0 0.0 -1.0
  outer loop
    vertex 143.10572602042515 1.2644323817115193 0.0
    vertex 143.2044278551038 31.033706184349313 0.0
    vertex 143.20442785510366 1.2993845454077486 0.0
  endloop
endfacet
facet normal 0.0 0.0 -1.0
  outer loop
    vertex 143.20442785510366 1.2993845454077486 0.0
    vertex 143.2044278551038 31.033706184349313 0.0
    vertex 143.3011652398998 1.339456032834619 0.0
  endloop
endfacet
facet normal 0.0 0.0 -1.0
  outer loop
    vertex 143.3011652398998 1.339456032834619 0.0
    vertex 143.2044278551038 31.033706184349313 0.0
    vertex 143.30116523990003 30.993636261544818 0.0
  endloop
endfacet
facet normal 0.0 0.0 -1.0
  outer loop
    vertex 143.3011652398998 1.339456032834619 0.0
    vertex 143.30116523990003 30.993636261544818 0.0
    vertex 143.39567293414427 1.3845324030738888 0.0
  endloop
endfacet
facet normal 0.0 0.0 -1.0
  outer loop
    vertex 143.39567293414427 1.3845324030738888 0.0
    vertex 143.30116523990003 30.993636261544818 0.0
    vertex 143.39567293414433 30.94855840118905 0.0
  endloop
endfacet
facet normal 0.0 0.0 -1.0
  outer loop
    vertex 143.39567293414427 1.3845324030738888 0.0
    vertex 143.39567293414433 30.94855840118905 0.0
    vertex 143.48769201526002 1.4344954005103132 0.0
  endloop
endfacet
facet normal 0.0 0.0 -1.0
  outer loop
    vertex 143.48769201526002 1.4344954005103132 0.0
    vertex 143.39567293414433 30.94855840118905 0.0
    vertex 143.48769201526002 30.89859614881076 0.0
  endloop
endfacet
facet normal 0.0 0.0 -1.0
  outer loop
    vertex 143.48769201526002 1.4344954005103132 0.0
    vertex 143.48769201526002 30.89859614881076 0.0
    vertex 143.5769700575766 30.843886475883036 0.0
  endloop
endfacet
facet normal 0.0 0.0 -1.0
  outer loop
    vertex 143.48769201526002 1.4344954005103132 0.0
    vertex 143.5769700575766 30.843886475883036 0.0
    vertex 143.5769700575765 1.4892038813453188 0.0
  endloop
endfacet
facet normal 0.0 0.0 -1.0
  outer loop
    vertex 143.5769700575765 1.4892038813453188 0.0
    vertex 143.5769700575766 30.843886475883036 0.0
    vertex 143.66326250323618 1.5485109797340497 0.0
  endloop
endfacet
facet normal 0.0 0.0 -1.0
  outer loop
    vertex 143.66326250323618 1.5485109797340497 0.0
    vertex 143.5769700575766 30.843886475883036 0.0
    vertex 143.6632625032361 30.784579347692087 0.0
  endloop
endfacet
facet normal 0.0 0.0 -1.0
  outer loop
    vertex 143.66326250323618 1.5485109797340497 0.0
    vertex 143.6632625032361 30.784579347692087 0.0
    vertex 143.7463328410085 30.72083727630164 0.0
  endloop
endfacet
facet normal 0.0 0.0 -1.0
  outer loop
    vertex 143.66326250323618 1.5485109797340497 0.0
    vertex 143.7463328410085 30.72083727630164 0.0
    vertex 143.74633284100844 1.612252663693973 0.0
  endloop
endfacet
facet normal 0.0 0.0 -1.0
  outer loop
    vertex 143.74633284100844 1.612252663693973 0.0
    vertex 143.7463328410085 30.72083727630164 0.0
    vertex 143.82595320233656 1.6802553644995628 0.0
  endloop
endfacet
facet normal 0.0 0.0 -1.0
  outer loop
    vertex 143.82595320233656 1.6802553644995628 0.0
    vertex 143.7463328410085 30.72083727630164 0.0
    vertex 143.82595320233654 30.652834962926235 0.0
  endloop
endfacet
facet normal 0.0 0.0 -1.0
  outer loop
    vertex 143.82595320233656 1.6802553644995628 0.0
    vertex 143.82595320233654 30.652834962926235 0.0
    vertex 143.90190561303433 30.580758940301507 0.0
  endloop
endfacet
facet normal 0.0 0.0 -1.0
  outer loop
    vertex 143.82595320233656 1.6802553644995628 0.0
    vertex 143.90190561303433 30.580758940301507 0.0
    vertex 143.90190561303461 1.7523302546363102 0.0
  endloop
endfacet
facet normal 0.0 0.0 -1.0
  outer loop
    vertex 143.90190561303461 1.7523302546363102 0.0
    vertex 143.90190561303433 30.580758940301507 0.0
    vertex 143.9739816356594 30.504806529603528 0.0
  endloop
endfacet
facet normal 0.0 0.0 -1.0
  outer loop
    vertex 143.90190561303461 1.7523302546363102 0.0
    vertex 143.9739816356594 30.504806529603528 0.0
    vertex 143.97398163565944 1.8282846918922064 0.0
  endloop
endfacet
facet normal 0.0 0.0 -1.0
  outer loop
    vertex 143.97398163565944 1.8282846918922064 0.0
    vertex 143.9739816356594 30.504806529603528 0.0
    vertex 144.04198394903503 30.42518616827562 0.0
  endloop
endfacet
facet normal 0.0 0.0 -1.0
  outer loop
    vertex 143.97398163565944 1.8282846918922064 0.0
    vertex 144.04198394903503 30.42518616827562 0.0
    vertex 144.041983949035 1.907905053220225 0.0
  endloop
endfacet
facet normal 0.0 0.0 -1.0
  outer loop
    vertex 144.041983949035 1.907905053220225 0.0
    vertex 144.04198394903503 30.42518616827562 0.0
    vertex 144.10572602042487 1.990975808225052 0.0
  endloop
endfacet
facet normal 0.0 0.0 -1.0
  outer loop
    vertex 144.10572602042487 1.990975808225052 0.0
    vertex 144.04198394903503 30.42518616827562 0.0
    vertex 144.10572602042507 30.342115830503182 0.0
  endloop
endfacet
facet normal 0.0 0.0 -1.0
  outer loop
    vertex 144.10572602042487 1.990975808225052 0.0
    vertex 144.10572602042507 30.342115830503182 0.0
    vertex 144.16503314861606 2.07726807507079 0.0
  endloop
endfacet
facet normal 0.0 0.0 -1.0
  outer loop
    vertex 144.16503314861606 2.07726807507079 0.0
    vertex 144.10572602042507 30.342115830503182 0.0
    vertex 144.16503314861615 30.25582338484333 0.0
  endloop
endfacet
facet normal 0.0 0.0 -1.0
  outer loop
    vertex 144.16503314861606 2.07726807507079 0.0
    vertex 144.16503314861615 30.25582338484333 0.0
    vertex 144.21974282154392 2.166545342526814 0.0
  endloop
endfacet
facet normal 0.0 0.0 -1.0
  outer loop
    vertex 144.21974282154392 2.166545342526814 0.0
    vertex 144.16503314861615 30.25582338484333 0.0
    vertex 144.21974282154397 30.166545342526966 0.0
  endloop
endfacet
facet normal 0.0 0.0 -1.0
  outer loop
    vertex 144.21974282154392 2.166545342526814 0.0
    vertex 144.21974282154397 30.166545342526966 0.0
    vertex 144.2697050739224 2.258563469968379 0.0
  endloop
endfacet
facet normal 0.0 0.0 -1.0
  outer loop
    vertex 144.2697050739224 2.258563469968379 0.0
    vertex 144.21974282154397 30.166545342526966 0.0
    vertex 144.2697050739223 30.074526261411155 0.0
  endloop
endfacet
facet normal 0.0 0.0 -1.0
  outer loop
    vertex 144.2697050739224 2.258563469968379 0.0
    vertex 144.2697050739223 30.074526261411155 0.0
    vertex 144.3147829342778 29.980018567166937 0.0
  endloop
endfacet
facet normal 0.0 0.0 -1.0
  outer loop
    vertex 144.2697050739224 2.258563469968379 0.0
    vertex 144.3147829342778 29.980018567166937 0.0
    vertex 144.31478293427773 2.353070687375606 0.0
  endloop
endfacet
facet normal 0.0 0.0 -1.0
  outer loop
    vertex 144.31478293427773 2.353070687375606 0.0
    vertex 144.3147829342778 29.980018567166937 0.0
    vertex 144.35485285708253 2.4498095026831668 0.0
  endloop
endfacet
facet normal 0.0 0.0 -1.0
  outer loop
    vertex 144.35485285708253 2.4498095026831668 0.0
    vertex 144.3147829342778 29.980018567166937 0.0
    vertex 144.3548528570827 29.883281182370776 0.0
  endloop
endfacet
facet normal 0.0 0.0 -1.0
  outer loop
    vertex 144.35485285708253 2.4498095026831668 0.0
    vertex 144.3548528570827 29.883281182370776 0.0
    vertex 144.38980505058126 2.548510979733958 0.0
  endloop
endfacet
facet normal 0.0 0.0 -1.0
  outer loop
    vertex 144.38980505058126 2.548510979733958 0.0
    vertex 144.3548528570827 29.883281182370776 0.0
    vertex 144.38980505058126 29.784579347692112 0.0
  endloop
endfacet
facet normal 0.0 0.0 -1.0
  outer loop
    vertex 144.38980505058126 2.548510979733958 0.0
    vertex 144.38980505058126 29.784579347692112 0.0
    vertex 144.41954366305427 29.684183429799756 0.0
  endloop
endfacet
facet normal 0.0 0.0 -1.0
  outer loop
    vertex 144.38980505058126 2.548510979733958 0.0
    vertex 144.41954366305427 29.684183429799756 0.0
    vertex 144.4195436630542 2.648908089719296 0.0
  endloop
endfacet
facet normal 0.0 0.0 -1.0
  outer loop
    vertex 144.4195436630542 2.648908089719296 0.0
    vertex 144.41954366305427 29.684183429799756 0.0
    vertex 144.44398721495216 2.750722359738949 0.0
  endloop
endfacet
facet normal 0.0 0.0 -1.0
  outer loop
    vertex 144.44398721495216 2.750722359738949 0.0
    vertex 144.41954366305427 29.684183429799756 0.0
    vertex 144.44398721495264 29.5823686829428 0.0
  endloop
endfacet
facet normal 0.0 0.0 -1.0
  outer loop
    vertex 144.44398721495216 2.750722359738949 0.0
    vertex 144.44398721495264 29.5823686829428 0.0
    vertex 144.46306869575338 2.85367531689221 0.0
  endloop
endfacet
facet normal 0.0 0.0 -1.0
  outer loop
    vertex 144.46306869575338 2.85367531689221 0.0
    vertex 144.44398721495264 29.5823686829428 0.0
    vertex 144.46306869575307 29.47941417606869 0.0
  endloop
endfacet
facet normal 0.0 0.0 -1.0
  outer loop
    vertex 144.46306869575338 2.85367531689221 0.0
    vertex 144.46306869575307 29.47941417606869 0.0
    vertex 144.47673580610706 29.375602196774924 0.0
  endloop
endfacet
facet normal 0.0 0.0 -1.0
  outer loop
    vertex 144.46306869575338 2.85367531689221 0.0
    vertex 144.47673580610706 29.375602196774924 0.0
    vertex 144.47673580610706 2.9574884882789756 0.0
  endloop
endfacet
facet normal 0.0 0.0 -1.0
  outer loop
    vertex 144.47673580610706 2.9574884882789756 0.0
    vertex 144.47673580610706 29.375602196774924 0.0
    vertex 144.48495108472724 29.27121729763557 0.0
  endloop
endfacet
facet normal 0.0 0.0 -1.0
  outer loop
    vertex 144.47673580610706 2.9574884882789756 0.0
    vertex 144.48495108472724 29.27121729763557 0.0
    vertex 144.48495108472704 3.0618738642553316 0.0
  endloop
endfacet
facet normal 0.0 0.0 -1.0
  outer loop
    vertex 144.48495108472704 3.0618738642553316 0.0
    vertex 144.48495108472724 29.27121729763557 0.0
    vertex 144.48769201525982 3.1665453425268346 0.0
  endloop
endfacet
facet normal 0.0 0.0 -1.0
  outer loop
    vertex 144.48769201525982 3.1665453425268346 0.0
    vertex 144.48495108472724 29.27121729763557 0.0
    vertex 144.48769201525982 29.16654534252683 0.0
  endloop
endfacet
endsolid Pinadapter
