solid Pinadapter
facet normal 4.290084633997691e-30 1.0 -5.111189249618064e-15
  outer loop
    vertex 41.886813648096634 16.59758269217205 3.000000000000111
    vertex 43.88681364809663 16.59758269217204 1.0000000000001126
    vertex 41.886813648096634 16.59758269217204 1.0000000000001108
  endloop
endfacet
facet normal 4.290084633997691e-30 1.0 -5.111189249618064e-15
  outer loop
    vertex 43.88681364809663 16.59758269217204 1.0000000000001126
    vertex 41.886813648096634 16.59758269217205 3.000000000000111
    vertex 43.88681364809663 16.59758269217205 3.0000000000001124
  endloop
endfacet
facet normal 1.6376015380192315e-15 -1.0 6.902345933326868e-15
  outer loop
    vertex 43.88681364809663 12.397582692172055 3.000000000000114
    vertex 41.68681364809663 12.397582692172039 1.022533
    vertex 43.88681364809663 12.397582692172048 1.0000000000001135
  endloop
endfacet
facet normal 1.6376015380192315e-15 -1.0 6.902345933326868e-15
  outer loop
    vertex 41.68681364809663 12.397582692172039 1.022533
    vertex 43.88681364809663 12.397582692172055 3.000000000000114
    vertex 41.68681364809663 12.397582692172055 3.000000000000113
  endloop
endfacet
facet normal -3.461537790478362e-28 1.0 -5.639932965095794e-15
  outer loop
    vertex 55.88681364809665 10.797592692172131 1.0000000000001614
    vertex 58.38681364809663 10.797592692172143 3.000000000000008
    vertex 58.38681364809663 10.797592692172131 1.0000000000000082
  endloop
endfacet
facet normal -3.461537790478362e-28 1.0 -5.639932965095794e-15
  outer loop
    vertex 58.38681364809663 10.797592692172143 3.000000000000008
    vertex 55.88681364809665 10.797592692172131 1.0000000000001614
    vertex 55.88681364809665 10.797592692172143 3.0000000000001616
  endloop
endfacet
facet normal -1.0 0.0 0.0
  outer loop
    vertex 58.38681364809663 10.797592692172143 3.000000000000008
    vertex 58.38681364809663 28.197582692172016 1.0000000000000082
    vertex 58.38681364809663 10.797592692172131 1.0000000000000082
  endloop
endfacet
facet normal -1.0 0.0 0.0
  outer loop
    vertex 58.38681364809663 28.197582692172016 1.0000000000000082
    vertex 58.38681364809663 10.797592692172143 3.000000000000008
    vertex 58.38681364809663 28.19758269217203 3.000000000000008
  endloop
endfacet
facet normal 1.0 0.0 0.0
  outer loop
    vertex 40.18681364809666 29.897582692172033 3.0225329999998882
    vertex 40.18681364809666 26.797582692172117 4.022532999999887
    vertex 40.18681364809666 26.79758269217211 3.0225329999999024
  endloop
endfacet
facet normal 1.0 0.0 0.0
  outer loop
    vertex 40.18681364809666 26.797582692172117 4.022532999999887
    vertex 40.18681364809666 29.897582692172033 3.0225329999998882
    vertex 40.18681364809666 29.897582692172033 4.022532999999887
  endloop
endfacet
facet normal 1.0 7.336316050146287e-12 8.948194724490284e-11
  outer loop
    vertex 60.88681364809664 31.19758269217199 -0.5000000000000082
    vertex 60.88681364809664 0.797592692172105 4.022532999999932
    vertex 60.88681364809664 0.797592692172105 -0.4774670000000688
  endloop
endfacet
facet normal 1.0 7.336316050146287e-12 8.948194724490284e-11
  outer loop
    vertex 60.88681364809664 0.797592692172105 4.022532999999932
    vertex 60.88681364809664 31.19758269217199 -0.5000000000000082
    vertex 60.88681364809664 31.19758269217199 3.999999999999992
  endloop
endfacet
facet normal 6.5878068865502815e-31 -1.0 5.6399329650957925e-15
  outer loop
    vertex 58.38681364809663 28.19758269217203 3.000000000000008
    vertex 44.38681364809665 28.197582692172016 1.0000000000000095
    vertex 58.38681364809663 28.197582692172016 1.0000000000000082
  endloop
endfacet
facet normal 6.5878068865502815e-31 -1.0 5.6399329650957925e-15
  outer loop
    vertex 44.38681364809665 28.197582692172016 1.0000000000000095
    vertex 58.38681364809663 28.19758269217203 3.000000000000008
    vertex 44.38681364809665 28.19758269217203 3.00000000000001
  endloop
endfacet
facet normal 1.0 -4.7211065030423657e-29 -2.819966482547897e-15
  outer loop
    vertex 41.886813648096634 21.19758269217202 1.0000000000000338
    vertex 41.886813648096634 16.59758269217205 3.000000000000111
    vertex 41.886813648096634 16.59758269217204 1.0000000000001108
  endloop
endfacet
facet normal 1.0 -4.7211065030423657e-29 -2.819966482547897e-15
  outer loop
    vertex 41.886813648096634 16.59758269217205 3.000000000000111
    vertex 41.886813648096634 21.19758269217202 1.0000000000000338
    vertex 41.886813648096634 21.19758269217203 3.000000000000034
  endloop
endfacet
facet normal -8.082932855216343e-31 1.0 -5.639932965095794e-15
  outer loop
    vertex 41.68681364809663 3.297592692172129 1.0000000000001572
    vertex 46.38681364809665 3.29759269217214 3.0000000000001568
    vertex 46.38681364809665 3.297592692172129 1.0000000000001565
  endloop
endfacet
facet normal -8.082932855216343e-31 1.0 -5.639932965095794e-15
  outer loop
    vertex 46.38681364809665 3.29759269217214 3.0000000000001568
    vertex 41.68681364809663 3.297592692172129 1.0000000000001572
    vertex 41.68681364809663 3.29759269217214 3.000000000000157
  endloop
endfacet
facet normal -0.9999998777214093 -0.00014445182353029225 0.0004729596568524786
  outer loop
    vertex 34.79629760681365 0.800419225781061 4.033212181472003
    vertex 34.786813648096626 31.19758269217199 -0.5000000000000046
    vertex 34.786813648096626 0.797592692172105 -0.477467000000044
  endloop
endfacet
facet normal -0.9999998777214093 -0.00014445182353029225 0.0004729596568524786
  outer loop
    vertex 34.786813648096626 31.19758269217199 -0.5000000000000046
    vertex 34.79629760681365 0.800419225781061 4.033212181472003
    vertex 34.786813648096626 31.19758269217199 4.022533000000112
  endloop
endfacet
facet normal 1.0 2.8278073005261598e-30 -2.819966482547897e-15
  outer loop
    vertex 44.38681364809665 28.197582692172016 1.0000000000000095
    vertex 44.38681364809665 21.19758269217203 3.000000000000003
    vertex 44.38681364809665 21.19758269217202 1.0000000000000027
  endloop
endfacet
facet normal 1.0 2.8278073005261598e-30 -2.819966482547897e-15
  outer loop
    vertex 44.38681364809665 21.19758269217203 3.000000000000003
    vertex 44.38681364809665 28.197582692172016 1.0000000000000095
    vertex 44.38681364809665 28.19758269217203 3.00000000000001
  endloop
endfacet
facet normal 7.022315758959021e-29 -1.0 5.639932965095796e-15
  outer loop
    vertex 44.38681364809665 21.19758269217203 3.000000000000003
    vertex 41.886813648096634 21.19758269217202 1.0000000000000338
    vertex 44.38681364809665 21.19758269217202 1.0000000000000027
  endloop
endfacet
facet normal 7.022315758959021e-29 -1.0 5.639932965095796e-15
  outer loop
    vertex 41.886813648096634 21.19758269217202 1.0000000000000338
    vertex 44.38681364809665 21.19758269217203 3.000000000000003
    vertex 41.886813648096634 21.19758269217203 3.000000000000034
  endloop
endfacet
facet normal 0.0005598320465009321 0.000365802242652993 0.9999997763883746
  outer loop
    vertex 34.79629760681365 0.800419225781061 4.033212181472003
    vertex 41.68681364809663 2.0975926921721464 4.022532999999887
    vertex 36.086813648096644 14.697582692172125 4.022532999999887
  endloop
endfacet
facet normal 0.0005598320465009321 0.000365802242652993 0.9999997763883746
  outer loop
    vertex 41.68681364809663 2.0975926921721464 4.022532999999887
    vertex 34.79629760681365 0.800419225781061 4.033212181472003
    vertex 60.88681364809664 0.797592692172105 4.022532999999932
  endloop
endfacet
facet normal 0.0005598320465009321 0.000365802242652993 0.9999997763883746
  outer loop
    vertex 36.086813648096644 14.697582692172125 4.022532999999887
    vertex 41.68681364809663 2.0975926921721464 4.022532999999887
    vertex 40.18681364809666 12.397582692172039 4.022532999999887
  endloop
endfacet
facet normal 0.0005598320465009321 0.000365802242652993 0.9999997763883746
  outer loop
    vertex 41.68681364809663 2.0975926921721464 4.022532999999887
    vertex 60.88681364809664 0.797592692172105 4.022532999999932
    vertex 59.586813648096665 2.0975926921721366 4.022532999999887
  endloop
endfacet
facet normal 0.0005598320465009321 0.000365802242652993 0.9999997763883746
  outer loop
    vertex 59.586813648096665 2.0975926921721366 4.022532999999887
    vertex 60.88681364809664 0.797592692172105 4.022532999999932
    vertex 59.586813648096665 29.897582692172033 4.022532999999887
  endloop
endfacet
facet normal 0.0005598320465009321 0.000365802242652993 0.9999997763883746
  outer loop
    vertex 34.786813648096626 31.19758269217199 4.022533000000112
    vertex 40.18681364809666 29.897582692172033 4.022532999999887
    vertex 60.88681364809664 31.19758269217199 3.999999999999992
  endloop
endfacet
facet normal 0.0005598320465009321 0.000365802242652993 0.9999997763883746
  outer loop
    vertex 40.18681364809666 29.897582692172033 4.022532999999887
    vertex 34.786813648096626 31.19758269217199 4.022533000000112
    vertex 36.086813648096644 26.79758269217211 4.022532999999887
  endloop
endfacet
facet normal 0.0005598320465009321 0.000365802242652993 0.9999997763883746
  outer loop
    vertex 36.086813648096644 26.79758269217211 4.022532999999887
    vertex 34.786813648096626 31.19758269217199 4.022533000000112
    vertex 34.79629760681365 0.800419225781061 4.033212181472003
  endloop
endfacet
facet normal 0.0005598320465009321 0.000365802242652993 0.9999997763883746
  outer loop
    vertex 36.086813648096644 26.79758269217211 4.022532999999887
    vertex 34.79629760681365 0.800419225781061 4.033212181472003
    vertex 36.086813648096644 14.697582692172125 4.022532999999887
  endloop
endfacet
facet normal 0.0005598320465009321 0.000365802242652993 0.9999997763883746
  outer loop
    vertex 40.18681364809666 29.897582692172033 4.022532999999887
    vertex 36.086813648096644 26.79758269217211 4.022532999999887
    vertex 40.18681364809666 26.797582692172117 4.022532999999887
  endloop
endfacet
facet normal 0.0005598320465009321 0.000365802242652993 0.9999997763883746
  outer loop
    vertex 60.88681364809664 31.19758269217199 3.999999999999992
    vertex 40.18681364809666 29.897582692172033 4.022532999999887
    vertex 59.586813648096665 29.897582692172033 4.022532999999887
  endloop
endfacet
facet normal 0.0005598320465009321 0.000365802242652993 0.9999997763883746
  outer loop
    vertex 60.88681364809664 31.19758269217199 3.999999999999992
    vertex 59.586813648096665 29.897582692172033 4.022532999999887
    vertex 60.88681364809664 0.797592692172105 4.022532999999932
  endloop
endfacet
facet normal 0.0005598320465009321 0.000365802242652993 0.9999997763883746
  outer loop
    vertex 41.68681364809663 12.397582692172039 4.022532999999887
    vertex 40.18681364809666 12.397582692172039 4.022532999999887
    vertex 41.68681364809663 2.0975926921721464 4.022532999999887
  endloop
endfacet
facet normal 0.0005598320465009321 0.000365802242652993 0.9999997763883746
  outer loop
    vertex 40.18681364809666 14.697582692172121 4.022532999999887
    vertex 36.086813648096644 14.697582692172125 4.022532999999887
    vertex 40.18681364809666 12.397582692172039 4.022532999999887
  endloop
endfacet
facet normal 0.0 -1.0 0.0
  outer loop
    vertex 59.586813648096665 29.897582692172033 4.022532999999887
    vertex 40.18681364809666 29.897582692172033 3.0225329999998882
    vertex 59.586813648096665 29.897582692172033 3.022532999999887
  endloop
endfacet
facet normal 0.0 -1.0 0.0
  outer loop
    vertex 40.18681364809666 29.897582692172033 3.0225329999998882
    vertex 59.586813648096665 29.897582692172033 4.022532999999887
    vertex 40.18681364809666 29.897582692172033 4.022532999999887
  endloop
endfacet
facet normal -2.8632637537925912e-15 1.0 1.1656809290792317e-14
  outer loop
    vertex 40.18681364809666 12.397582692172048 3.0225329999999997
    vertex 41.68681364809663 12.397582692172039 4.022532999999887
    vertex 41.68681364809663 12.397582692172055 3.000000000000113
  endloop
endfacet
facet normal -2.8632637537925912e-15 1.0 1.1656809290792317e-14
  outer loop
    vertex 41.68681364809663 12.397582692172039 4.022532999999887
    vertex 40.18681364809666 12.397582692172048 3.0225329999999997
    vertex 40.18681364809666 12.397582692172039 4.022532999999887
  endloop
endfacet
facet normal 2.7569504717647047e-16 1.0 2.1149748619112684e-15
  outer loop
    vertex 41.68681364809663 2.0975926921721437 3.0225330000000503
    vertex 59.586813648096665 2.0975926921721366 4.022532999999887
    vertex 59.586813648096665 2.0975926921721437 3.022533000000049
  endloop
endfacet
facet normal 2.7569504717647047e-16 1.0 2.1149748619112684e-15
  outer loop
    vertex 59.586813648096665 2.0975926921721366 4.022532999999887
    vertex 41.68681364809663 2.0975926921721437 3.0225330000000503
    vertex 41.68681364809663 2.0975926921721464 4.022532999999887
  endloop
endfacet
facet normal 1.0 0.0 0.0
  outer loop
    vertex 36.086813648096644 26.79758269217211 3.0225329999999024
    vertex 36.086813648096644 14.697582692172125 4.022532999999887
    vertex 36.086813648096644 14.697582692172121 3.022532999999987
  endloop
endfacet
facet normal 1.0 0.0 0.0
  outer loop
    vertex 36.086813648096644 14.697582692172125 4.022532999999887
    vertex 36.086813648096644 26.79758269217211 3.0225329999999024
    vertex 36.086813648096644 26.79758269217211 4.022532999999887
  endloop
endfacet
facet normal 4.628622792969499e-16 1.0 -1.7863988374797446e-15
  outer loop
    vertex 36.086813648096644 14.697582692172125 4.022532999999887
    vertex 40.18681364809666 14.697582692172121 3.022532999999987
    vertex 36.086813648096644 14.697582692172121 3.022532999999987
  endloop
endfacet
facet normal 4.628622792969499e-16 1.0 -1.7863988374797446e-15
  outer loop
    vertex 40.18681364809666 14.697582692172121 3.022532999999987
    vertex 36.086813648096644 14.697582692172125 4.022532999999887
    vertex 40.18681364809666 14.697582692172121 4.022532999999887
  endloop
endfacet
facet normal 3.3611702926224295e-16 -1.0 1.3144071064225287e-15
  outer loop
    vertex 40.18681364809666 26.797582692172117 4.022532999999887
    vertex 36.086813648096644 26.79758269217211 3.0225329999999024
    vertex 40.18681364809666 26.79758269217211 3.0225329999999024
  endloop
endfacet
facet normal 3.3611702926224295e-16 -1.0 1.3144071064225287e-15
  outer loop
    vertex 36.086813648096644 26.79758269217211 3.0225329999999024
    vertex 40.18681364809666 26.797582692172117 4.022532999999887
    vertex 36.086813648096644 26.79758269217211 4.022532999999887
  endloop
endfacet
facet normal -1.0 3.2881197698170855e-29 1.1279865930192502e-14
  outer loop
    vertex 59.586813648096665 29.897582692172033 4.022532999999887
    vertex 59.586813648096665 2.0975926921721437 3.022533000000049
    vertex 59.586813648096665 2.0975926921721366 4.022532999999887
  endloop
endfacet
facet normal -1.0 3.2881197698170855e-29 1.1279865930192502e-14
  outer loop
    vertex 59.586813648096665 2.0975926921721437 3.022533000000049
    vertex 59.586813648096665 29.897582692172033 4.022532999999887
    vertex 59.586813648096665 29.897582692172033 3.022532999999887
  endloop
endfacet
facet normal -1.0 1.4507815876222628e-29 2.819966482547897e-15
  outer loop
    vertex 46.38681364809665 3.29759269217214 3.0000000000001568
    vertex 46.38681364809665 4.9154766921721285 1.000000000000148
    vertex 46.38681364809665 3.297592692172129 1.0000000000001565
  endloop
endfacet
facet normal -1.0 1.4507815876222628e-29 2.819966482547897e-15
  outer loop
    vertex 46.38681364809665 4.9154766921721285 1.000000000000148
    vertex 46.38681364809665 3.29759269217214 3.0000000000001568
    vertex 46.38681364809665 4.91547669217214 3.0000000000001488
  endloop
endfacet
facet normal 1.0 7.660485089763595e-32 -2.8199664825478975e-15
  outer loop
    vertex 43.88681364809663 16.59758269217204 1.0000000000001126
    vertex 43.88681364809663 12.397582692172055 3.000000000000114
    vertex 43.88681364809663 12.397582692172048 1.0000000000001135
  endloop
endfacet
facet normal 1.0 7.660485089763595e-32 -2.8199664825478975e-15
  outer loop
    vertex 43.88681364809663 12.397582692172055 3.000000000000114
    vertex 43.88681364809663 16.59758269217204 1.0000000000001126
    vertex 43.88681364809663 16.59758269217205 3.0000000000001124
  endloop
endfacet
facet normal 1.0 -1.838059420472469e-16 -1.9633249014852145e-15
  outer loop
    vertex 41.68681364809663 12.397582692172039 1.022533
    vertex 41.68681364809663 3.29759269217214 3.000000000000157
    vertex 41.68681364809663 3.297592692172129 1.0000000000001572
  endloop
endfacet
facet normal 1.0 -1.838059420472469e-16 -1.9633249014852145e-15
  outer loop
    vertex 41.68681364809663 3.29759269217214 3.000000000000157
    vertex 41.68681364809663 2.0975926921721464 4.022532999999887
    vertex 41.68681364809663 2.0975926921721437 3.0225330000000503
  endloop
endfacet
facet normal 1.0 -1.838059420472469e-16 -1.9633249014852145e-15
  outer loop
    vertex 41.68681364809663 2.0975926921721464 4.022532999999887
    vertex 41.68681364809663 3.29759269217214 3.000000000000157
    vertex 41.68681364809663 12.397582692172039 4.022532999999887
  endloop
endfacet
facet normal 1.0 -1.838059420472469e-16 -1.9633249014852145e-15
  outer loop
    vertex 41.68681364809663 12.397582692172039 4.022532999999887
    vertex 41.68681364809663 3.29759269217214 3.000000000000157
    vertex 41.68681364809663 12.397582692172039 1.022533
  endloop
endfacet
facet normal 1.0 -1.838059420472469e-16 -1.9633249014852145e-15
  outer loop
    vertex 41.68681364809663 12.397582692172039 4.022532999999887
    vertex 41.68681364809663 12.397582692172039 1.022533
    vertex 41.68681364809663 12.397582692172055 3.000000000000113
  endloop
endfacet
facet normal 1.0 0.0 0.0
  outer loop
    vertex 40.18681364809666 12.397582692172048 3.0225329999999997
    vertex 40.18681364809666 14.697582692172121 4.022532999999887
    vertex 40.18681364809666 12.397582692172039 4.022532999999887
  endloop
endfacet
facet normal 1.0 0.0 0.0
  outer loop
    vertex 40.18681364809666 14.697582692172121 4.022532999999887
    vertex 40.18681364809666 12.397582692172048 3.0225329999999997
    vertex 40.18681364809666 14.697582692172121 3.022532999999987
  endloop
endfacet
facet normal 0.0 1.0 0.0
  outer loop
    vertex 34.786813648096626 31.19758269217199 -0.5000000000000046
    vertex 60.88681364809664 31.19758269217199 3.999999999999992
    vertex 60.88681364809664 31.19758269217199 -0.5000000000000082
  endloop
endfacet
facet normal 0.0 1.0 0.0
  outer loop
    vertex 60.88681364809664 31.19758269217199 3.999999999999992
    vertex 34.786813648096626 31.19758269217199 -0.5000000000000046
    vertex 34.786813648096626 31.19758269217199 4.022533000000112
  endloop
endfacet
facet normal -5.3919776367162666e-05 -0.9999999470163031 0.0003210296697060395
  outer loop
    vertex 60.88681364809664 0.797592692172105 4.022532999999932
    vertex 34.786813648096626 0.797592692172105 -0.477467000000044
    vertex 60.88681364809664 0.797592692172105 -0.4774670000000688
  endloop
endfacet
facet normal -5.3919776367162666e-05 -0.9999999470163031 0.0003210296697060395
  outer loop
    vertex 34.786813648096626 0.797592692172105 -0.477467000000044
    vertex 60.88681364809664 0.797592692172105 4.022532999999932
    vertex 34.79629760681365 0.800419225781061 4.033212181472003
  endloop
endfacet
facet normal 8.309439189533317e-32 1.0 -5.639932965095795e-15
  outer loop
    vertex 46.38681364809665 4.91547669217214 3.0000000000001488
    vertex 50.38681364809664 4.9154766921721285 1.000000000000148
    vertex 46.38681364809665 4.9154766921721285 1.000000000000148
  endloop
endfacet
facet normal 8.309439189533317e-32 1.0 -5.639932965095795e-15
  outer loop
    vertex 50.38681364809664 4.9154766921721285 1.000000000000148
    vertex 46.38681364809665 4.91547669217214 3.0000000000001488
    vertex 50.38681364809664 4.91547669217214 3.0000000000001488
  endloop
endfacet
facet normal -1.0 0.0 0.0
  outer loop
    vertex 50.38681364809664 4.91547669217214 3.0000000000001488
    vertex 50.38681364809664 6.297592692172128 1.0000000000001479
    vertex 50.38681364809664 4.9154766921721285 1.000000000000148
  endloop
endfacet
facet normal -1.0 0.0 0.0
  outer loop
    vertex 50.38681364809664 6.297592692172128 1.0000000000001479
    vertex 50.38681364809664 4.91547669217214 3.0000000000001488
    vertex 50.38681364809664 6.29759269217214 3.0000000000001483
  endloop
endfacet
facet normal -0.9599999999291675 0.27999999997934755 1.2147588995078654e-05
  outer loop
    vertex 55.38681364809663 6.29759269217214 3.0000000000001545
    vertex 55.036805753541934 5.097608141688969 2.0200000001537446
    vertex 55.03681364809662 5.0975926921721335 3.0000000000001665
  endloop
endfacet
facet normal -0.9599999999291675 0.27999999997934755 1.2147588995078654e-05
  outer loop
    vertex 55.036805753541934 5.097608141688969 2.0200000001537446
    vertex 55.38681364809663 6.29759269217214 3.0000000000001545
    vertex 55.38680575354194 6.2976081416889755 2.0200000001537326
  endloop
endfacet
facet normal -0.9914474774848314 0.13050631925217948 4.920645350016084e-06
  outer loop
    vertex 55.03681364809662 5.0975926921721335 3.0000000000001665
    vertex 55.00444318307125 4.8517145993247395 2.0000000000001665
    vertex 55.00444318307125 4.8517145993247395 3.0000000000001665
  endloop
endfacet
facet normal -0.9914474774848314 0.13050631925217948 4.920645350016084e-06
  outer loop
    vertex 55.00444318307125 4.8517145993247395 2.0000000000001665
    vertex 55.03681364809662 5.0975926921721335 3.0000000000001665
    vertex 55.036805753541934 5.097608141688969 2.0200000001537446
  endloop
endfacet
facet normal -0.001951087424739954 -0.009979829076105493 0.9999482967981259
  outer loop
    vertex 53.26408951450141 4.622592692172135 2.0000000000001665
    vertex 53.23681364809662 5.0975926921721335 2.0000000000001665
    vertex 53.16918411312201 4.85171459932474 2.0000000000001665
  endloop
endfacet
facet normal -0.001951087424739954 -0.009979829076105493 0.9999482967981259
  outer loop
    vertex 53.23681364809662 5.0975926921721335 2.0000000000001665
    vertex 53.26408951450141 4.622592692172135 2.0000000000001665
    vertex 53.26577669575093 4.877596503834993 2.0000000000001745
  endloop
endfacet
facet normal -0.001951087424739954 -0.009979829076105493 0.9999482967981259
  outer loop
    vertex 53.26577669575093 4.877596503834993 2.0000000000001745
    vertex 53.26408951450141 4.622592692172135 2.0000000000001665
    vertex 53.41506220596942 4.425841250044916 2.0000000000001665
  endloop
endfacet
facet normal -0.001951087424739954 -0.009979829076105493 0.9999482967981259
  outer loop
    vertex 53.26577669575093 4.877596503834993 2.0000000000001745
    vertex 53.41506220596942 4.425841250044916 2.0000000000001665
    vertex 53.350692054879865 4.672592692172135 2.000000000000182
  endloop
endfacet
facet normal -0.001951087424739954 -0.009979829076105493 0.9999482967981259
  outer loop
    vertex 53.350692054879865 4.672592692172135 2.000000000000182
    vertex 53.41506220596942 4.425841250044916 2.0000000000001665
    vertex 53.40824157897825 4.597592692172172 2.0000000000001847
  endloop
endfacet
facet normal -0.001951087424739954 -0.009979829076105493 0.9999482967981259
  outer loop
    vertex 53.40824157897825 4.597592692172172 2.0000000000001847
    vertex 53.41506220596942 4.425841250044916 2.0000000000001665
    vertex 53.48577288408804 4.49655192816357 2.0000000000001887
  endloop
endfacet
facet normal -0.001951087424739954 -0.009979829076105493 0.9999482967981259
  outer loop
    vertex 53.48577288408804 4.49655192816357 2.0000000000001887
    vertex 53.41506220596942 4.425841250044916 2.0000000000001665
    vertex 53.61181364809663 4.274868558576919 2.0000000000001665
  endloop
endfacet
facet normal -0.001951087424739954 -0.009979829076105493 0.9999482967981259
  outer loop
    vertex 53.48577288408804 4.49655192816357 2.0000000000001887
    vertex 53.61181364809663 4.274868558576919 2.0000000000001665
    vertex 53.66181364809662 4.361471098955363 2.0000000000001936
  endloop
endfacet
facet normal -0.001951087424739954 -0.009979829076105493 0.9999482967981259
  outer loop
    vertex 53.66181364809662 4.361471098955363 2.0000000000001936
    vertex 53.61181364809663 4.274868558576919 2.0000000000001665
    vertex 53.8409355552492 4.1799631571975215 2.0000000000001665
  endloop
endfacet
facet normal -0.001951087424739954 -0.009979829076105493 0.9999482967981259
  outer loop
    vertex 53.66181364809662 4.361471098955363 2.0000000000001936
    vertex 53.8409355552492 4.1799631571975215 2.0000000000001665
    vertex 53.86681745975945 4.276555739826428 2.0000000000001967
  endloop
endfacet
facet normal -0.001951087424739954 -0.009979829076105493 0.9999482967981259
  outer loop
    vertex 53.86681745975945 4.276555739826428 2.0000000000001967
    vertex 53.8409355552492 4.1799631571975215 2.0000000000001665
    vertex 54.08681364809661 4.147592692172135 2.0000000000001665
  endloop
endfacet
facet normal -0.001951087424739954 -0.009979829076105493 0.9999482967981259
  outer loop
    vertex 53.86681745975945 4.276555739826428 2.0000000000001967
    vertex 54.08681364809661 4.147592692172135 2.0000000000001665
    vertex 54.08681364809661 4.247592692172136 2.0000000000001976
  endloop
endfacet
facet normal -0.001951087424739954 -0.009979829076105493 0.9999482967981259
  outer loop
    vertex 54.08681364809661 4.247592692172136 2.0000000000001976
    vertex 54.08681364809661 4.147592692172135 2.0000000000001665
    vertex 54.332691740944014 4.17996315719752 2.0000000000001665
  endloop
endfacet
facet normal -0.001951087424739954 -0.009979829076105493 0.9999482967981259
  outer loop
    vertex 54.08681364809661 4.247592692172136 2.0000000000001976
    vertex 54.332691740944014 4.17996315719752 2.0000000000001665
    vertex 54.306809836433764 4.276555739826428 2.0000000000001967
  endloop
endfacet
facet normal -0.001951087424739954 -0.009979829076105493 0.9999482967981259
  outer loop
    vertex 54.306809836433764 4.276555739826428 2.0000000000001967
    vertex 54.332691740944014 4.17996315719752 2.0000000000001665
    vertex 54.511813648096606 4.361471098955362 2.0000000000001936
  endloop
endfacet
facet normal -0.001951087424739954 -0.009979829076105493 0.9999482967981259
  outer loop
    vertex 54.511813648096606 4.361471098955362 2.0000000000001936
    vertex 54.332691740944014 4.17996315719752 2.0000000000001665
    vertex 54.56181364809664 4.274868558576918 2.0000000000001665
  endloop
endfacet
facet normal -0.001951087424739954 -0.009979829076105493 0.9999482967981259
  outer loop
    vertex 54.511813648096606 4.361471098955362 2.0000000000001936
    vertex 54.56181364809664 4.274868558576918 2.0000000000001665
    vertex 54.68785441210518 4.496551928163569 2.0000000000001887
  endloop
endfacet
facet normal -0.001951087424739954 -0.009979829076105493 0.9999482967981259
  outer loop
    vertex 54.68785441210518 4.496551928163569 2.0000000000001887
    vertex 54.56181364809664 4.274868558576918 2.0000000000001665
    vertex 54.75856509022385 4.425841250044915 2.0000000000001665
  endloop
endfacet
facet normal -0.001951087424739954 -0.009979829076105493 0.9999482967981259
  outer loop
    vertex 54.68785441210518 4.496551928163569 2.0000000000001887
    vertex 54.75856509022385 4.425841250044915 2.0000000000001665
    vertex 54.76538571721501 4.597592692172172 2.0000000000001847
  endloop
endfacet
facet normal -0.001951087424739954 -0.009979829076105493 0.9999482967981259
  outer loop
    vertex 54.76538571721501 4.597592692172172 2.0000000000001847
    vertex 54.75856509022385 4.425841250044915 2.0000000000001665
    vertex 54.90953778169186 4.622592692172135 2.0000000000001665
  endloop
endfacet
facet normal -0.001951087424739954 -0.009979829076105493 0.9999482967981259
  outer loop
    vertex 54.76538571721501 4.597592692172172 2.0000000000001847
    vertex 54.90953778169186 4.622592692172135 2.0000000000001665
    vertex 54.8229352413134 4.672592692172135 2.000000000000182
  endloop
endfacet
facet normal -0.001951087424739954 -0.009979829076105493 0.9999482967981259
  outer loop
    vertex 54.8229352413134 4.672592692172135 2.000000000000182
    vertex 54.90953778169186 4.622592692172135 2.0000000000001665
    vertex 54.90785060044233 4.877596503834991 2.0000000000001745
  endloop
endfacet
facet normal -0.001951087424739954 -0.009979829076105493 0.9999482967981259
  outer loop
    vertex 54.90785060044233 4.877596503834991 2.0000000000001745
    vertex 54.90953778169186 4.622592692172135 2.0000000000001665
    vertex 54.936813648096646 5.0975926921721335 2.0000000000001665
  endloop
endfacet
facet normal -0.001951087424739954 -0.009979829076105493 0.9999482967981259
  outer loop
    vertex 54.936813648096646 5.0975926921721335 2.0000000000001665
    vertex 54.90953778169186 4.622592692172135 2.0000000000001665
    vertex 55.00444318307125 4.8517145993247395 2.0000000000001665
  endloop
endfacet
facet normal -0.001951087424739954 -0.009979829076105493 0.9999482967981259
  outer loop
    vertex 52.78680575354195 6.297608130048337 2.020060092338815
    vertex 53.86681745975945 5.91862964451784 2.000000000000137
    vertex 55.38680575354194 6.2976081416889755 2.0200000001537326
  endloop
endfacet
facet normal -0.001951087424739954 -0.009979829076105493 0.9999482967981259
  outer loop
    vertex 53.86681745975945 5.91862964451784 2.000000000000137
    vertex 52.78680575354195 6.297608130048337 2.020060092338815
    vertex 53.66181364809662 5.833714285388906 2.0000000000001394
  endloop
endfacet
facet normal -0.001951087424739954 -0.009979829076105493 0.9999482967981259
  outer loop
    vertex 53.66181364809662 5.833714285388906 2.0000000000001394
    vertex 52.78680575354195 6.297608130048337 2.020060092338815
    vertex 53.48577288408804 5.698633456180699 2.0000000000001443
  endloop
endfacet
facet normal -0.001951087424739954 -0.009979829076105493 0.9999482967981259
  outer loop
    vertex 53.48577288408804 5.698633456180699 2.0000000000001443
    vertex 52.78680575354195 6.297608130048337 2.020060092338815
    vertex 53.350692054879865 5.522592692172133 2.000000000000151
  endloop
endfacet
facet normal -0.001951087424739954 -0.009979829076105493 0.9999482967981259
  outer loop
    vertex 53.350692054879865 5.522592692172133 2.000000000000151
    vertex 52.78680575354195 6.297608130048337 2.020060092338815
    vertex 53.1368136480966 5.0975926921721335 2.0000000000001665
  endloop
endfacet
facet normal -0.001951087424739954 -0.009979829076105493 0.9999482967981259
  outer loop
    vertex 53.350692054879865 5.522592692172133 2.000000000000151
    vertex 53.1368136480966 5.0975926921721335 2.0000000000001665
    vertex 53.26577669575093 5.317588880509277 2.0000000000001585
  endloop
endfacet
facet normal -0.001951087424739954 -0.009979829076105493 0.9999482967981259
  outer loop
    vertex 53.26577669575093 5.317588880509277 2.0000000000001585
    vertex 53.1368136480966 5.0975926921721335 2.0000000000001665
    vertex 53.16918411312201 4.85171459932474 2.0000000000001665
  endloop
endfacet
facet normal -0.001951087424739954 -0.009979829076105493 0.9999482967981259
  outer loop
    vertex 53.26577669575093 5.317588880509277 2.0000000000001585
    vertex 53.16918411312201 4.85171459932474 2.0000000000001665
    vertex 53.23681364809662 5.0975926921721335 2.0000000000001665
  endloop
endfacet
facet normal -0.001951087424739954 -0.009979829076105493 0.9999482967981259
  outer loop
    vertex 53.48577288408804 5.698633456180699 2.0000000000001443
    vertex 53.350692054879865 5.522592692172133 2.000000000000151
    vertex 53.40824157897825 5.597592692172096 2.0000000000001483
  endloop
endfacet
facet normal -0.001951087424739954 -0.009979829076105493 0.9999482967981259
  outer loop
    vertex 55.38680575354194 6.2976081416889755 2.0200000001537326
    vertex 53.86681745975945 5.91862964451784 2.000000000000137
    vertex 54.08681364809661 5.947592692172132 2.0000000000001354
  endloop
endfacet
facet normal -0.001951087424739954 -0.009979829076105493 0.9999482967981259
  outer loop
    vertex 55.38680575354194 6.2976081416889755 2.0200000001537326
    vertex 54.08681364809661 5.947592692172132 2.0000000000001354
    vertex 54.306809836433764 5.91862964451784 2.000000000000137
  endloop
endfacet
facet normal -0.001951087424739954 -0.009979829076105493 0.9999482967981259
  outer loop
    vertex 55.38680575354194 6.2976081416889755 2.0200000001537326
    vertex 54.306809836433764 5.91862964451784 2.000000000000137
    vertex 54.51181364809665 5.833714285388904 2.0000000000001394
  endloop
endfacet
facet normal -0.001951087424739954 -0.009979829076105493 0.9999482967981259
  outer loop
    vertex 55.38680575354194 6.2976081416889755 2.0200000001537326
    vertex 54.51181364809665 5.833714285388904 2.0000000000001394
    vertex 54.68785441210518 5.698633456180699 2.0000000000001443
  endloop
endfacet
facet normal -0.001951087424739954 -0.009979829076105493 0.9999482967981259
  outer loop
    vertex 55.38680575354194 6.2976081416889755 2.0200000001537326
    vertex 54.68785441210518 5.698633456180699 2.0000000000001443
    vertex 54.76538571721501 5.597592692172096 2.0000000000001483
  endloop
endfacet
facet normal -0.001951087424739954 -0.009979829076105493 0.9999482967981259
  outer loop
    vertex 55.38680575354194 6.2976081416889755 2.0200000001537326
    vertex 54.76538571721501 5.597592692172096 2.0000000000001483
    vertex 54.8229352413134 5.522592692172133 2.000000000000151
  endloop
endfacet
facet normal -0.001951087424739954 -0.009979829076105493 0.9999482967981259
  outer loop
    vertex 55.38680575354194 6.2976081416889755 2.0200000001537326
    vertex 54.8229352413134 5.522592692172133 2.000000000000151
    vertex 54.90785060044233 5.317588880509277 2.0000000000001585
  endloop
endfacet
facet normal -0.001951087424739954 -0.009979829076105493 0.9999482967981259
  outer loop
    vertex 55.38680575354194 6.2976081416889755 2.0200000001537326
    vertex 54.90785060044233 5.317588880509277 2.0000000000001585
    vertex 54.936813648096646 5.0975926921721335 2.0000000000001665
  endloop
endfacet
facet normal -0.001951087424739954 -0.009979829076105493 0.9999482967981259
  outer loop
    vertex 55.38680575354194 6.2976081416889755 2.0200000001537326
    vertex 54.936813648096646 5.0975926921721335 2.0000000000001665
    vertex 55.036805753541934 5.097608141688969 2.0200000001537446
  endloop
endfacet
facet normal -0.001951087424739954 -0.009979829076105493 0.9999482967981259
  outer loop
    vertex 55.036805753541934 5.097608141688969 2.0200000001537446
    vertex 54.936813648096646 5.0975926921721335 2.0000000000001665
    vertex 55.00444318307125 4.8517145993247395 2.0000000000001665
  endloop
endfacet
facet normal 0.9599996312778739 0.2800012641823284 -1.6261109225427705e-06
  outer loop
    vertex 52.78680575354195 6.297608130048337 2.020060092338815
    vertex 53.1368136480966 5.0975926921721335 3.0000000000001665
    vertex 53.1368136480966 5.0975926921721335 2.0000000000001665
  endloop
endfacet
facet normal 0.9599996312778739 0.2800012641823284 -1.6261109225427705e-06
  outer loop
    vertex 53.1368136480966 5.0975926921721335 3.0000000000001665
    vertex 52.78680575354195 6.297608130048337 2.020060092338815
    vertex 52.78681364809663 6.297592680531502 3.0000600921852367
  endloop
endfacet
facet normal 0.9914448613737976 0.13052619222014974 1.0835932688830093e-18
  outer loop
    vertex 53.1368136480966 5.0975926921721335 2.0000000000001665
    vertex 53.16918411312201 4.85171459932474 3.0000000000001665
    vertex 53.16918411312201 4.85171459932474 2.0000000000001665
  endloop
endfacet
facet normal 0.9914448613737976 0.13052619222014974 1.0835932688830093e-18
  outer loop
    vertex 53.16918411312201 4.85171459932474 3.0000000000001665
    vertex 53.1368136480966 5.0975926921721335 2.0000000000001665
    vertex 53.1368136480966 5.0975926921721335 3.0000000000001665
  endloop
endfacet
facet normal -0.13052619222004183 0.9914448613738118 -1.0835932688978322e-18
  outer loop
    vertex 54.08681364809661 4.147592692172135 3.0000000000001665
    vertex 54.332691740944014 4.17996315719752 2.0000000000001665
    vertex 54.08681364809661 4.147592692172135 2.0000000000001665
  endloop
endfacet
facet normal -0.13052619222004183 0.9914448613738118 -1.0835932688978322e-18
  outer loop
    vertex 54.332691740944014 4.17996315719752 2.0000000000001665
    vertex 54.08681364809661 4.147592692172135 3.0000000000001665
    vertex 54.332691740944014 4.17996315719752 3.0000000000001665
  endloop
endfacet
facet normal -0.793353340291204 0.6087614290087614 -3.4683616725190693e-18
  outer loop
    vertex 54.90953778169186 4.622592692172135 3.0000000000001665
    vertex 54.75856509022385 4.425841250044915 2.0000000000001665
    vertex 54.75856509022385 4.425841250044915 3.0000000000001665
  endloop
endfacet
facet normal -0.793353340291204 0.6087614290087614 -3.4683616725190693e-18
  outer loop
    vertex 54.75856509022385 4.425841250044915 2.0000000000001665
    vertex 54.90953778169186 4.622592692172135 3.0000000000001665
    vertex 54.90953778169186 4.622592692172135 2.0000000000001665
  endloop
endfacet
facet normal -0.9238795325112911 0.3826834323650792 1.9019871163092392e-31
  outer loop
    vertex 55.00444318307125 4.8517145993247395 3.0000000000001665
    vertex 54.90953778169186 4.622592692172135 2.0000000000001665
    vertex 54.90953778169186 4.622592692172135 3.0000000000001665
  endloop
endfacet
facet normal -0.9238795325112911 0.3826834323650792 1.9019871163092392e-31
  outer loop
    vertex 54.90953778169186 4.622592692172135 2.0000000000001665
    vertex 55.00444318307125 4.8517145993247395 3.0000000000001665
    vertex 55.00444318307125 4.8517145993247395 2.0000000000001665
  endloop
endfacet
facet normal -0.6087614290087411 0.7933533402912195 -9.287691548234532e-30
  outer loop
    vertex 54.56181364809664 4.274868558576918 3.0000000000001665
    vertex 54.75856509022385 4.425841250044915 2.0000000000001665
    vertex 54.56181364809664 4.274868558576918 2.0000000000001665
  endloop
endfacet
facet normal -0.6087614290087411 0.7933533402912195 -9.287691548234532e-30
  outer loop
    vertex 54.75856509022385 4.425841250044915 2.0000000000001665
    vertex 54.56181364809664 4.274868558576918 3.0000000000001665
    vertex 54.75856509022385 4.425841250044915 3.0000000000001665
  endloop
endfacet
facet normal -0.38268343236506686 0.9238795325112964 0.0
  outer loop
    vertex 54.332691740944014 4.17996315719752 3.0000000000001665
    vertex 54.56181364809664 4.274868558576918 2.0000000000001665
    vertex 54.332691740944014 4.17996315719752 2.0000000000001665
  endloop
endfacet
facet normal -0.38268343236506686 0.9238795325112964 0.0
  outer loop
    vertex 54.56181364809664 4.274868558576918 2.0000000000001665
    vertex 54.332691740944014 4.17996315719752 3.0000000000001665
    vertex 54.56181364809664 4.274868558576918 3.0000000000001665
  endloop
endfacet
facet normal 0.7933533402912609 -0.6087614290086871 3.4839883851269915e-14
  outer loop
    vertex 53.48577288408804 5.6986334561805645 0.12253307542891093
    vertex 53.350692054879865 5.522592692172133 2.000000000000151
    vertex 53.350692054879865 5.5225926921720445 0.12253304184325932
  endloop
endfacet
facet normal 0.7933533402912609 -0.6087614290086871 3.4839883851269915e-14
  outer loop
    vertex 53.350692054879865 5.522592692172133 2.000000000000151
    vertex 53.48577288408804 5.6986334561805645 0.12253307542891093
    vertex 53.40824157897825 5.597592692172096 2.0000000000001483
  endloop
endfacet
facet normal 0.7933533402912609 -0.6087614290086871 3.4839883851269915e-14
  outer loop
    vertex 53.40824157897825 5.597592692172096 2.0000000000001483
    vertex 53.48577288408804 5.6986334561805645 0.12253307542891093
    vertex 53.48577288408804 5.698633456180699 2.0000000000001443
  endloop
endfacet
facet normal 0.793353340291305 0.6087614290086297 -3.260511678191801e-14
  outer loop
    vertex 53.35069205487991 4.672592692171984 0.12253302880478148
    vertex 53.48577288408804 4.49655192816357 2.0000000000001887
    vertex 53.48577288408804 4.496551928163467 0.12253306037338042
  endloop
endfacet
facet normal 0.793353340291305 0.6087614290086297 -3.260511678191801e-14
  outer loop
    vertex 53.48577288408804 4.49655192816357 2.0000000000001887
    vertex 53.35069205487991 4.672592692171984 0.12253302880478148
    vertex 53.40824157897825 4.597592692172172 2.0000000000001847
  endloop
endfacet
facet normal 0.793353340291305 0.6087614290086297 -3.260511678191801e-14
  outer loop
    vertex 53.40824157897825 4.597592692172172 2.0000000000001847
    vertex 53.35069205487991 4.672592692171984 0.12253302880478148
    vertex 53.350692054879865 4.672592692172135 2.000000000000182
  endloop
endfacet
facet normal -0.7933533402911793 -0.6087614290087935 3.899824640291391e-14
  outer loop
    vertex 54.8229352413134 5.522592692172133 2.000000000000151
    vertex 54.68785441210518 5.698633456180572 0.12253306037333529
    vertex 54.8229352413134 5.5225926921720285 0.12253302880474763
  endloop
endfacet
facet normal -0.7933533402911793 -0.6087614290087935 3.899824640291391e-14
  outer loop
    vertex 54.68785441210518 5.698633456180572 0.12253306037333529
    vertex 54.8229352413134 5.522592692172133 2.000000000000151
    vertex 54.76538571721501 5.597592692172096 2.0000000000001483
  endloop
endfacet
facet normal -0.7933533402911793 -0.6087614290087935 3.899824640291391e-14
  outer loop
    vertex 54.68785441210518 5.698633456180572 0.12253306037333529
    vertex 54.76538571721501 5.597592692172096 2.0000000000001483
    vertex 54.68785441210518 5.698633456180699 2.0000000000001443
  endloop
endfacet
facet normal -0.7933533402911989 0.608761429008768 -3.435638946701027e-14
  outer loop
    vertex 54.68785441210518 4.496551928163569 2.0000000000001887
    vertex 54.82293524131336 4.672592692171965 0.12253304184329315
    vertex 54.68785441210518 4.496551928163457 0.12253307542895604
  endloop
endfacet
facet normal -0.7933533402911989 0.608761429008768 -3.435638946701027e-14
  outer loop
    vertex 54.82293524131336 4.672592692171965 0.12253304184329315
    vertex 54.68785441210518 4.496551928163569 2.0000000000001887
    vertex 54.76538571721501 4.597592692172172 2.0000000000001847
  endloop
endfacet
facet normal -0.7933533402911989 0.608761429008768 -3.435638946701027e-14
  outer loop
    vertex 54.82293524131336 4.672592692171965 0.12253304184329315
    vertex 54.76538571721501 4.597592692172172 2.0000000000001847
    vertex 54.8229352413134 4.672592692172135 2.000000000000182
  endloop
endfacet
facet normal 0.6087614290087411 0.7933533402912195 9.287691548234532e-30
  outer loop
    vertex 53.41506220596942 4.425841250044916 3.0000000000001665
    vertex 53.61181364809663 4.274868558576919 2.0000000000001665
    vertex 53.41506220596942 4.425841250044916 2.0000000000001665
  endloop
endfacet
facet normal 0.6087614290087411 0.7933533402912195 9.287691548234532e-30
  outer loop
    vertex 53.61181364809663 4.274868558576919 2.0000000000001665
    vertex 53.41506220596942 4.425841250044916 3.0000000000001665
    vertex 53.61181364809663 4.274868558576919 3.0000000000001665
  endloop
endfacet
facet normal 0.9238795325112921 0.38268343236507724 0.0
  outer loop
    vertex 53.16918411312201 4.85171459932474 2.0000000000001665
    vertex 53.26408951450141 4.622592692172135 3.0000000000001665
    vertex 53.26408951450141 4.622592692172135 2.0000000000001665
  endloop
endfacet
facet normal 0.9238795325112921 0.38268343236507724 0.0
  outer loop
    vertex 53.26408951450141 4.622592692172135 3.0000000000001665
    vertex 53.16918411312201 4.85171459932474 2.0000000000001665
    vertex 53.16918411312201 4.85171459932474 3.0000000000001665
  endloop
endfacet
facet normal 0.7933533402912019 0.6087614290087641 3.468361672519362e-18
  outer loop
    vertex 53.26408951450141 4.622592692172135 2.0000000000001665
    vertex 53.41506220596942 4.425841250044916 3.0000000000001665
    vertex 53.41506220596942 4.425841250044916 2.0000000000001665
  endloop
endfacet
facet normal 0.7933533402912019 0.6087614290087641 3.468361672519362e-18
  outer loop
    vertex 53.41506220596942 4.425841250044916 3.0000000000001665
    vertex 53.26408951450141 4.622592692172135 2.0000000000001665
    vertex 53.26408951450141 4.622592692172135 3.0000000000001665
  endloop
endfacet
facet normal 0.13052619222004738 0.9914448613738109 2.568704801852005e-30
  outer loop
    vertex 53.8409355552492 4.1799631571975215 3.0000000000001665
    vertex 54.08681364809661 4.147592692172135 2.0000000000001665
    vertex 53.8409355552492 4.1799631571975215 2.0000000000001665
  endloop
endfacet
facet normal 0.13052619222004738 0.9914448613738109 2.568704801852005e-30
  outer loop
    vertex 54.08681364809661 4.147592692172135 2.0000000000001665
    vertex 53.8409355552492 4.1799631571975215 3.0000000000001665
    vertex 54.08681364809661 4.147592692172135 3.0000000000001665
  endloop
endfacet
facet normal 0.38268343236513125 0.9238795325112696 -6.086358772190394e-30
  outer loop
    vertex 53.61181364809663 4.274868558576919 3.0000000000001665
    vertex 53.8409355552492 4.1799631571975215 2.0000000000001665
    vertex 53.61181364809663 4.274868558576919 2.0000000000001665
  endloop
endfacet
facet normal 0.38268343236513125 0.9238795325112696 -6.086358772190394e-30
  outer loop
    vertex 53.8409355552492 4.1799631571975215 2.0000000000001665
    vertex 53.61181364809663 4.274868558576919 3.0000000000001665
    vertex 53.8409355552492 4.1799631571975215 3.0000000000001665
  endloop
endfacet
facet normal -0.5609311705074199 0.4302791897494246 -0.7072595286185648
  outer loop
    vertex 54.82293524131336 4.672592692171965 0.12253304184329315
    vertex 55.11577943874161 4.068626901527007 -0.47716819218250744
    vertex 54.68785441210518 4.496551928163457 0.12253307542895604
  endloop
endfacet
facet normal -0.5609311705074199 0.4302791897494246 -0.7072595286185648
  outer loop
    vertex 55.11577943874161 4.068626901527007 -0.47716819218250744
    vertex 54.82293524131336 4.672592692171965 0.12253304184329315
    vertex 55.34703422302644 4.370004003997931 -0.4772472900666547
  endloop
endfacet
facet normal 0.9238795325113051 -0.38268343236504543 2.12669518154727e-14
  outer loop
    vertex 53.350692054879865 5.5225926921720445 0.12253304184325932
    vertex 53.26577669575093 5.317588880509277 2.0000000000001585
    vertex 53.26577669575093 5.317588880509157 0.12253301523979712
  endloop
endfacet
facet normal 0.9238795325113051 -0.38268343236504543 2.12669518154727e-14
  outer loop
    vertex 53.26577669575093 5.317588880509277 2.0000000000001585
    vertex 53.350692054879865 5.5225926921720445 0.12253304184325932
    vertex 53.350692054879865 5.522592692172133 2.000000000000151
  endloop
endfacet
facet normal 0.38268343236512503 -0.9238795325112723 5.767782144311736e-14
  outer loop
    vertex 53.86681745975945 5.9186296445177256 0.12253312809024326
    vertex 53.66181364809662 5.833714285388906 2.0000000000001394
    vertex 53.66181364809666 5.833714285388805 0.12253310699749621
  endloop
endfacet
facet normal 0.38268343236512503 -0.9238795325112723 5.767782144311736e-14
  outer loop
    vertex 53.66181364809662 5.833714285388906 2.0000000000001394
    vertex 53.86681745975945 5.9186296445177256 0.12253312809024326
    vertex 53.86681745975945 5.91862964451784 2.000000000000137
  endloop
endfacet
facet normal -0.6087614290087849 -0.7933533402911858 5.468093673887397e-14
  outer loop
    vertex 54.68785441210518 5.698633456180699 2.0000000000001443
    vertex 54.511813648096606 5.833714285388807 0.12253309395898594
    vertex 54.68785441210518 5.698633456180572 0.12253306037333529
  endloop
endfacet
facet normal -0.6087614290087849 -0.7933533402911858 5.468093673887397e-14
  outer loop
    vertex 54.511813648096606 5.833714285388807 0.12253309395898594
    vertex 54.68785441210518 5.698633456180699 2.0000000000001443
    vertex 54.51181364809665 5.833714285388904 2.0000000000001394
  endloop
endfacet
facet normal 0.6087614290086707 0.7933533402912736 -3.945634982981155e-14
  outer loop
    vertex 53.48577288408804 4.49655192816357 2.0000000000001887
    vertex 53.66181364809666 4.361471098955245 0.12253309395904234
    vertex 53.48577288408804 4.496551928163467 0.12253306037338042
  endloop
endfacet
facet normal 0.6087614290086707 0.7933533402912736 -3.945634982981155e-14
  outer loop
    vertex 53.66181364809666 4.361471098955245 0.12253309395904234
    vertex 53.48577288408804 4.49655192816357 2.0000000000001887
    vertex 53.66181364809662 4.361471098955363 2.0000000000001936
  endloop
endfacet
facet normal 0.38268343236514124 0.9238795325112655 -5.1951314486170747e-14
  outer loop
    vertex 53.66181364809662 4.361471098955363 2.0000000000001936
    vertex 53.86681745975945 4.276555739826316 0.12253312056251255
    vertex 53.66181364809666 4.361471098955245 0.12253309395904234
  endloop
endfacet
facet normal 0.38268343236514124 0.9238795325112655 -5.1951314486170747e-14
  outer loop
    vertex 53.86681745975945 4.276555739826316 0.12253312056251255
    vertex 53.66181364809662 4.361471098955363 2.0000000000001936
    vertex 53.86681745975945 4.276555739826428 2.0000000000001967
  endloop
endfacet
facet normal -0.13052619222005268 -0.9914448613738103 5.95661259055133e-14
  outer loop
    vertex 54.306809836433764 5.91862964451784 2.000000000000137
    vertex 54.08681364809661 5.947592692172021 0.12253313305536309
    vertex 54.306809836433764 5.9186296445177256 0.12253312056245615
  endloop
endfacet
facet normal -0.13052619222005268 -0.9914448613738103 5.95661259055133e-14
  outer loop
    vertex 54.08681364809661 5.947592692172021 0.12253313305536309
    vertex 54.306809836433764 5.91862964451784 2.000000000000137
    vertex 54.08681364809661 5.947592692172132 2.0000000000001354
  endloop
endfacet
facet normal 0.13052619222005266 -0.9914448613738103 5.956546824121327e-14
  outer loop
    vertex 54.08681364809661 5.947592692172021 0.12253313305536309
    vertex 53.86681745975945 5.91862964451784 2.000000000000137
    vertex 53.86681745975945 5.9186296445177256 0.12253312809024326
  endloop
endfacet
facet normal 0.13052619222005266 -0.9914448613738103 5.956546824121327e-14
  outer loop
    vertex 53.86681745975945 5.91862964451784 2.000000000000137
    vertex 54.08681364809661 5.947592692172021 0.12253313305536309
    vertex 54.08681364809661 5.947592692172132 2.0000000000001354
  endloop
endfacet
facet normal 0.13052619222004952 0.9914448613738107 -5.919390221510623e-14
  outer loop
    vertex 53.86681745975945 4.276555739826428 2.0000000000001967
    vertex 54.08681364809661 4.247592692172023 0.12253313305542513
    vertex 53.86681745975945 4.276555739826316 0.12253312056251255
  endloop
endfacet
facet normal 0.13052619222004952 0.9914448613738107 -5.919390221510623e-14
  outer loop
    vertex 54.08681364809661 4.247592692172023 0.12253313305542513
    vertex 53.86681745975945 4.276555739826428 2.0000000000001967
    vertex 54.08681364809661 4.247592692172136 2.0000000000001976
  endloop
endfacet
facet normal 0.9238795325112477 0.3826834323651842 -2.3420424638956803e-14
  outer loop
    vertex 53.26577669575089 4.877596503834914 0.12253300771201997
    vertex 53.350692054879865 4.672592692172135 2.000000000000182
    vertex 53.35069205487991 4.672592692171984 0.12253302880478148
  endloop
endfacet
facet normal 0.9238795325112477 0.3826834323651842 -2.3420424638956803e-14
  outer loop
    vertex 53.350692054879865 4.672592692172135 2.000000000000182
    vertex 53.26577669575089 4.877596503834914 0.12253300771201997
    vertex 53.26577669575093 4.877596503834993 2.0000000000001745
  endloop
endfacet
facet normal 0.9914448613737998 -0.13052619222013287 7.744945759861212e-15
  outer loop
    vertex 53.26577669575093 5.317588880509157 0.12253301523979712
    vertex 53.23681364809662 5.0975926921721335 2.0000000000001665
    vertex 53.23681364809662 5.0975926921720305 0.12253300274689354
  endloop
endfacet
facet normal 0.9914448613737998 -0.13052619222013287 7.744945759861212e-15
  outer loop
    vertex 53.23681364809662 5.0975926921721335 2.0000000000001665
    vertex 53.26577669575093 5.317588880509157 0.12253301523979712
    vertex 53.26577669575093 5.317588880509277 2.0000000000001585
  endloop
endfacet
facet normal -0.3826834323650504 -0.9238795325113032 5.6636869790746126e-14
  outer loop
    vertex 54.51181364809665 5.833714285388904 2.0000000000001394
    vertex 54.306809836433764 5.9186296445177256 0.12253312056245615
    vertex 54.511813648096606 5.833714285388807 0.12253309395898594
  endloop
endfacet
facet normal -0.3826834323650504 -0.9238795325113032 5.6636869790746126e-14
  outer loop
    vertex 54.306809836433764 5.9186296445177256 0.12253312056245615
    vertex 54.51181364809665 5.833714285388904 2.0000000000001394
    vertex 54.306809836433764 5.91862964451784 2.000000000000137
  endloop
endfacet
facet normal -0.13052619222004955 0.9914448613738107 -5.919329798475129e-14
  outer loop
    vertex 54.08681364809661 4.247592692172023 0.12253313305542513
    vertex 54.306809836433764 4.276555739826428 2.0000000000001967
    vertex 54.306809836433764 4.276555739826316 0.12253312809029966
  endloop
endfacet
facet normal -0.13052619222004955 0.9914448613738107 -5.919329798475129e-14
  outer loop
    vertex 54.306809836433764 4.276555739826428 2.0000000000001967
    vertex 54.08681364809661 4.247592692172023 0.12253313305542513
    vertex 54.08681364809661 4.247592692172136 2.0000000000001976
  endloop
endfacet
facet normal 0.9914448613738125 0.13052619222003578 -1.8235874951012004e-14
  outer loop
    vertex 53.23681364809662 5.0975926921720305 0.12253300274689354
    vertex 53.26577669575093 4.877596503834993 2.0000000000001745
    vertex 53.26577669575089 4.877596503834914 0.12253300771201997
  endloop
endfacet
facet normal 0.9914448613738125 0.13052619222003578 -1.8235874951012004e-14
  outer loop
    vertex 53.26577669575093 4.877596503834993 2.0000000000001745
    vertex 53.23681364809662 5.0975926921720305 0.12253300274689354
    vertex 53.23681364809662 5.0975926921721335 2.0000000000001665
  endloop
endfacet
facet normal -0.3826834323650775 0.9238795325112918 -5.941006660885921e-14
  outer loop
    vertex 54.306809836433764 4.276555739826316 0.12253312809029966
    vertex 54.511813648096606 4.361471098955362 2.0000000000001936
    vertex 54.51181364809665 4.36147109895525 0.12253310699755261
  endloop
endfacet
facet normal -0.3826834323650775 0.9238795325112918 -5.941006660885921e-14
  outer loop
    vertex 54.511813648096606 4.361471098955362 2.0000000000001936
    vertex 54.306809836433764 4.276555739826316 0.12253312809029966
    vertex 54.306809836433764 4.276555739826428 2.0000000000001967
  endloop
endfacet
facet normal -0.9238795325113 -0.38268343236505775 2.284488178546946e-14
  outer loop
    vertex 54.90785060044233 5.317588880509277 2.0000000000001585
    vertex 54.8229352413134 5.5225926921720285 0.12253302880474763
    vertex 54.90785060044233 5.317588880509157 0.12253300771200869
  endloop
endfacet
facet normal -0.9238795325113 -0.38268343236505775 2.284488178546946e-14
  outer loop
    vertex 54.8229352413134 5.5225926921720285 0.12253302880474763
    vertex 54.90785060044233 5.317588880509277 2.0000000000001585
    vertex 54.8229352413134 5.522592692172133 2.000000000000151
  endloop
endfacet
facet normal -0.9914448613737994 0.1305261922201353 -6.2736220407922735e-15
  outer loop
    vertex 54.90785060044233 4.877596503834991 2.0000000000001745
    vertex 54.936813648096646 5.0975926921720305 0.12253300274689354
    vertex 54.90785060044233 4.877596503834914 0.1225330152398084
  endloop
endfacet
facet normal -0.9914448613737994 0.1305261922201353 -6.2736220407922735e-15
  outer loop
    vertex 54.936813648096646 5.0975926921720305 0.12253300274689354
    vertex 54.90785060044233 4.877596503834991 2.0000000000001745
    vertex 54.936813648096646 5.0975926921721335 2.0000000000001665
  endloop
endfacet
facet normal 0.6087614290086948 -0.7933533402912551 5.706635405465752e-14
  outer loop
    vertex 53.66181364809666 5.833714285388805 0.12253310699749621
    vertex 53.48577288408804 5.698633456180699 2.0000000000001443
    vertex 53.48577288408804 5.6986334561805645 0.12253307542891093
  endloop
endfacet
facet normal 0.6087614290086948 -0.7933533402912551 5.706635405465752e-14
  outer loop
    vertex 53.48577288408804 5.698633456180699 2.0000000000001443
    vertex 53.66181364809666 5.833714285388805 0.12253310699749621
    vertex 53.66181364809662 5.833714285388906 2.0000000000001394
  endloop
endfacet
facet normal -0.9914448613737998 -0.1305261922201329 7.744079473381712e-15
  outer loop
    vertex 54.936813648096646 5.0975926921721335 2.0000000000001665
    vertex 54.90785060044233 5.317588880509157 0.12253300771200869
    vertex 54.936813648096646 5.0975926921720305 0.12253300274689354
  endloop
endfacet
facet normal -0.9914448613737998 -0.1305261922201329 7.744079473381712e-15
  outer loop
    vertex 54.90785060044233 5.317588880509157 0.12253300771200869
    vertex 54.936813648096646 5.0975926921721335 2.0000000000001665
    vertex 54.90785060044233 5.317588880509277 2.0000000000001585
  endloop
endfacet
facet normal -0.608761429008747 0.793353340291215 -5.438452016441431e-14
  outer loop
    vertex 54.51181364809665 4.36147109895525 0.12253310699755261
    vertex 54.68785441210518 4.496551928163569 2.0000000000001887
    vertex 54.68785441210518 4.496551928163457 0.12253307542895604
  endloop
endfacet
facet normal -0.608761429008747 0.793353340291215 -5.438452016441431e-14
  outer loop
    vertex 54.68785441210518 4.496551928163569 2.0000000000001887
    vertex 54.51181364809665 4.36147109895525 0.12253310699755261
    vertex 54.511813648096606 4.361471098955362 2.0000000000001936
  endloop
endfacet
facet normal -0.9238795325112892 0.3826834323650839 -1.4045819682021256e-14
  outer loop
    vertex 54.8229352413134 4.672592692172135 2.000000000000182
    vertex 54.90785060044233 4.877596503834914 0.1225330152398084
    vertex 54.82293524131336 4.672592692171965 0.12253304184329315
  endloop
endfacet
facet normal -0.9238795325112892 0.3826834323650839 -1.4045819682021256e-14
  outer loop
    vertex 54.90785060044233 4.877596503834914 0.1225330152398084
    vertex 54.8229352413134 4.672592692172135 2.000000000000182
    vertex 54.90785060044233 4.877596503834991 2.0000000000001745
  endloop
endfacet
facet normal -0.0922990217081978 -0.7012886092961963 -0.7068770593696734
  outer loop
    vertex 54.08681364809666 6.55277006852009 -0.4778665717435982
    vertex 54.306809836433764 5.9186296445177256 0.12253312056245615
    vertex 54.08681364809661 5.947592692172021 0.12253313305536309
  endloop
endfacet
facet normal -0.0922990217081978 -0.7012886092961963 -0.7068770593696734
  outer loop
    vertex 54.306809836433764 5.9186296445177256 0.12253312056245615
    vertex 54.08681364809666 6.55277006852009 -0.4778665717435982
    vertex 54.46344126709782 6.503186101818186 -0.47784700219154486
  endloop
endfacet
facet normal 0.09231585490380138 -0.7012899311314847 -0.706873549814235
  outer loop
    vertex 54.08681364809666 6.55277006852009 -0.4778665717435982
    vertex 53.86681745975945 5.9186296445177256 0.12253312809024326
    vertex 53.7101860290954 6.5031861018181845 -0.47785891114166573
  endloop
endfacet
facet normal 0.09231585490380138 -0.7012899311314847 -0.706873549814235
  outer loop
    vertex 53.86681745975945 5.9186296445177256 0.12253312809024326
    vertex 54.08681364809666 6.55277006852009 -0.4778665717435982
    vertex 54.08681364809661 5.947592692172021 0.12253313305536309
  endloop
endfacet
facet normal -0.27062034092437126 -0.6535000826716052 -0.7068962250756348
  outer loop
    vertex 54.46344126709782 6.503186101818186 -0.47784700219154486
    vertex 54.511813648096606 5.833714285388807 0.12253309395898594
    vertex 54.306809836433764 5.9186296445177256 0.12253312056245615
  endloop
endfacet
facet normal -0.27062034092437126 -0.6535000826716052 -0.7068962250756348
  outer loop
    vertex 54.511813648096606 5.833714285388807 0.12253309395898594
    vertex 54.46344126709782 6.503186101818186 -0.47784700219154486
    vertex 54.81440233627065 6.357813267101848 -0.4778015361181391
  endloop
endfacet
facet normal -0.4304919563589468 -0.5611835869796595 -0.7069297399423012
  outer loop
    vertex 54.81440233627065 6.357813267101848 -0.4778015361181391
    vertex 54.68785441210518 5.698633456180572 0.12253306037333529
    vertex 54.511813648096606 5.833714285388807 0.12253309395898594
  endloop
endfacet
facet normal -0.4304919563589468 -0.5611835869796595 -0.7069297399423012
  outer loop
    vertex 54.68785441210518 5.698633456180572 0.12253306037333529
    vertex 54.81440233627065 6.357813267101848 -0.4778015361181391
    vertex 55.115779438741654 6.1265584828169555 -0.47773327196113846
  endloop
endfacet
facet normal -0.561016818423903 -0.4306344485622779 -0.7069753186335322
  outer loop
    vertex 55.115779438741654 6.1265584828169555 -0.47773327196113846
    vertex 54.8229352413134 5.5225926921720285 0.12253302880474763
    vertex 54.68785441210518 5.698633456180572 0.12253306037333529
  endloop
endfacet
facet normal -0.561016818423903 -0.4306344485622779 -0.7069753186335322
  outer loop
    vertex 54.8229352413134 5.5225926921720285 0.12253302880474763
    vertex 55.115779438741654 6.1265584828169555 -0.47773327196113846
    vertex 55.34703422302644 5.8251813803460495 -0.4776468618100402
  endloop
endfacet
facet normal -0.6533001428354106 -0.2707539649406287 -0.7070298535706685
  outer loop
    vertex 55.34703422302644 5.8251813803460495 -0.4776468618100402
    vertex 54.90785060044233 5.317588880509157 0.12253300771200869
    vertex 54.8229352413134 5.5225926921720285 0.12253302880474763
  endloop
endfacet
facet normal -0.6533001428354106 -0.2707539649406287 -0.7070298535706685
  outer loop
    vertex 54.90785060044233 5.317588880509157 0.12253300771200869
    vertex 55.34703422302644 5.8251813803460495 -0.4776468618100402
    vertex 55.492407057742824 5.47422031117317 -0.47754819437383084
  endloop
endfacet
facet normal -0.7010555015876695 -0.09244156499869742 -0.7070896271012982
  outer loop
    vertex 55.492407057742824 5.47422031117317 -0.47754819437383084
    vertex 54.936813648096646 5.0975926921720305 0.12253300274689354
    vertex 54.90785060044233 5.317588880509157 0.12253300771200869
  endloop
endfacet
facet normal -0.7010555015876695 -0.09244156499869742 -0.7070896271012982
  outer loop
    vertex 54.936813648096646 5.0975926921720305 0.12253300274689354
    vertex 55.492407057742824 5.47422031117317 -0.47754819437383084
    vertex 55.54199102444469 5.09759269217203 -0.47744399367524903
  endloop
endfacet
facet normal -0.7010325530845284 0.09214899726385284 -0.7071505651691544
  outer loop
    vertex 54.936813648096646 5.0975926921720305 0.12253300274689354
    vertex 55.492407057742824 4.720965073170801 -0.47734136081969414
    vertex 54.90785060044233 4.877596503834914 0.1225330152398084
  endloop
endfacet
facet normal -0.7010325530845284 0.09214899726385284 -0.7071505651691544
  outer loop
    vertex 55.492407057742824 4.720965073170801 -0.47734136081969414
    vertex 54.936813648096646 5.0975926921720305 0.12253300274689354
    vertex 55.54199102444469 5.09759269217203 -0.47744399367524903
  endloop
endfacet
facet normal -0.6532374456766439 0.2704384508863195 -0.7072085151128071
  outer loop
    vertex 54.90785060044233 4.877596503834914 0.1225330152398084
    vertex 55.34703422302644 4.370004003997931 -0.4772472900666547
    vertex 54.82293524131336 4.672592692171965 0.12253304184329315
  endloop
endfacet
facet normal -0.6532374456766439 0.2704384508863195 -0.7072085151128071
  outer loop
    vertex 55.34703422302644 4.370004003997931 -0.4772472900666547
    vertex 54.90785060044233 4.877596503834914 0.1225330152398084
    vertex 55.492407057742824 4.720965073170801 -0.47734136081969414
  endloop
endfacet
facet normal -0.4304063048597971 0.5607824337938183 -0.7073001305564827
  outer loop
    vertex 54.68785441210518 4.496551928163457 0.12253307542895604
    vertex 54.81440233627065 3.8373721172421513 -0.4771094575573305
    vertex 54.51181364809665 4.36147109895525 0.12253310699755261
  endloop
endfacet
facet normal -0.4304063048597971 0.5607824337938183 -0.7073001305564827
  outer loop
    vertex 54.81440233627065 3.8373721172421513 -0.4771094575573305
    vertex 54.68785441210518 4.496551928163457 0.12253307542895604
    vertex 55.11577943874161 4.068626901527007 -0.47716819218250744
  endloop
endfacet
facet normal 0.4304267641982632 0.560787366232906 -0.7072837694556362
  outer loop
    vertex 53.48577288408804 4.496551928163467 0.12253306037338042
    vertex 53.35922495992257 3.837372117242157 -0.4771324638823019
    vertex 53.05784785745161 4.068626901527025 -0.4772007280393025
  endloop
endfacet
facet normal 0.4304267641982632 0.560787366232906 -0.7072837694556362
  outer loop
    vertex 53.35922495992257 3.837372117242157 -0.4771324638823019
    vertex 53.48577288408804 4.496551928163467 0.12253306037338042
    vertex 53.66181364809666 4.361471098955245 0.12253309395904234
  endloop
endfacet
facet normal 0.6532628309702038 0.2704420696425911 -0.7071836823910935
  outer loop
    vertex 53.26577669575089 4.877596503834914 0.12253300771201997
    vertex 52.826593073166826 4.370004003997926 -0.4772871381904008
    vertex 52.68122023845044 4.720965073170801 -0.47738580562661015
  endloop
endfacet
facet normal 0.6532628309702038 0.2704420696425911 -0.7071836823910935
  outer loop
    vertex 52.826593073166826 4.370004003997926 -0.4772871381904008
    vertex 53.26577669575089 4.877596503834914 0.12253300771201997
    vertex 53.35069205487991 4.672592692171984 0.12253302880478148
  endloop
endfacet
facet normal 0.5609542689387282 0.43028412578739306 -0.7072382054547082
  outer loop
    vertex 53.35069205487991 4.672592692171984 0.12253302880478148
    vertex 53.05784785745161 4.068626901527025 -0.4772007280393025
    vertex 52.826593073166826 4.370004003997926 -0.4772871381904008
  endloop
endfacet
facet normal 0.5609542689387282 0.43028412578739306 -0.7072382054547082
  outer loop
    vertex 53.05784785745161 4.068626901527025 -0.4772007280393025
    vertex 53.35069205487991 4.672592692171984 0.12253302880478148
    vertex 53.48577288408804 4.496551928163467 0.12253306037338042
  endloop
endfacet
facet normal 0.7010822093788355 -0.09244287489163999 -0.7070629749705887
  outer loop
    vertex 52.68122023845044 5.47422031117317 -0.47759263918074674
    vertex 53.23681364809662 5.0975926921720305 0.12253300274689354
    vertex 52.631636271748526 5.09759269217203 -0.47749000632519195
  endloop
endfacet
facet normal 0.7010822093788355 -0.09244287489163999 -0.7070629749705887
  outer loop
    vertex 53.23681364809662 5.0975926921720305 0.12253300274689354
    vertex 52.68122023845044 5.47422031117317 -0.47759263918074674
    vertex 53.26577669575093 5.317588880509157 0.12253301523979712
  endloop
endfacet
facet normal 0.27063849813984253 -0.6535036933063489 -0.7068859357488816
  outer loop
    vertex 53.7101860290954 6.5031861018181845 -0.47785891114166573
    vertex 53.66181364809666 5.833714285388805 0.12253310699749621
    vertex 53.35922495992257 6.357813267101843 -0.4778245424431105
  endloop
endfacet
facet normal 0.27063849813984253 -0.6535036933063489 -0.7068859357488816
  outer loop
    vertex 53.66181364809666 5.833714285388805 0.12253310699749621
    vertex 53.7101860290954 6.5031861018181845 -0.47785891114166573
    vertex 53.86681745975945 5.9186296445177256 0.12253312809024326
  endloop
endfacet
facet normal 0.6533255294456876 -0.2707575661467771 -0.7070050162118976
  outer loop
    vertex 52.82659307316678 5.82518138034607 -0.4776867099337862
    vertex 53.26577669575093 5.317588880509157 0.12253301523979712
    vertex 52.68122023845044 5.47422031117317 -0.47759263918074674
  endloop
endfacet
facet normal 0.6533255294456876 -0.2707575661467771 -0.7070050162118976
  outer loop
    vertex 53.26577669575093 5.317588880509157 0.12253301523979712
    vertex 52.82659307316678 5.82518138034607 -0.4776867099337862
    vertex 53.350692054879865 5.5225926921720445 0.12253304184325932
  endloop
endfacet
facet normal 0.7010592598906457 0.09215033006131461 -0.7071239147357209
  outer loop
    vertex 53.23681364809662 5.0975926921720305 0.12253300274689354
    vertex 52.68122023845044 4.720965073170801 -0.47738580562661015
    vertex 52.631636271748526 5.09759269217203 -0.47749000632519195
  endloop
endfacet
facet normal 0.7010592598906457 0.09215033006131461 -0.7071239147357209
  outer loop
    vertex 52.68122023845044 4.720965073170801 -0.47738580562661015
    vertex 53.23681364809662 5.0975926921720305 0.12253300274689354
    vertex 53.26577669575089 4.877596503834914 0.12253300771201997
  endloop
endfacet
facet normal 0.5610399146201002 -0.43063937517225276 -0.7069539891353063
  outer loop
    vertex 53.05784785745161 6.126558482816948 -0.47776580781793354
    vertex 53.350692054879865 5.5225926921720445 0.12253304184325932
    vertex 52.82659307316678 5.82518138034607 -0.4776867099337862
  endloop
endfacet
facet normal 0.5610399146201002 -0.43063937517225276 -0.7069539891353063
  outer loop
    vertex 53.350692054879865 5.5225926921720445 0.12253304184325932
    vertex 53.05784785745161 6.126558482816948 -0.47776580781793354
    vertex 53.48577288408804 5.6986334561805645 0.12253307542891093
  endloop
endfacet
facet normal 0.43051240626936144 -0.5611885171836958 -0.7069133725070769
  outer loop
    vertex 53.35922495992257 6.357813267101843 -0.4778245424431105
    vertex 53.48577288408804 5.6986334561805645 0.12253307542891093
    vertex 53.05784785745161 6.126558482816948 -0.47776580781793354
  endloop
endfacet
facet normal 0.43051240626936144 -0.5611885171836958 -0.7069133725070769
  outer loop
    vertex 53.48577288408804 5.6986334561805645 0.12253307542891093
    vertex 53.35922495992257 6.357813267101843 -0.4778245424431105
    vertex 53.66181364809666 5.833714285388805 0.12253310699749621
  endloop
endfacet
facet normal -5.469641814083447e-16 -0.0007412171454695199 -0.999999725298534
  outer loop
    vertex 60.88681364809664 31.19758269217199 -0.5000000000000082
    vertex 34.786813648096626 0.797592692172105 -0.477467000000044
    vertex 34.786813648096626 31.19758269217199 -0.5000000000000046
  endloop
endfacet
facet normal -5.469641814083447e-16 -0.0007412171454695199 -0.999999725298534
  outer loop
    vertex 34.786813648096626 0.797592692172105 -0.477467000000044
    vertex 60.88681364809664 31.19758269217199 -0.5000000000000082
    vertex 52.68122023845044 5.47422031117317 -0.47759263918074674
  endloop
endfacet
facet normal -5.469641814083447e-16 -0.0007412171454695199 -0.999999725298534
  outer loop
    vertex 34.786813648096626 0.797592692172105 -0.477467000000044
    vertex 52.68122023845044 5.47422031117317 -0.47759263918074674
    vertex 52.631636271748526 5.09759269217203 -0.47749000632519195
  endloop
endfacet
facet normal -5.469641814083447e-16 -0.0007412171454695199 -0.999999725298534
  outer loop
    vertex 52.68122023845044 5.47422031117317 -0.47759263918074674
    vertex 60.88681364809664 31.19758269217199 -0.5000000000000082
    vertex 52.82659307316678 5.82518138034607 -0.4776867099337862
  endloop
endfacet
facet normal -5.469641814083447e-16 -0.0007412171454695199 -0.999999725298534
  outer loop
    vertex 52.82659307316678 5.82518138034607 -0.4776867099337862
    vertex 60.88681364809664 31.19758269217199 -0.5000000000000082
    vertex 53.05784785745161 6.126558482816948 -0.47776580781793354
  endloop
endfacet
facet normal -5.469641814083447e-16 -0.0007412171454695199 -0.999999725298534
  outer loop
    vertex 53.05784785745161 6.126558482816948 -0.47776580781793354
    vertex 60.88681364809664 31.19758269217199 -0.5000000000000082
    vertex 53.35922495992257 6.357813267101843 -0.4778245424431105
  endloop
endfacet
facet normal -5.469641814083447e-16 -0.0007412171454695199 -0.999999725298534
  outer loop
    vertex 53.35922495992257 6.357813267101843 -0.4778245424431105
    vertex 60.88681364809664 31.19758269217199 -0.5000000000000082
    vertex 53.7101860290954 6.5031861018181845 -0.47785891114166573
  endloop
endfacet
facet normal -5.469641814083447e-16 -0.0007412171454695199 -0.999999725298534
  outer loop
    vertex 53.7101860290954 6.5031861018181845 -0.47785891114166573
    vertex 60.88681364809664 31.19758269217199 -0.5000000000000082
    vertex 54.08681364809666 6.55277006852009 -0.4778665717435982
  endloop
endfacet
facet normal -5.469641814083447e-16 -0.0007412171454695199 -0.999999725298534
  outer loop
    vertex 54.08681364809666 6.55277006852009 -0.4778665717435982
    vertex 60.88681364809664 31.19758269217199 -0.5000000000000082
    vertex 54.46344126709782 6.503186101818186 -0.47784700219154486
  endloop
endfacet
facet normal -5.469641814083447e-16 -0.0007412171454695199 -0.999999725298534
  outer loop
    vertex 54.46344126709782 6.503186101818186 -0.47784700219154486
    vertex 60.88681364809664 31.19758269217199 -0.5000000000000082
    vertex 54.81440233627065 6.357813267101848 -0.4778015361181391
  endloop
endfacet
facet normal -5.469641814083447e-16 -0.0007412171454695199 -0.999999725298534
  outer loop
    vertex 54.81440233627065 6.357813267101848 -0.4778015361181391
    vertex 60.88681364809664 31.19758269217199 -0.5000000000000082
    vertex 55.115779438741654 6.1265584828169555 -0.47773327196113846
  endloop
endfacet
facet normal -5.469641814083447e-16 -0.0007412171454695199 -0.999999725298534
  outer loop
    vertex 55.115779438741654 6.1265584828169555 -0.47773327196113846
    vertex 60.88681364809664 31.19758269217199 -0.5000000000000082
    vertex 55.34703422302644 5.8251813803460495 -0.4776468618100402
  endloop
endfacet
facet normal -5.469641814083447e-16 -0.0007412171454695199 -0.999999725298534
  outer loop
    vertex 55.34703422302644 5.8251813803460495 -0.4776468618100402
    vertex 60.88681364809664 31.19758269217199 -0.5000000000000082
    vertex 55.492407057742824 5.47422031117317 -0.47754819437383084
  endloop
endfacet
facet normal -5.469641814083447e-16 -0.0007412171454695199 -0.999999725298534
  outer loop
    vertex 55.492407057742824 5.47422031117317 -0.47754819437383084
    vertex 60.88681364809664 31.19758269217199 -0.5000000000000082
    vertex 55.54199102444469 5.09759269217203 -0.47744399367524903
  endloop
endfacet
facet normal -5.469641814083447e-16 -0.0007412171454695199 -0.999999725298534
  outer loop
    vertex 34.786813648096626 0.797592692172105 -0.477467000000044
    vertex 53.7101860290954 3.691999282525812 -0.4770869978088971
    vertex 60.88681364809664 0.797592692172105 -0.4774670000000688
  endloop
endfacet
facet normal -5.469641814083447e-16 -0.0007412171454695199 -0.999999725298534
  outer loop
    vertex 53.7101860290954 3.691999282525812 -0.4770869978088971
    vertex 34.786813648096626 0.797592692172105 -0.477467000000044
    vertex 53.35922495992257 3.837372117242157 -0.4771324638823019
  endloop
endfacet
facet normal -5.469641814083447e-16 -0.0007412171454695199 -0.999999725298534
  outer loop
    vertex 53.35922495992257 3.837372117242157 -0.4771324638823019
    vertex 34.786813648096626 0.797592692172105 -0.477467000000044
    vertex 53.05784785745161 4.068626901527025 -0.4772007280393025
  endloop
endfacet
facet normal -5.469641814083447e-16 -0.0007412171454695199 -0.999999725298534
  outer loop
    vertex 53.05784785745161 4.068626901527025 -0.4772007280393025
    vertex 34.786813648096626 0.797592692172105 -0.477467000000044
    vertex 52.826593073166826 4.370004003997926 -0.4772871381904008
  endloop
endfacet
facet normal -5.469641814083447e-16 -0.0007412171454695199 -0.999999725298534
  outer loop
    vertex 52.826593073166826 4.370004003997926 -0.4772871381904008
    vertex 34.786813648096626 0.797592692172105 -0.477467000000044
    vertex 52.68122023845044 4.720965073170801 -0.47738580562661015
  endloop
endfacet
facet normal -5.469641814083447e-16 -0.0007412171454695199 -0.999999725298534
  outer loop
    vertex 52.68122023845044 4.720965073170801 -0.47738580562661015
    vertex 34.786813648096626 0.797592692172105 -0.477467000000044
    vertex 52.631636271748526 5.09759269217203 -0.47749000632519195
  endloop
endfacet
facet normal -5.469641814083447e-16 -0.0007412171454695199 -0.999999725298534
  outer loop
    vertex 60.88681364809664 0.797592692172105 -0.4774670000000688
    vertex 53.7101860290954 3.691999282525812 -0.4770869978088971
    vertex 54.08681364809666 3.6424153158239068 -0.4770674282568352
  endloop
endfacet
facet normal -5.469641814083447e-16 -0.0007412171454695199 -0.999999725298534
  outer loop
    vertex 60.88681364809664 0.797592692172105 -0.4774670000000688
    vertex 54.08681364809666 3.6424153158239068 -0.4770674282568352
    vertex 54.46344126709782 3.691999282525812 -0.47707508885877625
  endloop
endfacet
facet normal -5.469641814083447e-16 -0.0007412171454695199 -0.999999725298534
  outer loop
    vertex 60.88681364809664 0.797592692172105 -0.4774670000000688
    vertex 54.46344126709782 3.691999282525812 -0.47707508885877625
    vertex 54.81440233627065 3.8373721172421513 -0.4771094575573305
  endloop
endfacet
facet normal -5.469641814083447e-16 -0.0007412171454695199 -0.999999725298534
  outer loop
    vertex 60.88681364809664 0.797592692172105 -0.4774670000000688
    vertex 54.81440233627065 3.8373721172421513 -0.4771094575573305
    vertex 55.11577943874161 4.068626901527007 -0.47716819218250744
  endloop
endfacet
facet normal -5.469641814083447e-16 -0.0007412171454695199 -0.999999725298534
  outer loop
    vertex 60.88681364809664 0.797592692172105 -0.4774670000000688
    vertex 55.11577943874161 4.068626901527007 -0.47716819218250744
    vertex 55.34703422302644 4.370004003997931 -0.4772472900666547
  endloop
endfacet
facet normal -5.469641814083447e-16 -0.0007412171454695199 -0.999999725298534
  outer loop
    vertex 60.88681364809664 0.797592692172105 -0.4774670000000688
    vertex 55.34703422302644 4.370004003997931 -0.4772472900666547
    vertex 55.492407057742824 4.720965073170801 -0.47734136081969414
  endloop
endfacet
facet normal -5.469641814083447e-16 -0.0007412171454695199 -0.999999725298534
  outer loop
    vertex 60.88681364809664 0.797592692172105 -0.4774670000000688
    vertex 55.492407057742824 4.720965073170801 -0.47734136081969414
    vertex 55.54199102444469 5.09759269217203 -0.47744399367524903
  endloop
endfacet
facet normal -5.469641814083447e-16 -0.0007412171454695199 -0.999999725298534
  outer loop
    vertex 60.88681364809664 0.797592692172105 -0.4774670000000688
    vertex 55.54199102444469 5.09759269217203 -0.47744399367524903
    vertex 60.88681364809664 31.19758269217199 -0.5000000000000082
  endloop
endfacet
facet normal -0.2705576343599101 0.6530591824660544 -0.7073275554411391
  outer loop
    vertex 54.51181364809665 4.36147109895525 0.12253310699755261
    vertex 54.46344126709782 3.691999282525812 -0.47707508885877625
    vertex 54.306809836433764 4.276555739826316 0.12253312809029966
  endloop
endfacet
facet normal -0.2705576343599101 0.6530591824660544 -0.7073275554411391
  outer loop
    vertex 54.46344126709782 3.691999282525812 -0.47707508885877625
    vertex 54.51181364809665 4.36147109895525 0.12253310699755261
    vertex 54.81440233627065 3.8373721172421513 -0.4771094575573305
  endloop
endfacet
facet normal -0.09227606127409282 0.7008247599520522 -0.7073399355005261
  outer loop
    vertex 54.306809836433764 4.276555739826316 0.12253312809029966
    vertex 54.08681364809666 3.6424153158239068 -0.4770674282568352
    vertex 54.08681364809661 4.247592692172023 0.12253313305542513
  endloop
endfacet
facet normal -0.09227606127409282 0.7008247599520522 -0.7073399355005261
  outer loop
    vertex 54.08681364809666 3.6424153158239068 -0.4770674282568352
    vertex 54.306809836433764 4.276555739826316 0.12253312809029966
    vertex 54.46344126709782 3.691999282525812 -0.47707508885877625
  endloop
endfacet
facet normal 0.092292917374244 0.7008260808022727 -0.7073364276423755
  outer loop
    vertex 53.86681745975945 4.276555739826316 0.12253312056251255
    vertex 54.08681364809666 3.6424153158239068 -0.4770674282568352
    vertex 53.7101860290954 3.691999282525812 -0.4770869978088971
  endloop
endfacet
facet normal 0.092292917374244 0.7008260808022727 -0.7073364276423755
  outer loop
    vertex 54.08681364809666 3.6424153158239068 -0.4770674282568352
    vertex 53.86681745975945 4.276555739826316 0.12253312056251255
    vertex 54.08681364809661 4.247592692172023 0.12253313305542513
  endloop
endfacet
facet normal 0.27057580912539947 0.6530627917840932 -0.7073172707514653
  outer loop
    vertex 53.66181364809666 4.361471098955245 0.12253309395904234
    vertex 53.7101860290954 3.691999282525812 -0.4770869978088971
    vertex 53.35922495992257 3.837372117242157 -0.4771324638823019
  endloop
endfacet
facet normal 0.27057580912539947 0.6530627917840932 -0.7073172707514653
  outer loop
    vertex 53.7101860290954 3.691999282525812 -0.4770869978088971
    vertex 53.66181364809666 4.361471098955245 0.12253309395904234
    vertex 53.86681745975945 4.276555739826316 0.12253312056251255
  endloop
endfacet
facet normal 0.00024254456682848628 2.4423592448418567e-05 0.9999999702878102
  outer loop
    vertex 46.38681364809665 3.297592692172129 1.0000000000001565
    vertex 41.68681364809663 12.397582692172039 1.022533
    vertex 41.68681364809663 3.297592692172129 1.0000000000001572
  endloop
endfacet
facet normal 0.00024254456682848628 2.4423592448418567e-05 0.9999999702878102
  outer loop
    vertex 41.68681364809663 12.397582692172039 1.022533
    vertex 46.38681364809665 3.297592692172129 1.0000000000001565
    vertex 43.88681364809663 12.397582692172048 1.0000000000001135
  endloop
endfacet
facet normal 0.00024254456682848628 2.4423592448418567e-05 0.9999999702878102
  outer loop
    vertex 43.88681364809663 12.397582692172048 1.0000000000001135
    vertex 46.38681364809665 3.297592692172129 1.0000000000001565
    vertex 43.88681364809663 16.59758269217204 1.0000000000001126
  endloop
endfacet
facet normal 0.00024254456682848628 2.4423592448418567e-05 0.9999999702878102
  outer loop
    vertex 43.88681364809663 16.59758269217204 1.0000000000001126
    vertex 46.38681364809665 3.297592692172129 1.0000000000001565
    vertex 44.38681364809665 21.19758269217202 1.0000000000000027
  endloop
endfacet
facet normal 0.00024254456682848628 2.4423592448418567e-05 0.9999999702878102
  outer loop
    vertex 44.38681364809665 21.19758269217202 1.0000000000000027
    vertex 46.38681364809665 3.297592692172129 1.0000000000001565
    vertex 44.38681364809665 28.197582692172016 1.0000000000000095
  endloop
endfacet
facet normal 0.00024254456682848628 2.4423592448418567e-05 0.9999999702878102
  outer loop
    vertex 44.38681364809665 28.197582692172016 1.0000000000000095
    vertex 46.38681364809665 3.297592692172129 1.0000000000001565
    vertex 46.38681364809665 4.9154766921721285 1.000000000000148
  endloop
endfacet
facet normal 0.00024254456682848628 2.4423592448418567e-05 0.9999999702878102
  outer loop
    vertex 44.38681364809665 28.197582692172016 1.0000000000000095
    vertex 46.38681364809665 4.9154766921721285 1.000000000000148
    vertex 58.38681364809663 28.197582692172016 1.0000000000000082
  endloop
endfacet
facet normal 0.00024254456682848628 2.4423592448418567e-05 0.9999999702878102
  outer loop
    vertex 58.38681364809663 28.197582692172016 1.0000000000000082
    vertex 46.38681364809665 4.9154766921721285 1.000000000000148
    vertex 50.38681364809664 6.297592692172128 1.0000000000001479
  endloop
endfacet
facet normal 0.00024254456682848628 2.4423592448418567e-05 0.9999999702878102
  outer loop
    vertex 50.38681364809664 6.297592692172128 1.0000000000001479
    vertex 46.38681364809665 4.9154766921721285 1.000000000000148
    vertex 50.38681364809664 4.9154766921721285 1.000000000000148
  endloop
endfacet
facet normal 0.00024254456682848628 2.4423592448418567e-05 0.9999999702878102
  outer loop
    vertex 58.38681364809663 28.197582692172016 1.0000000000000082
    vertex 50.38681364809664 6.297592692172128 1.0000000000001479
    vertex 55.88681364809665 10.797592692172131 1.0000000000001614
  endloop
endfacet
facet normal 0.00024254456682848628 2.4423592448418567e-05 0.9999999702878102
  outer loop
    vertex 55.88681364809665 10.797592692172131 1.0000000000001614
    vertex 50.38681364809664 6.297592692172128 1.0000000000001479
    vertex 55.88681364809665 6.29759269217214 1.0000000000001676
  endloop
endfacet
facet normal 0.00024254456682848628 2.4423592448418567e-05 0.9999999702878102
  outer loop
    vertex 58.38681364809663 28.197582692172016 1.0000000000000082
    vertex 55.88681364809665 10.797592692172131 1.0000000000001614
    vertex 58.38681364809663 10.797592692172131 1.0000000000000082
  endloop
endfacet
facet normal 0.00024254456682848628 2.4423592448418567e-05 0.9999999702878102
  outer loop
    vertex 43.88681364809663 16.59758269217204 1.0000000000001126
    vertex 41.886813648096634 21.19758269217202 1.0000000000000338
    vertex 41.886813648096634 16.59758269217204 1.0000000000001108
  endloop
endfacet
facet normal 0.00024254456682848628 2.4423592448418567e-05 0.9999999702878102
  outer loop
    vertex 41.886813648096634 21.19758269217202 1.0000000000000338
    vertex 43.88681364809663 16.59758269217204 1.0000000000001126
    vertex 44.38681364809665 21.19758269217202 1.0000000000000027
  endloop
endfacet
facet normal 0.0004280844585542049 -0.00030579214670018394 0.9999998616174202
  outer loop
    vertex 43.88681364809663 12.397582692172055 3.000000000000114
    vertex 41.886813648096634 16.59758269217205 3.000000000000111
    vertex 41.68681364809663 12.397582692172055 3.000000000000113
  endloop
endfacet
facet normal 0.0004280844585542049 -0.00030579214670018394 0.9999998616174202
  outer loop
    vertex 41.886813648096634 16.59758269217205 3.000000000000111
    vertex 43.88681364809663 12.397582692172055 3.000000000000114
    vertex 43.88681364809663 16.59758269217205 3.0000000000001124
  endloop
endfacet
facet normal 0.0004280844585542049 -0.00030579214670018394 0.9999998616174202
  outer loop
    vertex 59.586813648096665 2.0975926921721437 3.022533000000049
    vertex 41.68681364809663 3.29759269217214 3.000000000000157
    vertex 41.68681364809663 2.0975926921721437 3.0225330000000503
  endloop
endfacet
facet normal 0.0004280844585542049 -0.00030579214670018394 0.9999998616174202
  outer loop
    vertex 41.68681364809663 3.29759269217214 3.000000000000157
    vertex 59.586813648096665 2.0975926921721437 3.022533000000049
    vertex 46.38681364809665 3.29759269217214 3.0000000000001568
  endloop
endfacet
facet normal 0.0004280844585542049 -0.00030579214670018394 0.9999998616174202
  outer loop
    vertex 46.38681364809665 3.29759269217214 3.0000000000001568
    vertex 59.586813648096665 2.0975926921721437 3.022533000000049
    vertex 46.38681364809665 4.91547669217214 3.0000000000001488
  endloop
endfacet
facet normal 0.0004280844585542049 -0.00030579214670018394 0.9999998616174202
  outer loop
    vertex 46.38681364809665 4.91547669217214 3.0000000000001488
    vertex 59.586813648096665 2.0975926921721437 3.022533000000049
    vertex 50.38681364809664 4.91547669217214 3.0000000000001488
  endloop
endfacet
facet normal 0.0004280844585542049 -0.00030579214670018394 0.9999998616174202
  outer loop
    vertex 50.38681364809664 4.91547669217214 3.0000000000001488
    vertex 59.586813648096665 2.0975926921721437 3.022533000000049
    vertex 53.8409355552492 4.1799631571975215 3.0000000000001665
  endloop
endfacet
facet normal 0.0004280844585542049 -0.00030579214670018394 0.9999998616174202
  outer loop
    vertex 50.38681364809664 4.91547669217214 3.0000000000001488
    vertex 53.8409355552492 4.1799631571975215 3.0000000000001665
    vertex 53.61181364809663 4.274868558576919 3.0000000000001665
  endloop
endfacet
facet normal 0.0004280844585542049 -0.00030579214670018394 0.9999998616174202
  outer loop
    vertex 50.38681364809664 4.91547669217214 3.0000000000001488
    vertex 53.61181364809663 4.274868558576919 3.0000000000001665
    vertex 50.38681364809664 6.29759269217214 3.0000000000001483
  endloop
endfacet
facet normal 0.0004280844585542049 -0.00030579214670018394 0.9999998616174202
  outer loop
    vertex 50.38681364809664 6.29759269217214 3.0000000000001483
    vertex 53.61181364809663 4.274868558576919 3.0000000000001665
    vertex 53.41506220596942 4.425841250044916 3.0000000000001665
  endloop
endfacet
facet normal 0.0004280844585542049 -0.00030579214670018394 0.9999998616174202
  outer loop
    vertex 50.38681364809664 6.29759269217214 3.0000000000001483
    vertex 53.41506220596942 4.425841250044916 3.0000000000001665
    vertex 53.26408951450141 4.622592692172135 3.0000000000001665
  endloop
endfacet
facet normal 0.0004280844585542049 -0.00030579214670018394 0.9999998616174202
  outer loop
    vertex 50.38681364809664 6.29759269217214 3.0000000000001483
    vertex 53.26408951450141 4.622592692172135 3.0000000000001665
    vertex 53.16918411312201 4.85171459932474 3.0000000000001665
  endloop
endfacet
facet normal 0.0004280844585542049 -0.00030579214670018394 0.9999998616174202
  outer loop
    vertex 50.38681364809664 6.29759269217214 3.0000000000001483
    vertex 53.16918411312201 4.85171459932474 3.0000000000001665
    vertex 52.78681364809663 6.297592680531502 3.0000600921852367
  endloop
endfacet
facet normal 0.0004280844585542049 -0.00030579214670018394 0.9999998616174202
  outer loop
    vertex 52.78681364809663 6.297592680531502 3.0000600921852367
    vertex 53.16918411312201 4.85171459932474 3.0000000000001665
    vertex 53.1368136480966 5.0975926921721335 3.0000000000001665
  endloop
endfacet
facet normal 0.0004280844585542049 -0.00030579214670018394 0.9999998616174202
  outer loop
    vertex 53.8409355552492 4.1799631571975215 3.0000000000001665
    vertex 59.586813648096665 2.0975926921721437 3.022533000000049
    vertex 54.08681364809661 4.147592692172135 3.0000000000001665
  endloop
endfacet
facet normal 0.0004280844585542049 -0.00030579214670018394 0.9999998616174202
  outer loop
    vertex 54.08681364809661 4.147592692172135 3.0000000000001665
    vertex 59.586813648096665 2.0975926921721437 3.022533000000049
    vertex 54.332691740944014 4.17996315719752 3.0000000000001665
  endloop
endfacet
facet normal 0.0004280844585542049 -0.00030579214670018394 0.9999998616174202
  outer loop
    vertex 54.332691740944014 4.17996315719752 3.0000000000001665
    vertex 59.586813648096665 2.0975926921721437 3.022533000000049
    vertex 54.56181364809664 4.274868558576918 3.0000000000001665
  endloop
endfacet
facet normal 0.0004280844585542049 -0.00030579214670018394 0.9999998616174202
  outer loop
    vertex 54.56181364809664 4.274868558576918 3.0000000000001665
    vertex 59.586813648096665 2.0975926921721437 3.022533000000049
    vertex 54.75856509022385 4.425841250044915 3.0000000000001665
  endloop
endfacet
facet normal 0.0004280844585542049 -0.00030579214670018394 0.9999998616174202
  outer loop
    vertex 54.75856509022385 4.425841250044915 3.0000000000001665
    vertex 59.586813648096665 2.0975926921721437 3.022533000000049
    vertex 54.90953778169186 4.622592692172135 3.0000000000001665
  endloop
endfacet
facet normal 0.0004280844585542049 -0.00030579214670018394 0.9999998616174202
  outer loop
    vertex 54.90953778169186 4.622592692172135 3.0000000000001665
    vertex 59.586813648096665 2.0975926921721437 3.022533000000049
    vertex 55.00444318307125 4.8517145993247395 3.0000000000001665
  endloop
endfacet
facet normal 0.0004280844585542049 -0.00030579214670018394 0.9999998616174202
  outer loop
    vertex 55.00444318307125 4.8517145993247395 3.0000000000001665
    vertex 59.586813648096665 2.0975926921721437 3.022533000000049
    vertex 55.03681364809662 5.0975926921721335 3.0000000000001665
  endloop
endfacet
facet normal 0.0004280844585542049 -0.00030579214670018394 0.9999998616174202
  outer loop
    vertex 55.03681364809662 5.0975926921721335 3.0000000000001665
    vertex 59.586813648096665 2.0975926921721437 3.022533000000049
    vertex 55.38681364809663 6.29759269217214 3.0000000000001545
  endloop
endfacet
facet normal 0.0004280844585542049 -0.00030579214670018394 0.9999998616174202
  outer loop
    vertex 55.38681364809663 6.29759269217214 3.0000000000001545
    vertex 59.586813648096665 2.0975926921721437 3.022533000000049
    vertex 55.88681364809665 6.29759269217214 3.0000000000001616
  endloop
endfacet
facet normal 0.0004280844585542049 -0.00030579214670018394 0.9999998616174202
  outer loop
    vertex 55.88681364809665 6.29759269217214 3.0000000000001616
    vertex 59.586813648096665 2.0975926921721437 3.022533000000049
    vertex 55.88681364809665 10.797592692172143 3.0000000000001616
  endloop
endfacet
facet normal 0.0004280844585542049 -0.00030579214670018394 0.9999998616174202
  outer loop
    vertex 55.88681364809665 10.797592692172143 3.0000000000001616
    vertex 59.586813648096665 2.0975926921721437 3.022533000000049
    vertex 58.38681364809663 10.797592692172143 3.000000000000008
  endloop
endfacet
facet normal 0.0004280844585542049 -0.00030579214670018394 0.9999998616174202
  outer loop
    vertex 58.38681364809663 10.797592692172143 3.000000000000008
    vertex 59.586813648096665 2.0975926921721437 3.022533000000049
    vertex 58.38681364809663 28.19758269217203 3.000000000000008
  endloop
endfacet
facet normal 0.0004280844585542049 -0.00030579214670018394 0.9999998616174202
  outer loop
    vertex 41.68681364809663 12.397582692172055 3.000000000000113
    vertex 40.18681364809666 14.697582692172121 3.022532999999987
    vertex 40.18681364809666 12.397582692172048 3.0225329999999997
  endloop
endfacet
facet normal 0.0004280844585542049 -0.00030579214670018394 0.9999998616174202
  outer loop
    vertex 40.18681364809666 14.697582692172121 3.022532999999987
    vertex 41.68681364809663 12.397582692172055 3.000000000000113
    vertex 40.18681364809666 26.79758269217211 3.0225329999999024
  endloop
endfacet
facet normal 0.0004280844585542049 -0.00030579214670018394 0.9999998616174202
  outer loop
    vertex 40.18681364809666 26.79758269217211 3.0225329999999024
    vertex 41.68681364809663 12.397582692172055 3.000000000000113
    vertex 40.18681364809666 29.897582692172033 3.0225329999998882
  endloop
endfacet
facet normal 0.0004280844585542049 -0.00030579214670018394 0.9999998616174202
  outer loop
    vertex 40.18681364809666 29.897582692172033 3.0225329999998882
    vertex 41.68681364809663 12.397582692172055 3.000000000000113
    vertex 41.886813648096634 21.19758269217203 3.000000000000034
  endloop
endfacet
facet normal 0.0004280844585542049 -0.00030579214670018394 0.9999998616174202
  outer loop
    vertex 40.18681364809666 29.897582692172033 3.0225329999998882
    vertex 41.886813648096634 21.19758269217203 3.000000000000034
    vertex 44.38681364809665 28.19758269217203 3.00000000000001
  endloop
endfacet
facet normal 0.0004280844585542049 -0.00030579214670018394 0.9999998616174202
  outer loop
    vertex 40.18681364809666 29.897582692172033 3.0225329999998882
    vertex 44.38681364809665 28.19758269217203 3.00000000000001
    vertex 59.586813648096665 29.897582692172033 3.022532999999887
  endloop
endfacet
facet normal 0.0004280844585542049 -0.00030579214670018394 0.9999998616174202
  outer loop
    vertex 41.886813648096634 21.19758269217203 3.000000000000034
    vertex 41.68681364809663 12.397582692172055 3.000000000000113
    vertex 41.886813648096634 16.59758269217205 3.000000000000111
  endloop
endfacet
facet normal 0.0004280844585542049 -0.00030579214670018394 0.9999998616174202
  outer loop
    vertex 44.38681364809665 28.19758269217203 3.00000000000001
    vertex 41.886813648096634 21.19758269217203 3.000000000000034
    vertex 44.38681364809665 21.19758269217203 3.000000000000003
  endloop
endfacet
facet normal 0.0004280844585542049 -0.00030579214670018394 0.9999998616174202
  outer loop
    vertex 59.586813648096665 29.897582692172033 3.022532999999887
    vertex 44.38681364809665 28.19758269217203 3.00000000000001
    vertex 58.38681364809663 28.19758269217203 3.000000000000008
  endloop
endfacet
facet normal 0.0004280844585542049 -0.00030579214670018394 0.9999998616174202
  outer loop
    vertex 59.586813648096665 29.897582692172033 3.022532999999887
    vertex 58.38681364809663 28.19758269217203 3.000000000000008
    vertex 59.586813648096665 2.0975926921721437 3.022533000000049
  endloop
endfacet
facet normal 0.0004280844585542049 -0.00030579214670018394 0.9999998616174202
  outer loop
    vertex 40.18681364809666 14.697582692172121 3.022532999999987
    vertex 36.086813648096644 26.79758269217211 3.0225329999999024
    vertex 36.086813648096644 14.697582692172121 3.022532999999987
  endloop
endfacet
facet normal 0.0004280844585542049 -0.00030579214670018394 0.9999998616174202
  outer loop
    vertex 36.086813648096644 26.79758269217211 3.0225329999999024
    vertex 40.18681364809666 14.697582692172121 3.022532999999987
    vertex 40.18681364809666 26.79758269217211 3.0225329999999024
  endloop
endfacet
facet normal -1.9705995804694304e-07 0.9999999999999001 4.0140719945373516e-07
  outer loop
    vertex 50.38681364809664 6.297592692172128 1.0000000000001479
    vertex 52.78680575354195 6.297608130048337 2.020060092338815
    vertex 55.88681364809665 6.29759269217214 1.0000000000001676
  endloop
endfacet
facet normal -1.9705995804694304e-07 0.9999999999999001 4.0140719945373516e-07
  outer loop
    vertex 52.78680575354195 6.297608130048337 2.020060092338815
    vertex 50.38681364809664 6.297592692172128 1.0000000000001479
    vertex 50.38681364809664 6.29759269217214 3.0000000000001483
  endloop
endfacet
facet normal -1.9705995804694304e-07 0.9999999999999001 4.0140719945373516e-07
  outer loop
    vertex 55.88681364809665 6.29759269217214 1.0000000000001676
    vertex 52.78680575354195 6.297608130048337 2.020060092338815
    vertex 55.38680575354194 6.2976081416889755 2.0200000001537326
  endloop
endfacet
facet normal -1.9705995804694304e-07 0.9999999999999001 4.0140719945373516e-07
  outer loop
    vertex 52.78680575354195 6.297608130048337 2.020060092338815
    vertex 50.38681364809664 6.29759269217214 3.0000000000001483
    vertex 52.78681364809663 6.297592680531502 3.0000600921852367
  endloop
endfacet
facet normal -1.9705995804694304e-07 0.9999999999999001 4.0140719945373516e-07
  outer loop
    vertex 55.38680575354194 6.2976081416889755 2.0200000001537326
    vertex 55.88681364809665 6.29759269217214 3.0000000000001616
    vertex 55.88681364809665 6.29759269217214 1.0000000000001676
  endloop
endfacet
facet normal -1.9705995804694304e-07 0.9999999999999001 4.0140719945373516e-07
  outer loop
    vertex 55.88681364809665 6.29759269217214 3.0000000000001616
    vertex 55.38680575354194 6.2976081416889755 2.0200000001537326
    vertex 55.38681364809663 6.29759269217214 3.0000000000001545
  endloop
endfacet
facet normal -1.0 0.0 0.0
  outer loop
    vertex 55.88681364809665 10.797592692172143 3.0000000000001616
    vertex 55.88681364809665 6.29759269217214 1.0000000000001676
    vertex 55.88681364809665 6.29759269217214 3.0000000000001616
  endloop
endfacet
facet normal -1.0 0.0 0.0
  outer loop
    vertex 55.88681364809665 6.29759269217214 1.0000000000001676
    vertex 55.88681364809665 10.797592692172143 3.0000000000001616
    vertex 55.88681364809665 10.797592692172131 1.0000000000001614
  endloop
endfacet
endsolid Pinadapter
