solid Pinadapter
facet normal 0.0 1.0 0.0
  outer loop
    vertex 115.34961160343882 20.337573930872686 2.4999999999999956
    vertex 116.84961160343885 20.337573930872686 0.9999999999999926
    vertex 115.34961160343882 20.337573930872686 0.9999999999999926
  endloop
endfacet
facet normal 0.0 1.0 0.0
  outer loop
    vertex 116.84961160343885 20.337573930872686 0.9999999999999926
    vertex 115.34961160343882 20.337573930872686 2.4999999999999956
    vertex 116.84961160343885 20.337573930872686 2.4999999999999956
  endloop
endfacet
facet normal -1.0 0.0 0.0
  outer loop
    vertex 115.34961160343882 20.337573930872686 2.4999999999999956
    vertex 115.34961160343882 11.337573930872681 0.9999999999999926
    vertex 115.34961160343882 11.337573930872681 2.4999999999999956
  endloop
endfacet
facet normal -1.0 0.0 0.0
  outer loop
    vertex 115.34961160343882 11.337573930872681 0.9999999999999926
    vertex 115.34961160343882 20.337573930872686 2.4999999999999956
    vertex 115.34961160343882 20.337573930872686 0.9999999999999926
  endloop
endfacet
facet normal 0.0 0.0 1.0
  outer loop
    vertex 116.84961160343882 11.337573930872681 2.4999999999999956
    vertex 115.34961160343882 20.337573930872686 2.4999999999999956
    vertex 115.34961160343882 11.337573930872681 2.4999999999999956
  endloop
endfacet
facet normal 0.0 0.0 1.0
  outer loop
    vertex 115.34961160343882 20.337573930872686 2.4999999999999956
    vertex 116.84961160343882 11.337573930872681 2.4999999999999956
    vertex 116.84961160343885 20.337573930872686 2.4999999999999956
  endloop
endfacet
facet normal 0.0 -1.0 0.0
  outer loop
    vertex 116.84961160343882 11.337573930872681 2.4999999999999956
    vertex 115.34961160343882 11.337573930872681 0.9999999999999926
    vertex 116.84961160343882 11.337573930872681 0.9999999999999926
  endloop
endfacet
facet normal 0.0 -1.0 0.0
  outer loop
    vertex 115.34961160343882 11.337573930872681 0.9999999999999926
    vertex 116.84961160343882 11.337573930872681 2.4999999999999956
    vertex 115.34961160343882 11.337573930872681 2.4999999999999956
  endloop
endfacet
facet normal 0.0 0.0 -1.0
  outer loop
    vertex 116.84961160343886 22.43757393087266 -5.639932965095795e-15
    vertex 103.44961160343884 9.237573930872617 -5.639932965095795e-15
    vertex 103.4496116034388 22.43757393087266 -5.639932965095795e-15
  endloop
endfacet
facet normal 0.0 0.0 -1.0
  outer loop
    vertex 103.44961160343884 9.237573930872617 -5.639932965095795e-15
    vertex 116.84961160343886 22.43757393087266 -5.639932965095795e-15
    vertex 116.84961160343877 9.237573930872685 -5.639932965095795e-15
  endloop
endfacet
facet normal 1.0 0.0 0.0
  outer loop
    vertex 104.94961160343883 20.33757393087264 0.9999999999999926
    vertex 104.94961160343883 11.337573930872637 2.4999999999999956
    vertex 104.94961160343883 11.337573930872637 0.9999999999999926
  endloop
endfacet
facet normal 1.0 0.0 0.0
  outer loop
    vertex 104.94961160343883 11.337573930872637 2.4999999999999956
    vertex 104.94961160343883 20.33757393087264 0.9999999999999926
    vertex 104.94961160343883 20.33757393087264 2.4999999999999956
  endloop
endfacet
facet normal 0.0 1.0 0.0
  outer loop
    vertex 103.4496116034388 20.33757393087264 2.4999999999999956
    vertex 104.94961160343883 20.33757393087264 0.9999999999999926
    vertex 103.4496116034388 20.33757393087264 0.9999999999999926
  endloop
endfacet
facet normal 0.0 1.0 0.0
  outer loop
    vertex 104.94961160343883 20.33757393087264 0.9999999999999926
    vertex 103.4496116034388 20.33757393087264 2.4999999999999956
    vertex 104.94961160343883 20.33757393087264 2.4999999999999956
  endloop
endfacet
facet normal 0.0 0.0 1.0
  outer loop
    vertex 103.44961160343883 11.337573930872637 2.4999999999999956
    vertex 104.94961160343883 20.33757393087264 2.4999999999999956
    vertex 103.4496116034388 20.33757393087264 2.4999999999999956
  endloop
endfacet
facet normal 0.0 0.0 1.0
  outer loop
    vertex 104.94961160343883 20.33757393087264 2.4999999999999956
    vertex 103.44961160343883 11.337573930872637 2.4999999999999956
    vertex 104.94961160343883 11.337573930872637 2.4999999999999956
  endloop
endfacet
facet normal 0.0 -1.0 0.0
  outer loop
    vertex 104.94961160343883 11.337573930872637 2.4999999999999956
    vertex 103.44961160343883 11.337573930872637 0.9999999999999926
    vertex 104.94961160343883 11.337573930872637 0.9999999999999926
  endloop
endfacet
facet normal 0.0 -1.0 0.0
  outer loop
    vertex 103.44961160343883 11.337573930872637 0.9999999999999926
    vertex 104.94961160343883 11.337573930872637 2.4999999999999956
    vertex 103.44961160343883 11.337573930872637 2.4999999999999956
  endloop
endfacet
facet normal 1.0 -5.4622764024905245e-15 -4.4234768353692244e-15
  outer loop
    vertex 116.84961160343886 22.43757393087266 -5.639932965095795e-15
    vertex 116.84961160343877 9.237573930872685 0.9999999999999926
    vertex 116.84961160343877 9.237573930872685 -5.639932965095795e-15
  endloop
endfacet
facet normal 1.0 -5.4622764024905245e-15 -4.4234768353692244e-15
  outer loop
    vertex 116.84961160343877 9.237573930872685 0.9999999999999926
    vertex 116.84961160343886 22.43757393087266 -5.639932965095795e-15
    vertex 116.84961160343882 11.337573930872681 0.9999999999999926
  endloop
endfacet
facet normal 1.0 -5.4622764024905245e-15 -4.4234768353692244e-15
  outer loop
    vertex 116.84961160343882 11.337573930872681 0.9999999999999926
    vertex 116.84961160343886 22.43757393087266 -5.639932965095795e-15
    vertex 116.84961160343882 11.337573930872681 2.4999999999999956
  endloop
endfacet
facet normal 1.0 -5.4622764024905245e-15 -4.4234768353692244e-15
  outer loop
    vertex 116.84961160343882 11.337573930872681 2.4999999999999956
    vertex 116.84961160343886 22.43757393087266 -5.639932965095795e-15
    vertex 116.84961160343885 20.337573930872686 0.9999999999999926
  endloop
endfacet
facet normal 1.0 -5.4622764024905245e-15 -4.4234768353692244e-15
  outer loop
    vertex 116.84961160343885 20.337573930872686 0.9999999999999926
    vertex 116.84961160343886 22.43757393087266 -5.639932965095795e-15
    vertex 116.84961160343886 22.43757393087266 0.9999999999999926
  endloop
endfacet
facet normal 1.0 -5.4622764024905245e-15 -4.4234768353692244e-15
  outer loop
    vertex 116.84961160343885 20.337573930872686 2.4999999999999956
    vertex 116.84961160343882 11.337573930872681 2.4999999999999956
    vertex 116.84961160343885 20.337573930872686 0.9999999999999926
  endloop
endfacet
facet normal 0.0 1.0 0.0
  outer loop
    vertex 103.4496116034388 22.43757393087266 0.9999999999999926
    vertex 116.84961160343886 22.43757393087266 -5.639932965095795e-15
    vertex 103.4496116034388 22.43757393087266 -5.639932965095795e-15
  endloop
endfacet
facet normal 0.0 1.0 0.0
  outer loop
    vertex 116.84961160343886 22.43757393087266 -5.639932965095795e-15
    vertex 103.4496116034388 22.43757393087266 0.9999999999999926
    vertex 116.84961160343886 22.43757393087266 0.9999999999999926
  endloop
endfacet
facet normal -1.0 -3.1288767742421357e-15 -4.423476835369249e-15
  outer loop
    vertex 103.4496116034388 20.33757393087264 2.4999999999999956
    vertex 103.44961160343883 11.337573930872637 0.9999999999999926
    vertex 103.44961160343883 11.337573930872637 2.4999999999999956
  endloop
endfacet
facet normal -1.0 -3.1288767742421357e-15 -4.423476835369249e-15
  outer loop
    vertex 103.44961160343883 11.337573930872637 0.9999999999999926
    vertex 103.44961160343884 9.237573930872617 -5.639932965095795e-15
    vertex 103.44961160343884 9.237573930872617 0.9999999999999926
  endloop
endfacet
facet normal -1.0 -3.1288767742421357e-15 -4.423476835369249e-15
  outer loop
    vertex 103.44961160343884 9.237573930872617 -5.639932965095795e-15
    vertex 103.44961160343883 11.337573930872637 0.9999999999999926
    vertex 103.4496116034388 22.43757393087266 -5.639932965095795e-15
  endloop
endfacet
facet normal -1.0 -3.1288767742421357e-15 -4.423476835369249e-15
  outer loop
    vertex 103.4496116034388 22.43757393087266 -5.639932965095795e-15
    vertex 103.44961160343883 11.337573930872637 0.9999999999999926
    vertex 103.4496116034388 20.33757393087264 0.9999999999999926
  endloop
endfacet
facet normal -1.0 -3.1288767742421357e-15 -4.423476835369249e-15
  outer loop
    vertex 103.4496116034388 20.33757393087264 0.9999999999999926
    vertex 103.44961160343883 11.337573930872637 0.9999999999999926
    vertex 103.4496116034388 20.33757393087264 2.4999999999999956
  endloop
endfacet
facet normal -1.0 -3.1288767742421357e-15 -4.423476835369249e-15
  outer loop
    vertex 103.4496116034388 22.43757393087266 -5.639932965095795e-15
    vertex 103.4496116034388 20.33757393087264 0.9999999999999926
    vertex 103.4496116034388 22.43757393087266 0.9999999999999926
  endloop
endfacet
facet normal 5.0506862373992454e-15 -1.0 0.0
  outer loop
    vertex 116.84961160343877 9.237573930872685 0.9999999999999926
    vertex 103.44961160343884 9.237573930872617 -5.639932965095795e-15
    vertex 116.84961160343877 9.237573930872685 -5.639932965095795e-15
  endloop
endfacet
facet normal 5.0506862373992454e-15 -1.0 0.0
  outer loop
    vertex 103.44961160343884 9.237573930872617 -5.639932965095795e-15
    vertex 116.84961160343877 9.237573930872685 0.9999999999999926
    vertex 103.44961160343884 9.237573930872617 0.9999999999999926
  endloop
endfacet
facet normal 0.0 0.0 1.0
  outer loop
    vertex 103.44961160343884 9.237573930872617 0.9999999999999926
    vertex 104.94961160343883 11.337573930872637 0.9999999999999926
    vertex 103.44961160343883 11.337573930872637 0.9999999999999926
  endloop
endfacet
facet normal 0.0 0.0 1.0
  outer loop
    vertex 104.94961160343883 11.337573930872637 0.9999999999999926
    vertex 103.44961160343884 9.237573930872617 0.9999999999999926
    vertex 116.84961160343877 9.237573930872685 0.9999999999999926
  endloop
endfacet
facet normal 0.0 0.0 1.0
  outer loop
    vertex 104.94961160343883 11.337573930872637 0.9999999999999926
    vertex 116.84961160343877 9.237573930872685 0.9999999999999926
    vertex 104.94961160343883 20.33757393087264 0.9999999999999926
  endloop
endfacet
facet normal 0.0 0.0 1.0
  outer loop
    vertex 104.94961160343883 20.33757393087264 0.9999999999999926
    vertex 116.84961160343877 9.237573930872685 0.9999999999999926
    vertex 115.34961160343882 11.337573930872681 0.9999999999999926
  endloop
endfacet
facet normal 0.0 0.0 1.0
  outer loop
    vertex 115.34961160343882 11.337573930872681 0.9999999999999926
    vertex 116.84961160343877 9.237573930872685 0.9999999999999926
    vertex 116.84961160343882 11.337573930872681 0.9999999999999926
  endloop
endfacet
facet normal 0.0 0.0 1.0
  outer loop
    vertex 104.94961160343883 20.33757393087264 0.9999999999999926
    vertex 103.4496116034388 22.43757393087266 0.9999999999999926
    vertex 103.4496116034388 20.33757393087264 0.9999999999999926
  endloop
endfacet
facet normal 0.0 0.0 1.0
  outer loop
    vertex 103.4496116034388 22.43757393087266 0.9999999999999926
    vertex 104.94961160343883 20.33757393087264 0.9999999999999926
    vertex 116.84961160343886 22.43757393087266 0.9999999999999926
  endloop
endfacet
facet normal 0.0 0.0 1.0
  outer loop
    vertex 116.84961160343886 22.43757393087266 0.9999999999999926
    vertex 104.94961160343883 20.33757393087264 0.9999999999999926
    vertex 115.34961160343882 20.337573930872686 0.9999999999999926
  endloop
endfacet
facet normal 0.0 0.0 1.0
  outer loop
    vertex 115.34961160343882 20.337573930872686 0.9999999999999926
    vertex 104.94961160343883 20.33757393087264 0.9999999999999926
    vertex 115.34961160343882 11.337573930872681 0.9999999999999926
  endloop
endfacet
facet normal 0.0 0.0 1.0
  outer loop
    vertex 116.84961160343886 22.43757393087266 0.9999999999999926
    vertex 115.34961160343882 20.337573930872686 0.9999999999999926
    vertex 116.84961160343885 20.337573930872686 0.9999999999999926
  endloop
endfacet
endsolid Pinadapter
